<mxfile host="app.diagrams.net" modified="2022-05-10T15:36:13.371Z" agent="5.0 (Windows NT 10.0; Win64; x64) AppleWebKit/537.36 (KHTML, like Gecko) Chrome/100.0.4896.127 Safari/537.36" etag="iXbvShh9fFY4IBS_V4RL" version="18.0.2" type="github">
  <diagram id="DI7djPoCY0pmqxqkJ2AS" name="第 1 页">
    <mxGraphModel dx="1422" dy="1907" grid="1" gridSize="10" guides="1" tooltips="1" connect="1" arrows="1" fold="1" page="1" pageScale="1" pageWidth="827" pageHeight="1169" math="0" shadow="0">
      <root>
        <mxCell id="0" />
        <mxCell id="1" parent="0" />
        <mxCell id="YZjhSqeYnAwiwWr1wC6c-54" value="" style="rounded=0;whiteSpace=wrap;html=1;strokeColor=none;fillColor=#B0B0B0;fontColor=#333333;" parent="1" vertex="1">
          <mxGeometry x="530" y="-1150" width="150" height="607.5" as="geometry" />
        </mxCell>
        <mxCell id="YZjhSqeYnAwiwWr1wC6c-53" value="" style="rounded=0;whiteSpace=wrap;html=1;strokeColor=none;fillColor=#FD944E;" parent="1" vertex="1">
          <mxGeometry x="200" y="-1150" width="310" height="607.5" as="geometry" />
        </mxCell>
        <mxCell id="YZjhSqeYnAwiwWr1wC6c-52" value="" style="rounded=0;whiteSpace=wrap;html=1;strokeColor=none;fillColor=#539CEA;" parent="1" vertex="1">
          <mxGeometry x="40" y="-1150" width="140" height="610" as="geometry" />
        </mxCell>
        <mxCell id="YZjhSqeYnAwiwWr1wC6c-2" value="" style="shape=image;verticalLabelPosition=bottom;labelBackgroundColor=default;verticalAlign=top;aspect=fixed;imageAspect=0;image=data:image/jpeg,/9j/4AAQSkZJRgABAQAAAQABAAD/2wBDAAYEBAUEBAYFBQUGBgYHCQ4JCQgICRINDQoOFRIWFhUSFBQXGiEcFxgfGRQUHScdHyIjJSUlFhwpLCgkKyEkJST/2wBDAQYGBgkICREJCREkGBQYJCQkJCQkJCQkJCQkJCQkJCQkJCQkJCQkJCQkJCQkJCQkJCQkJCQkJCQkJCQkJCQkJCT/wAARCAJcAygDASIAAhEBAxEB/8QAHwAAAQUBAQEBAQEAAAAAAAAAAAECAwQFBgcICQoL/8QAtRAAAgEDAwIEAwUFBAQAAAF9AQIDAAQRBRIhMUEGE1FhByJxFDKBkaEII0KxwRVS0fAkM2JyggkKFhcYGRolJicoKSo0NTY3ODk6Q0RFRkdISUpTVFVWV1hZWmNkZWZnaGlqc3R1dnd4eXqDhIWGh4iJipKTlJWWl5iZmqKjpKWmp6ipqrKztLW2t7i5usLDxMXGx8jJytLT1NXW19jZ2uHi4+Tl5ufo6erx8vP09fb3+Pn6/8QAHwEAAwEBAQEBAQEBAQAAAAAAAAECAwQFBgcICQoL/8QAtREAAgECBAQDBAcFBAQAAQJ3AAECAxEEBSExBhJBUQdhcRMiMoEIFEKRobHBCSMzUvAVYnLRChYkNOEl8RcYGRomJygpKjU2Nzg5OkNERUZHSElKU1RVVldYWVpjZGVmZ2hpanN0dXZ3eHl6goOEhYaHiImKkpOUlZaXmJmaoqOkpaanqKmqsrO0tba3uLm6wsPExcbHyMnK0tPU1dbX2Nna4uPk5ebn6Onq8vP09fb3+Pn6/9oADAMBAAIRAxEAPwD2/Tf9b8S/+wn/AO4qzqr8VP8AkXrb/r7X/wBAerWm/wCt+Jf/AGE//cVZ1V+Kn/IvW3/X2v8A6A9dOC/jw9Tnxn8GXoeWClpBS19cz5gKKKKi4rhRRRTuFwoooouMKKKKdwCiiilcAooop3AKKTIoyKVwFopMilp3AK9T+Fv/ACAbn/r6b/0BK8sr1P4W/wDIBuf+vpv/AEBK87NP4PzO7L/43yZ1mlf8hS7/AOuEX/o2eo9O/wBTN/19XH/o16k0r/kKXf8A1wi/9Gz1Hp3+pm/6+rj/ANHPXzUup9Cjw9vvGkpW+8aSvzZn6igooooAKKKKACiiigAooooAKKKKACiiigAooooAKKKKACiiigAooooAKKKKACiiigAooooAKKKKACiiigAooooAKKKKACiiigAooooAXj0pKKKgApOKDRQ9ho9M+GP/ACA7j/r6P/oK1rv/AMhiD/fT/wBu6yPhj/yA7j/r6P8A6Ata7/8AIYg/30/9u6++y7/dqfofnmZf7zU9Ti/GX/IyXf8A2z/9FrWL61teMv8AkZLv/gH/AKLWsXsa72cCEooopAFFFFAC9+tFHfqa851f4EeGNX1K71Ga91dJ7qZ55Akse0MzFjjMZ4ye+aAKv7RH/Il2X/YSj/8ARUteoCvnr4q/CvRfA/h631LTrrUZZpbtbcrcOhXaUdiflQc5Ud/Wu0/4Zz8Kf9BHWv8Av9F/8boA9RorM8M+HbXwpodto1lJPLb224I05Bc7mLHJAA6se1af50AFFH50UAFFH+etFABSikoHWgDtfh30v/8Atl/7NSa1/wAj/wCGf+wuv/pt1Cl+HfS//wC2X/s1JrX/ACP/AIZ/7C6/+m3UKAPRKKKKACiiigAooooAKKKKACiiigAooooA4XTf9b8TP+wn/wC4qzqr8VP+Retv+vtf/QHq3pn+u+Jn/YT/APcVZ1U+Kn/IvW3/AF9r/wCgPXTgv48PU58V/Bl6Hlg6VHYST6xdta6RYX2pyISJGtYGeOMjGQ0n3A3PQnNW9H0BfF2vw6NPdG00yOP7TqdwsnlkQghViDZBUyMcZHO1XwQcGvd9NuvDmjWUFhptzpVnaW6BI4YZEVEX0AB4r18bmLpz5ILU8rB4BVYqc9jxH/hGvEv/AEK+rf8AfKf/ABVH/CNeJf8AoVtW/wC+U/8Aiq93/tvSP+gpY/8AgQn+NH9t6R/0FLH/AMCE/wAa4f7VreR2/wBnUezPCP8AhGvEv/Qrat/3yn/xVH/CNeJf+hW1b/vlP/iq93/tvSP+gpY/+BCf40f23pH/AEFLH/wIT/Gj+1a3kH9nUezPB/8AhGfEv/Qq6v8Akn/xVH/CM+Jf+hV1f8k/+Kr3n+3dJ/6Ctj/3/T/Gj+3dJ/6Ctj/3/T/Gj+1a/kP+zaPn954N/wAIz4l/6FXV/wAk/wDiqP8AhGfEv/Qq6v8Akn/xVe8/27pP/QVsf+/6f40f27pP/QVsf+/6f40f2tW8g/s2j5/eeDf8Iz4l/wChV1f8k/8AiqP+EZ8S/wDQq6v+Sf8AxVe8/wBu6T/0FbH/AL/p/jR/buk/9BWw/wDAhP8AGj+1q3kH9m0fP7zwb/hGfEv/AEKur/kn/wAVR/wjPiX/AKFXV/yT/wCKr3n+3dJ/6Cth/wCBCf40f27pP/QVsf8AwIT/ABo/tat5B/ZtHz+88G/4RnxL/wBCtq3/AHyn/wAVR/wjPiX/AKFbVv8AvlP/AIqveP7c0n/oKWX/AIEJ/jR/bmk/9BSy/wC/6f40/wC1a3kL+zqPn954P/wjPiX/AKFbVv8AvlP/AIqs/V4tR0CIT6vo2p6dbkHNxPbnyUx/fkXKoPdiBX0R/bek/wDQVsf/AAIT/Gg63pJBH9qWJB7GdP8AGj+1a3kH9nUfM+d45FlRXRgysAQVOQR6ivVfhb/yAbn/AK+m/wDQErhfHvhnT/CusW1/oTwHQtWlaEwwNujtLoKX2pjhUdQx28BSvH3sDu/hb/yAbrH/AD9N/wCgJXTi8Qq+GU13OTDUXSxPI+x1elf8hS7/AOuEX/o2eo9N/wBTN/19XH/o56k0r/kKXf8A1wj/APRs9R6b/qZv+vm4/wDRz14cup7aPD2+8aSoNRumsrOe4jhad41LLErBS7dlyeBk9zXo+h/Be1jsUOua1qd7euA0ot5vJgjbAysagZ28fxFj718LgcBPF3cGkl3Pv8bmlLCWU0232PP6K9R/4Uz4a/576x/4HPR/wpjw1/z31j/wOeu//V+r/MvxOD/WOh/K/wAP8zy6ivUf+FMeGv8AnvrH/gc9H/CmPDX/AD31j/wOej/V+r/MvxD/AFjofyv8P8zy6ivUf+FMeGv+e+sf+Bz0f8KY8Nf899Y/8Dno/wBX6v8AMvxD/WOh/K/w/wAzy6ivUP8AhTHhr/nvrH/gc9H/AApjw1/z31j/AMDnp/6v1f51+Iv9Y6P8j/A8vor1D/hTHhr/AJ76x/4HPR/wpjw1/wA99Y/8Dno/1fq/zr8Q/wBY6P8AI/wPL6K9Q/4Ux4a/576x/wCBz0f8KY8Nf899Y/8AA56P9X6v86/EP9Y6P8j/AAPL6K9Q/wCFMeGv+e+sf+Bz0f8ACmPDX/PfWP8AwOej/V+r/OvxD/WOj/I/wPL6K9Q/4Ux4a/576x/4HPR/wpjw1/z31j/wOej/AFfq/wA6/EP9Y6P8j/A8vor1D/hTHhr/AJ76x/4HPR/wpjw1/wA99Y/8Dno/1fq/zr8Q/wBY6P8AI/wPL6K9Q/4Ux4a/576x/wCBz0f8KY8Nf899Y/8AA56P9X6v86/EP9Y6P8j/AAPL6K9Q/wCFM+Gv+e+sf+Bz0f8ACmfDX/PfWP8AwOej/V+r/OvxD/WOj/I/wPL6K9Q/4Uz4a/576x/4HPR/wpjw1/z31j/wOej/AFfq/wA6/EP9Y6P8j/A8vor1D/hTHhr/AJ76x/4HPR/wpjw1/wA99Y/8Dno/1fq/zr8Q/wBY6P8AI/wPL6K9Q/4Ux4a/576x/wCBz0f8KY8Nf899Y/8AA56P9X6v86/EP9Y6P8j/AAPL6K9Q/wCFMeGv+e+sf+Bz0f8ACmfDX/PfWP8AwOej/V+r/OvxD/WOj/I/wPL6K9Q/4Ux4a/576x/4HPR/wpjw1/z31j/wOej/AFfq/wA6/EP9Y6P8j/A8vor1D/hTPhr/AJ76x/4HPR/wpjw1/wA99Y/8Dno/1fq/zr8Q/wBY6P8AI/wPL6K9Q/4Ux4a/576x/wCBz0f8KY8Nf899Y/8AA56P9X6v86/EP9Y6P8j/AAPL6K9Q/wCFMeGv+e+sf+Bz0f8ACmPDX/PfWP8AwOej/V+r/OvxD/WOj/I/wPL6K9R/4Ux4a/576x/4HPR/wpjw1/z31j/wOel/q9V/nX4j/wBY6P8AI/w/zPLqWvUP+FM+Gv8An41j/wADnqhrXwS0+ewcaLrGqWF+o3QyzTefEW7B0bqp74IPoQal8PVekl+ILiOh/I/w/wAyz8Mv+QHcf9fR/wDQFrXf/kMQf76/+3dYHwjmmuPDUslysaXC3TwzpG25UlTCSKD7MpFb7/8AIYg/31/9u6+hwCcaEIyWqR83mE1OvOUdmzi/GX/IyXf/AAD/ANAWsWtrxl/yMl3/AMA/9AWsXsa7DjQlFVlubq+1L+yNG0+fVNS2iR4YSFWFCcB5XYhUHXA+8cHAOK6C3+G/jmWFXnbw5byH70a3E0oX/gXlrn8qAMiitz/hWfjP/n68Pf8Afc3/AMTR/wAKz8Z/8/Xh7/vub/4mgDE79KPyrc/4Vn4xz/x8+H/++5v/AImj/hWfjH/n58P/APfU3/xNAHmHxW8Gah448O2+nabNaxTRXa3BNwzKpUI64G1TzlhXZits/DLxl/z9eH/++pv/AIml/wCFZ+Mv+frw/wD99zf/ABNAGHRW5/wrPxj/AM/Xh/8A76m/+Jo/4Vn4y/5+vD//AH1N/wDE0AYdFbn/AArPxl/z9eH/APvqb/4mj/hWfjL/AJ+vD/8A31N/8TQBh5orc/4Vn4x/5+vD/wD31N/8TR/wrPxj/wA/Ph//AL6m/wDiaAMOlA+tbX/CtPGP/PzoH/fU3/xNc7qlvrvhR4l8U6RHZQSusS6haXHn2hkYkBS5CshPGC6qCWABJoA7z4d9L/8A7Zf+zUmtf8j/AOGf+wuv/pt1Cl+HX/MQ/wC2X/s9JrX/ACP/AIZ/7C6/+m3UKAPRKKKKACiiigAooooAKKKKACiiigAooooA4bS/9f8AEz/sJ/8AuKsqq/FP/kX7b/r7X/0B6taX/r/iX/2E/wD3FWdVfip/yL9t/wBfa/8AoD11YP8AjQ9Tmxf8GXocv8KLaP7b4juefMM+lQ/8BWVmH6ua9qya8b+FAHmeIf8Ar803/wBDr2Sljf48/UMJ/Bh6FHXjjQ9R/wCvWX/0A0h0HSQDnTLH/vwv+FLrwzoeo/8AXrL/AOgGrrdDXMdFjDsYtDvrq7sho1vDPav5bJLbIN4wCGQ9GUgjp06EA1neH9c8F+JIrX7JFpAurlWK2hELSrt6gqucGuTubuaaWwg0zUdTvo4NX/syFjM0c0y7JJZU38EhRsTLc/ueSTzXQ+GtA1LR/FFrHb2eoWehQadJEIp78zp5peMrhSxOQofn60Lp/XS/4/mEnb+vOxtTDw7BqE9g+l2olgthdufsq7RGSw646/KeKr2t94avrjR4rXSoJ01a0kvbeYWqKoiURnLBsMCfNXAx65xXM29j4huvE+sXE11aLc21vbxzhcvEYmmuXMIJAJYRPHzgc4PTgx+BYL2LUfBjXFyk1s+hTPbIFw0KGOzyrHv8wYj0BAqoLmun/Wjf6L8R/at6/odZFc6Bc3d9aQ6D5j2M32eYrYqVD7Ffg9xtdfzp6jR3u4bRPDe53Pzn7JGBCCDhmyc4JGOAefxNYcb26XPi5nknS5Grx/ZTbYM3nfY7faEB4JPOQeMZ3fLmm/DYzLq2tJ4kt4o/GJMcl88ZLRvbkEQ+QT/yyGGGOocOT1BMpXXyX5L/ADCWh0EiaKniCLRf7EtTJLavdCUQR7AFYLtPfJ3DoOx6cZZoy6Hq6XLf2LZQ+RdzWgDQxnzDGxBIwPY8GuX8R2uhz/EKG3uHm1CSSxkZ7IX8mHPnRnaYw2CvqmNpA5FYXhTRv7QvLa/0jwvpVvc6frV1e5by4mktn+0RIUYKTjJ47fJx2pJXSb8/zJvq/Jr/ANJv+Z6Vfp4f0y9srS50q2T7azpFKLVTGHVS21jj5cqGIJ44POcZpjUfDaapc6fLo0EZgu47Iyi1RkMrxLIoOASoIcDJAGeM8jNPxA3neKk0iwvZJ7q9jWe5097ho44o4TnzAwBZCzNEh28HHrk1yctjPZ+M9W0PylnvtSktbpYHae8VYigRpmMkiLtUxHk89AAeBTWv9f15lWO/1eTRNIv7CwOgJdXF95hiS3tojgIAWJ3EY+8Kpapqmk6NZteXng+4jgVlVm+z23BZgo/j9SKr+LrVNQ8WaFbvp51FobK9m2CONwCfJQHbIQOrHv2NZMcFnrVvdrYeHpbk2FwElSLT7JA8sbBiisz4PIAJBODkZBHBcl6HoH9haT/0C7H/AL8J/hTdBjSLT2jjRURbm4CqowAPOfgCr0bM8asyNGSASjYyp9Dgkfkap6KP9Dk/6+rn/wBHPQM4H4sD/inL7/sNWn/ouKrXwr50C4/6+m/9ASqvxZ/5Fu//AOwzaf8AoEVWvhZ/yALj/r6b/wBASu2H+6S/xHHL/eo+h1mlf8hS7/64x/8AoyesXVPFOkeD9Hn1PXL1LKyF9LC07glVZ52Vc4BwMkc9B1OBk153+0jrmq+Hvh7qF7o2p3umXYns0E9nO8MgUy3GRuUg4PpXIfFT4I+K9S8JzS6Z4s8T6/cefFajSZrgmCZo28tpmDNtDEoZCT/ExOa4WdyLGo3UN5pBuLaaOWKQoyyRsGVhvHQivpsCviDwf8NNX8K2T3l/rE0RYoWsbdv3Z+YD588E9OgGPWvuCvIyilTpxnGnLmV/0PZzmpOo6cqkeV22+YUmaDRXsHihmsS6uWi/tW8udWns7SxbJ2LFtRBEjkkshPc9626yolmc60lvt81pwq7jgAmCLnof5GgDDm8U2ttdwwvqWv8AlSQvO8zWAVYlXbgsDCDg56jI4561abXLJNEvtcfX9TisbDzPPkntkhx5f3sB4gSOoyOM8V5/p3hG7v8AWbKb+04boatbSXED3ljv+ztCkEe6TEg8wnajYJC7lztyBjrtWsYNe+HM/wBnF9fQalayy273Lp/oyyoxUtvYDau4YyWI4o6XKjHVXF0/xhBdO8dzf65ayR2cV5IhtUkKB9w2kLETuBU9sHsTyBsXt59hn0uB9U1Rjqc5ghIihGD5TyZYFAQNsZ98kV5Bp2mxy+IL959Ne1ge2tIYbiexgSORg0u1hm5GNx+6SfnxwMY3d14yEGqaz4TR21GLUknM01tYzM0lvGbedRIUQsgG8hQ5GOcZq2tSFZ3T7fp/mb2m6xDquo3Flb61f7YYYZlmKwBZPMaRQADHnOYz+dZ3iDxna+H5LyNrzxDfGyQtObK2gcRkLu2ElR820g+2RXHaRpH2Ka21eWzWWziSyme+uJgWhEUk5fbuPA+ZeFwMkcda0fHMdze+Jr2LzH+xBUtEUbdnmGCSWRTl1wSgXnJ6jpnNR1C51WheIBrt9JZJea9aTKnmBbm1iXKggHkRkDBIGCee3Q1curyW31eDTI9R1OdyjS3EiLbhLWMDhnJQdTwAOTyegNYHwxeeW4v5opJLqykOGnJKKJB1AQliTksCcjBGMHtFpGlwrq+v2UN9Oi21/tY3Or3CvIzxRylvlYcDzNo68KBTsF9zp9Tul0vSjqkmtahNb5jCmBIGL72VVx8mDksKyI/F8MtzZ263mvJJdTTR4e0jyix7g0nyxEFdwCjB6sKx0toIvhveX9tFIhvdQSZ4BcvNGHW7VCULkkbtu4+5J71S1Wx1hrS1vL3T9aszFfW9raxA2beXAbxGXq5+fiMdx8i57mpvqkF/dudvcapb2liuoTaxri25R3Lf2dkoF+8WAgyo+uMjpWUfGVuYHuIrrXZYll8rcFs1J/eCPdsbD7dzKM7e9J4vs9S1nwmNJhjvV1a43xobmSIO8Q4kLmIFQrIdvA4LL0IBrj0Uz69LCWMOl3NrLfTTSIQ1vIs6XLw7c43Ku1WORgnHY0ddQe3mega3q8mgzxxT3OuTpJtVZYYrcpvZwu1mKgKfmU84yM+hqpb+LbW5uLG2XU9WS4vLt7RYWW1LIVEuXOFI25hcZBPbiue+JESapqN5DY2Ja4tre2upWMoAuS0jJFsUE/NhZV5AJ3KOccVdO0uSz8ReH5VeGS2OoNGrxtyrBb4lGU8hgGXII4PGaqGu49k32X6f8MdVrXir+xpby3ebW57i12uEiS3IkQ9WBC8BQGJDYPyng1f0zV4tVgurqPVdWhtrZFkeeaGFYyrJvyp8vkBSCfqK47xPpc2ia5q7/aJf7Lvri0lFjLCqw3c8zFJizgBmVI41ZlJIwDu4Nb3hGJJNJ1e8S8l1OzmneK3trSQG3KZG3ygCdobPPzBR14HNStg6o0rDXLLUUkMfiG7jZJ2t9kn2dSWEjxjHyY+Zo22884q3osj67pFnqlvquqRw3kKTosscAYKwyMgIRnn1ri/h5oep6fplwJbb7RuvrhnNuwMZeO6l+RklfHGF2uoDcDPTnc8K6zc6J8NdGv7zS7i4jhsbfdHYfv5RHsXLlSFJxySq7jxxnpTa3K7nTDTrrk/2xff98Q//ABusvUL2bT7+CwF5rF1PPC8wEItQFRWVTkuF7utbOnaja6tp9tqFjKJrW6iWaKQAjcjDIODyOD3rA1woPF1ksls10r6XdoYFTd5mZLcbfQdep4Hcil1t/WwhV1G8bUoNPZtajnmG8q0lhmOMcGQqCWKg4GQDyRTptXgtdYudLu9dvLVreCG4M05t0jcSNIFUEp9790x/Ks7wfpGq6Br14NZjW6a9iWSHUN5YwIpwLQseW27sq3V8uSARzz/iHRGl8XahqNnpV1YNcC0giv445Ed2inkecL5OZcOrKN2ApHU4oYdzpNG8VWms6sdMg1y6MrGZY3SS2dXMbAMOEzkhgRxyA3pXR/2dc/8AQYvv++If/jdea/DS8mtdZudL1DVZ8sqw2GXYm8LRb5rn5shwHjZQfmxg9mFej/2Xd99d1L/v3b//ABqna1hLdkWoJJplhcX0+sah5VvG0r7Y4ScKMnA8vk8VzV343tLG8S0n1W/Eot1nnQSWm+AmTZsZdvLA78gE48tvbNzxpYSaf4U1CRtSluZHlhkR7+9FqkTh1CkOgXABwdo+8RgcmvNrmBdF1K7itp5bQumjPKXnUGVvtz/NmeMM3QtuCgEkk5zQld2G1f8ArzR6hqXiCx07SF1VfE7XFs3KFJ7UCRQ21ypKYbbznntTLjxNpUEEtw/iPVDBFALp5Y7IOghIJEmVhI2kBsHocGqHiRb3VPAapaapCEYpHNMJFuvNbzQpjLAKrLnIboSAV461i39nKnh7xNJeXMbzy6fHpCuZi4nkDSb2UtglS8+3HRSpUdKEtbBe2v8AX9WOvn1WOLW7TSTrV75lzA8+8/Z1EYUoAGBTOWLjA9jUuj3ras86rqt/Hslkji3i3zOqEK0ijy87d2Rn29CM8p4zs4D4wt4b203QX0tpuuIF3G3iicsC+35lLzNGoPTAzkbar+DYrG4/4Q+VGjcyRtcRwC/uJntSIDxh5SO+CMYojqSbN744srWTV4k1fUbiXTZUj8uBYZGmykblgFiJCjzFGTxnir/h3XG8Rrd+Rda7A1tNNFia0SMPskZOGaIDJ25xnIzzXnt7oWpR3fjC/uZHnRdUivLi38qJoo9tvbui/M6knb8ny53E5xkAHq/h1aT/AGfVxJpMSNeBTJE6xJFHIqBGgdVd2yDk5KgEHpR0v/Ww5aOxcTxhC0sqy3euwRW6TPNNIloRGImZH4ALMd0bDCg9M9Oav2uo3F/oupajbalfxmzkuoQsiwEM0LMhPEfQlc1yDeGLDStWg0r/AIR4Tf2jYXMTyi2jRhLvLvIoDDgmXAAKkADmuo0SwuNP8Cagt4R9pmF7czJtC+U8ju5TAZgMbsfePTrQtRv9fwt/mdjmjNFGKBBmkpcUUAeY/BzH9ja5/wBjDqn/AKVSV0j/APIZg/30/wDbuvFfCvwn1fxZJ4h1K0+IfijQYW1/UlWz0+5dIlxcuCcBhySKm8U/DnXfCvg3Wp0+Iniq5u7KyubtLmW7kEgKq8igMGzx9ldR6C4k9azp7ff+ZpVd3byX5HX+MP8AkY7z6J/6Atc5quoJpWl3d/KMx2sEk7D1CqSf5VneBL+71Xwdo19qF3cXl3PaI0s9xK0kjnHUsxJNHjkf8UVr/wD2Drn/ANFNVtGZ638OdHXwn4dSzTTri81GQrcaldxeWPPuXRXb7zg4UMqqOyqB2rpDrMqzpAdIvxI6M6ruh5CkAn/Wf7Q/OmeHxxe/9dY//SeKp5x/xPbP/r1n/wDQ4aYB/aN1/wBAa/8A++4f/jlH9o3X/QGv/wDvuH/45XL6j4qvI5NY8j7SyLaybLeSNIpLOVMru3FgHR+CpycFW57C14F8Rza0hinukuG+zQzLl4WkXK4YN5bEYyMgkA8kHtTtuD0/r0/zN7+0rr/oDX//AH3D/wDHKP7Suv8AoDX/AP33D/8AHK4nR9Z1+505J7nVyWkklKnzY1+QSsE4Fq2PlA7mr9n4h1zTdCtmuFttS1K9v5oLc3Vz9mhVA7lA8ghyPkUAYjJY47HNIDp/7Ruv+gNf/wDfcP8A8co/tG6/6A1//wB9w/8Axyl0S61K70+OXV9Oi069ywkt4bjz0GGIBV9q5BAB5UHnkVk+KdcudJuIPsouPNSN5ViMeYbs8IIzJz5bBmRs/wB3dw2DgegLU1f7Ruv+gNf/APfcP/xyj+0br/oDX/8A33D/APHK4HQfiLqGra6z250aWG+trBoLc6uMRs5lMmz938zhQMqO4X1yO6v5r1LgiLVdMtosDCXFuzN+fmr/ACptWJUkyT+0br/oDX//AH3D/wDHKP7Ruv8AoDX/AP33D/8AHKradc3sl3M82saZe28MeHhtLVhIj9QSfNftn5duT6157N8RNQu7qwtIppII73UQ73V232VLdAjyfZzujJHypGCxzkyMAeOJKPS/7Suv+gPf/wDfcP8A8co/tG6/6A1//wB9w/8AxyuO0nx3f3XgiTWN9neNFDDIJIHeZ2VxuYyLHHhGCnqNwyDnFY6eMPEt94Y0We2eZ55mtZZPL0+Rn8osuSzblDBhuJKjbzjPGaq2tvT8RN2/H8D0WfWZrdA8ukX6qWVAd0J5ZgoH+s9SKg1e5iu9KvINU0C6nsHhcXEUvkOjx4O4FfM5GM8VFDdz3/huyuLlt87z2xc+S0Qz56ZwpJOPfPPXvWhr/wDyAtR/69Zf/QDQ1Z2GjgPhVbPpd34j0KWdrh9Hu1sxKxJZ49peIsTklvLePJ7nJ71b1v8A5KB4Z/7DC/8Aps1Gm+EOPiP8Rx/1ELH/ANIIKdrf/JQPDP8A2GF/9Nmo0gPRKKKKACiiigAooooAKKKKACiiigAooooA4bS/9f8AEv8A7Cf/ALirKqnxU/5F+2/6+1/9Aerel/6/4l/9hP8A9xVlVT4qf8i/bf8AX2v/AKA9dWD/AI0PU5sX/Bl6HPfCj7/iH/r803/0ZXsZ6V438KP9Z4h/6/NN/wDRleynpSxn8efqPCfwYehS17/kB6h/17S/+gmrpqlr3/ID1D/r2l/9BNXSK5joMDSPBtlpGq3GopLNM0k008SSHKwNKQZCvuSOp6DgYyc7+e9Zch1/zG8pNMMeflLu4OPfAotP7d+2g3n9nC02EFYt5k3ZGDk4GOvGO/WlskhbbDtP0K2sbS6gbMr3jtJcynhpnYYJOOgAAUDsAB2qGPw1Z21/pNza7oI9LtJbOCBeV8t/L45548pcV574h+Kfk2etvpuofbJboNDpyWhjcWRysSSORzmSRnYZP3UzwATXTeGPEerXGs32m3VrdzRW9xHamW5aBHiYW6yMcI3zg7lPABGW9MVVupT8/wCv+HNWDwmltqmoahbarfQzX0/nsFSBth8uOMhS0ZIGI14zVlNCnF5FdPrepSNGwJUpAokAB+VisQJXk8Z681xo8f3kvjm50qO902KGONVxJcRvGRvk/eDB3BjhV2kjkMfSjQvG2qXXie+tri7tVtvtdvEFkCYRWiBwv77OWYgcBuSOKlPRNCejaZ2N14ctpxLFbkWEFyxe7W0QRyXLHrucc8jqRhvcVBq/hC1v0sDYXVzotxpxC28+n7FKRcboirKUZCAPlKnGARggVzet+Pza63ff2fNJd/Yle1TT4lX97MF3yyuTgqkagDqMksOflpknj3xADdKttpQ+z2un3WSHO4XMjJtxn+HaTnPOe1OK6/15AzrLjw3BPri60Lu6iuhZmzUoVwqFwxIBBG4lQPp2rO1z4daZq1nILO5vNK1F1Zf7TtXDXDBlwwdnz5ikAcNkDAxggEWNZ1+fS9Tl2XOltaRWbzywyTFZ43QgkhVBLKUJ7ZBUdd3HMWvj6/Gs6oGYC3eSyhtRLbXHlxvLwD/qgfmLL1I9qS6Jf1r+oPTU6278M/aor4x6jdWl5dWyWiXduFEluig/c3AjOSxyR3HoKz18BKul2timv6rmzZZLabbAjRMvcCONRzyCMYIJBHNP8QeJb3SdfsdNhjjMdzZ3Fy7C3lmYNG0QAATnB8w8kdhXJab4/wBXFjZ3KyzzJrMUt7bBtGuZjZr5asIwqHMwySflPfHTBp+f9f1uDXQ9WTO0ZOT0J9ao6L/x5yf9fVz/AOjnq1bs7wRNI25yoJOwpk4/unkfQ8iquij/AEOT/r6uf/Rz0AcD8V/+Ra1D/sM2n/oEVWvhZ/yALn/r6b/0BKyfjfqB0nwTq96Laa58nV7RvKhGXf5IRgCvPvBPx7/sTSprb/hAvF93unL77ez3KPlUY69eK64TSwzi97nJKDeIUltY1/2qP+SZaj/182X/AKNuK9n07/j3n/6+7n/0a9fMfxw+JE/jf4cXEUPhDxHp/nXKb2u7UqIFhZnLOeyt54CnuUb0r6T8N3yapo0d/EjpHdSTTqr/AHlDOxAPvzXEztW54Tr0qQ6VcSzSBIowHdmOAqhgST+tfTSsrqGUgqRkEd6+cpY1lR45FDIwwynoR6VY0jXvE/h+BbPTPE94ljGNsNtcxRTiFeyq7LvwOwLEAcDAr5PKMxpYeMoVe59fnOXVsTKM6WtlY+haK8K/4Tnxr/0MSf8AgFF/hS/8Jz41/wChiT/wCi/wr1/7bwvd/czxf7Dxf8q+9HulZUN2lje6gJorr95OrqY7aRwR5UY6qpHUGvH/APhOfGv/AEMa/wDgDF/hR/wnPjf/AKGJP/AGL/Cj+3MJ3f3Mf9hYz+Vfej1QWPhkHI0CIcY/5BD/APxup1bRktLezTTZVtrYKIIRp0uyPaMDC7MDA6V5J/wnXjf/AKGJP/AGL/Cj/hOvG/8A0MSf+AMX+FP+3MJ3f3MP7Cxf8q+9Hrzz6TN9oMthcSfaUEc+/T5T5qDOFb5OR8zce5p9nd6Xp1rFZ2Vlc21tCoSKGHT5USNR0CqEwB7CvHv+E48b/wDQxJ/4Axf4Uf8ACc+N/wDoYk/8AYv8KX9uYTu/uYv7Dxf8q+9HqB0jwm1y1y3hu2M7NvMp0dtxbOc58vOc1blOizPE8umSyNDMbiMvp0pKSkEFxlOGwSM+9eSf8Jx40/6GJP8AwCi/wo/4Tjxp/wBDEv8A4BRf4Uf23he7+5k/2HjP5V96PVltfDi62ddXRSNVMflfbRpcnnbPTf5ecfjU/m6N580/9mSmadg8sh02Xc7BQoJOznhQPoBXkP8AwnHjX/oYl/8AAGL/AAo/4Tjxt/0Ma/8AgDF/hT/trC939zK/sPGfyr70euh9GWxWwGn3AtFIYQjTpQgIbcOAmPvDNS3F7p13EsVxa3cqK6SKrWExAZWDKfudQwBHuK8dHjjxt38Rr/4Axf4Uo8c+Nu/iJf8AwBi/wo/trC939zD+w8Z/KvvR7HNqVlPE0UkN+yNwR9jmGR6fdrO1LTPCus2cFlqfh2C+tLY7oILnR2kjhOMZVWjIXj0ryz/hOfG3/Qxp/wCAMX+FH/Cc+Nv+hjT/AMAYv8KP7awvd/cx/wBhYz+Vfej13ztK+0R3AsbgSxqFR/7PlyoGcAfJ2BP5n1pjLocl5BevpTG6tyzRTnTJPMjLDDFW2ZGRwfWvJf8AhOvG3/QxL/4Axf4Uf8Jz42/6GJP/AABi/wAKX9uYVfaf3MP7Cxf8q+9HrkR0eG8e+TTp1u3BVrg6fMZCM5xu2Zx7dKWCXSba8uLyDT54rm5CiaZNPlVpducbiE5xuPX1ryM+OfGvB/4SRf8AwBi/wpT458agj/ipF/8AAGL/AAp/23he7+5i/sPF/wAq+9HsUOoWNumyG2u4lLFtqWMwGSSSeE6kkk+5og1CwtYUggtbqKKNQqRpYyqqgdAAE4FeOf8ACceNP+hiX/wCi/wo/wCE48af9DEn/gFF/hR/beF7v7mH9iYz+Vfej2b+17f/AJ5Xv/gFN/8AEVTv10XU5UlvtKa7eNSqNPpsjlQcZAynGcDP0HpXkv8AwnHjT/oYk/8AAKL/AAo/4Tjxp/0MSf8AgFF/hS/tvDd39zD+xMZ/KvvR6rDa+HLeZJYdDSKSMhldNJdSpHQgiPirs+pWF3C0E9veyRtwyNYzYb2Pycj2rx3/AITjxt1/4SNP/AGL/Cj/AITjxv8A9DGn/gDF/hR/beE7v7mP+wcZ/KvvR69LdaXJLbzSWE7y2ufIf+zpS0ORtO07PlyOOO1WP7atf+eV9/4Azf8AxFeMDxz42/6GNP8AwBi/wp3/AAm/jbr/AMJGv/gDF/hR/beF7v7mL+w8X/KvvR7L/bFqRgxXxH/XjN/8RVf7TpX2uS8+xXJuZEWN5f7Pm3MiklVJ2dAWbj3NeQ/8Jx43/wChjT/wBh/wo/4Tjxv/ANDGn/gDD/hT/trC939zD+w8X/KvvR6/c3mmXlubaeyupYWIJjfT5ipIII42eoB/CorhtEukt0n0uSZbVxJAJNMlYQuOjLlPlI7EV5IfG/jYdfEaH/txh/wo/wCE48bdvEaj/txi/wAKX9t4Xu/uYf2Hi/5V96PYk1HT45ZJUtbtJZSDI4sJgXIGBk7OeOKht5NHtFgW306aFbZdsITTZR5QxjC/JxxxxXkn/Cb+Nv8AoY0/8AYf8KP+E48bf9DGn/gDD/hT/tvCfzP7mP8AsPGfyr70esFdEa8a8OnXJuHkErOdPmJLhQob7n3gFUA9QAKGTQXvbi/bSXa7uYRbzTtpcm+WIZwjNsyV5PB45ryf/hOPGv8A0Ma/+AMX+FH/AAnHjX/oY1/8AYv8KX9t4X+Z/cw/sTGfyr70epNYeF2kWVvD0RdchW/sd8jPXB8uif8Asy10W+stK0ya1E0MgEcGnSRhnZSM4CAZPHNeW/8ACb+Nv+hjQf8AbjF/hR/wm/jb/oY0P/bjF/hR/bmF/mf3Mn+w8Z/KvvR7sKK8K/4Tjxp/0Ma/+AMX+FH/AAnHjT/oY1/8AYv8KP7awvd/cP8AsPGfyr70e60V4V/wnHjT/oY1/wDAGL/CqWp+IPFetRfZr3xRdi1ZWWWK1gihMwPYuq7wP90ij+2sL3f3MqOQ4x/ZX3o7P4NsJ/D+q3COkkVxrV/cxOjZDJJO7qQfcMD+NR/Fn/kSfE//AGCLv/0nvq0PhZFHb+H5oYkVI47jaqqMADYvArP+KvPgnxPn/oEXf/pPfV3YWp7SlGp31/E4MZT9nVlDtp9x5t8Nj/xQWg4/584/5Va8dH/iifEH/YNuf/RTVz2g+I7fwl8JtK1m6ikmgt7S3DpHjcQzKnGeON2ce1Tap4z0Txd4B8QS6TexzldMuS8Z4kT903VTyP5V0nKfTHh/pe/9dY//AEniqef/AJDlp/16z/8AocNQeH+l7/11j/8ASeKp5v8AkOWn/XrP/wChxUAc3Z6NqwvtcnvbKK/luboJZy3jR7Y7YRJjO1c43tLgYye5HWqfhHSdf8JC40qe0l1IxWpMeptKNlwV2rDCse7MW1cgjGDgNuJLV3tJto6WBnnq+GNRtLvTtNjstXezsIUeW8gvlWO8mKkFShlDKgOWICjJIwRg5vzWHiKXRIVsdC0nz5bh11HT9Vu3MN1FtK7lkCSkZIQgFTxkHsa7Ss7XtX/sewM0caTXMjCK3haTYJJD0GecADJJwcBSe1A7lfwlpd5o+iRWl80HnB5H8qBi0cCs5ZYkZgCyqDtBIHA6AcDI8babrN7qFm9is01mLa4RlXYVgmZQiS4xuYhGl4BxkDgE5p0HxL028uvIsrHULsNc/ZI5oljEcsnkecdu91JGwEhsYOOM5FMvfiNaW+n+Gr+O1uBFrjKVjaJnkWNoJJBgICC3yAYB7k07Pf8ArUFoUodF1jTtYstTi0d59LhYLDpa3Efn2shURm4O4hD8uQUDcAsw3FsDqrpLuWdidGspwDtSR5+Svb+Dj6VyNp8UprvXbfT00jdFNNPErC6t9+UMYUY83GTuk46nZxnnF3xT8SLfw3qT2AGmTS7VIEmoCNlLSRxgOuxivMgPf5VY9sU1ql5it/Xzsb1v/aaXSRrpFhb2sit50sd0d6kD5cKIxnnPcY964seCNash4fMCMXgvnnuFF/LK8YaCcFzM/By0gyFjXknr1rpdJ8Zxazr0OnW0IMTW00ry7sjdG0Iwvqp83qcHjpXT1PmEZWbOE0rwdqY8GHw3qZ/ctZxW0zJeNMZQqbXRQVXy1IAHB5BPAPJxH+HTLZ6ZjSIytppREkGC5NwxQsqgTIM5Uk84/E8+rUUnq2+//B/zCWrv/W6/yOY0qxm0zwTodlcReVPbx2EUkfHyMrxAjjjgitfX/wDkBaj/ANesv/oBo1v/AI9Iv+vm2/8AR6Ua/wD8gLUf+vWX/wBANU5czuJKyscT4Q/5KR8R/wDsIWP/AKQQU7W/+SgeGf8AsML/AOmzUab4Q/5KR8R/+whY/wDpBBTtb/5KB4Z/7DC/+mzUaQz0SiiigAooooAKKKKACiiigAooooAKKKKAOG0v/XfEz/sJ/wDuKs6q/FT/AJF62/6+l/8AQHq1pf8ArviZ/wBhP/3FWdVfip/yL1t/19r/AOgPXVg/40fU5sX/AAZehznwp/1niH/r803/ANGV7LXjXwo+/wCIf+vzTf8A0ZXslLGfxpeoYX+DH0KWv/8AIC1H/r1l/wDQDV48Zqjr/wDyAtR/69pf/QDV6uY6Tlbq48PXUz3Ew1wM5ydkd8i5x6KAB+Ap+lajoNjqCQWEGrm4v22NJLbXboNikjc7jCjGcEkZrp6KQzx7UtMuH8Na9d3jz3e6dibiXTBawBRJsVFjcmVgq8DbtVsscksc6fg+0XTvFepzPb20Sz6mPJMWgyxmRTaRLuWTJEaBlYEngkHnmvQZdQ06X7bDLNDJ9iANyhGfKG3eNw+nNOs9WsdRkkjtLqKZ40SRwhzhXGUP0I6H2prR38rCPO18O3U/xJ1jWby8u4Lh9OiaO3ikwggVpkWNx0bOd564Y8HjnK8KxyjUPAgursNNdRCaSL7W7PIPsjsGZDIeM8/dxnFetT3WnwO5nntI327XMjKDt64Oe3P61CLrSFFhKstltmPlWTqVw2VJxGR6queOwog+VW/rr/mKS5nf+un+RxGqwXNxqXiS8S7125RYXgCGxiggtkEeSgkkUNIpb5iY+vQk7RjlDbW8bXl6bLVlhksNEjhmkguVjZ1nfeNxG3gMvU45969plv7MXqadJPF9qmjaRIGPzOikBiB3ALKD9R602zv7HUkmS1lhuFtpjBKqYIjkU8qR2I4pRVvw/C/+YPf+vL/I43xfPbS+IFmOmXNxa2drcWt/MIykY89UCgv1K4BLMuQoxmuFsLjw9puqalqUfi3wzdxfarK4jju9RVLaQoo+WCTfwU2jGd4JHIySa93rPWHSLu9mhENnLdW20yqY1Lx7hkE8d+fyNCVv6+Y3qYV2Le+8Ty6o16trZ2WmGH7ZuUKpmdXPLAqMLEh57OK4bRtR0bw/rumG71FNB0zTg8cd/fQxQW9/kFFSCQxr8uAC2WzwANw+avYXs7Z5kme3haVCWVygLKSACQfoAPwFPlijmUpIquh6qwBBpx02/rf/ADDuEEqTxLLE6yRuNyupyGB6EHuKp6L/AMeUn/X1c/8Ao96vdBgcCqOi/wDHlJ/19XP/AKOegDgvi1/yLV//ANhq0/8AQIqs/Cv/AJF64/6+2/8AQEqt8Wf+RZ1D/sM2n/oEVWfhX/yALn/r7b/0BK7of7rL1X5HFL/eo+jMr41/8kt8b/8AYLj/APR8tdP8Pf8AkTNK/wCuR/8AQjXMfGv/AJJb43/7Bcf/AKPlrp/h7/yJulf9cT/M1ws7UeSYpKdT9J0jxF4oWaTw3pVvdW8D+U91e3X2eFnHDIhVXZip4J2gZyM5BFfndDC1K8uWkrn6ViMVSoR5qrsiPNLmtX/hXPxG/wCgR4b/APBxL/8AI1H/AArn4jf9Ajw3/wCDiX/5GrreT4x/Y/Ff5nE86wX8/wCD/wAjJ4pc1q/8K6+I3/QI8N/+DiX/AORqP+Fc/Eb/AKBHhv8A8HEv/wAjU3k+Mf2PxX+Yv7awf8/4P/Iys0ZrV/4V18Rv+gR4b/8ABxL/API1H/CufiN/0CPDf/g4l/8Akah5PjH9j8V/mH9tYP8An/B/5GTkUZrV/wCFc/Eb/oEeGv8AwcS//I1H/CufiN/0CPDX/g4l/wDkaj+x8Z/J+K/zH/bWD/n/AAf+RlZFGa1f+Fc/Eb/oEeGv/BxL/wDI1H/CufiN/wBAjw1/4OJf/kaj+x8Z/J+K/wAw/trB/wA/4P8AyMrI9KMitX/hXPxG/wCgR4a/8HEv/wAjUf8ACufiN/0CPDX/AIOJf/kaj+x8Z/J+K/zD+2sH/P8Ag/8AIysj0oyK1f8AhXPxG/6BHhr/AMHEv/yNR/wrn4jf9Ajw1/4OJf8A5Go/sfGfyfiv8w/trB/z/g/8jLyKTNav/CufiN/0CPDX/g4l/wDkaj/hXPxG/wCgR4a/8HEv/wAjUf2PjP5PxX+Yf21gv5/wf+Rl5FJmtX/hXPxG/wCgR4a/8HEv/wAjUf8ACufiN/0CPDX/AIOJf/kaj+x8Z/J+K/zD+2sF/P8Ag/8AIysijNav/CufiN/0CPDX/g4l/wDkaj/hXPxG/wCgR4a/8HEv/wAjUf2PjP5PxX+Yf21gv5/wf+RlZFGa1f8AhXPxG/6BHhr/AMHEv/yNR/wrn4jf9Ajw1/4OJf8A5Go/sfGfyfiv8w/trBfz/g/8jKyKM1rf8K4+I3/QH8Nf+DiX/wCRqP8AhXPxG/6BHhr/AMHEv/yNR/Y+M/k/Ff5i/trB/wA/4P8AyMnIoyK1v+Fc/Eb/AKBHhr/wcS//ACNR/wAK5+I3/QI8Nf8Ag4l/+RqP7Hxn8n4r/MP7awf8/wCD/wAjJyKM1rf8K4+I3/QH8Nf+DiX/AORqT/hXPxG/6A/hr/wcS/8AyNT/ALIxn8n4r/MP7awf8/4P/Iys0ZrV/wCFc/Eb/oD+Gv8Awcy//I1L/wAK5+I3/QH8Nf8Ag5l/+RqP7Ixn8n4r/Mf9tYL+f8H/AJGTkUZFa3/CufiN/wBAfw1/4OZf/kaj/hXPxG/6A/hr/wAHMv8A8jUf2RjP5PxX+Yf21gv5/wAH/kZORRkVq/8ACufiN/0B/DX/AIOJf/kaj/hXPxG/6A/hr/wcS/8AyNR/ZGM/k/Ff5k/21g/5/wAH/kZWRRkVq/8ACufiN/0B/DX/AIOJf/kaj/hXPxG/6A/hr/wcS/8AyNR/ZGM/k/Ff5h/bWD/n/B/5GVkUZFav/CufiN/0B/DX/g4l/wDkaj/hXPxG/wCgP4b/APBxL/8AI1H9kYz+T8V/mH9tYP8An/B/5GVk0c1qf8K8+Iv/AEB/Df8A4OJf/kaj/hXnxF/6A/hv/wAHEv8A8jUlk+LX2PxX+Yf21g/5/wAH/kZeTRWp/wAK8+Iv/QH8N/8Ag4l/+RqD8PviIg3Novh9lHUR6vIWI9gbcAn6kfWksnxa+x+K/wAxxzvBr7f4P/I7f4Y/8gS4/wCvk/8AoK1b1vSrXXGl0q+QyWl9GbadAxUtG6XisMjkcE81mfCW7a50O+SW3ltbq3vnhuLaYYkhkCISrfmCCMggggkGt5/+Qxb/AO+v8ruvrMBGUaEIyVmkfHY+cZ4ic47NnxZ4Y+FNt4p+Gv8Aa2nxSPrkkuyPdMFjAEwBJB9Ez+Vba/BCx8NeFtZ1XU72S91CHT7l40hJjijYRNz6t+OB6g11vwPz/wAK6sv+usv/AKGa6LxwP+KJ8Qf9g26/9FNXdY4z37w99y7z182P/wBJ4qnm/wCQ5Z/9es//AKHFUOgfdvP+usf/AKIip99KLXVLS4eOdoxBMhMULyYJaMjIUHH3TUjNKiqP9tW3/PK+/wDAKb/4ij+2rb/nlff+AU3/AMRQBdrlPiJYRanptlZsiM8t2u0tpj3vG1twAQjyyVyPMJAGSM5Ird/tm2z/AKq+/wDAKb/4ikOs2pIJivcj/pym/wDiKGI8omtZW8XSb49XUW2so8otbVysEf8AZW0E+UrKvzFV69xTpdEfVfDPwweWeWOOGOJYVjlMLCU2Mp3lwCQRtGDz1OQa9UOq2hOfKvgT1/0Kb/4mkk1KxlXZJbXciejWExH/AKBV8ytb0/Atyv8AdY8oso7vStShuLiezi02C+DWlzcXvl200pLbl8zyOhMmF6AlSMmt/wCIl3FZWmsX0V7p9xf28Uc8MbXSqY2gk81IvL5J3Mq7uQTwBjAruhq9oAFEN7gdB9hm4/8AHKX+2bb/AJ5X3/gFN/8AEVKdreRC0OV8NmzuvGMmotqOntPLaMsNrbXSSH5ihlYgID1SPGWbvXc1Q/tm1/55X3/gFN/8TR/bNr/zyvv/AACm/wDiaT7Ai/RVD+2LX/nlff8AgFN/8TR/bNr/AM8r7/wCm/8AiaVgE1v/AI9I/wDr5tv/AEelGv8A/IC1H/r1l/8AQDVfUL6O9jihhhvS5uIG+a0lUACVCSSVAAwDVjX/APkBaj/16y/+gGhAzifCH/JR/iP/ANhCx/8ASCCl1v8A5H/wx/2GF/8ATZqNJ4Q/5KP8R/8AsIWP/pBBS63/AMj/AOGP+wwv/ps1GqGei0UUUAFFFFABRRRQAUUUUAFFFFABRRRQBw2l/wCu+Jf/AGE//cVZ1V+Kn/IvW3/X2v8A6A9WtL/13xL/AOwn/wC4qzqp8VP+Retv+vpf/QHrpwf8aPqc2L/gy9DnfhR9/wAQ/wDX5pv/AKMr2SvCPhlO9v4t1OwE3z6rbWtxbRyOVj8y1mLOucHDMki9uiHsOPahNq/ezsf/AAKb/wCN08arV5eoYTWjG3YXXv8AkBaj/wBesv8A6Aau1i61LqZ0a/D2lmqG3k3FbliQNpyQPL5PtxVvz9X/AOfGw/8AAx//AI1XKdKL9FUPO1f/AJ8bD/wMf/41S+dq/wDz42H/AIGP/wDGqAPF9Q1G/ub7xlNKuo3Vr9rS3tpZI4Wgl/dwxMZAqqQTufYQQDt/Pa8DWduPG9rClpps1u9nLMsqQKWilgMcK7GDttOHcH8a6YeHtVhv9RMFgkSXjIYmgv5IorbZCqDITazj5emB/WofDXgfUfDQtod/2+CHbJGJ9SnJjmwd8nI24Yknbt6secHAcX3/AK0CRiePNJnv9V1K/SeM21lFbwySfZl2h2uo3K7u5RVBJ9GHvVi6s5bHxposMl59se5v4p4pAgHmRpZzqz4UBAAWXp6j8er1rQbzWbaeJ4FgeaF4sw6pPGg3Z+YoqhScnvyai0jw7faMlkYYIpJbWEQFpdUuHVlwAcIwKjJUHocYqYu2nb/ghte3W/5JHF+K9YvLX4w2FvZyavcGHTJdzW6RMkTSXFuFRv3ZbYDsLkZYKwPTNT+adM8Hu2najd2lx/aluFcXALXSzXqI85Tb8qykykdRjHPp0tx4Yvp/E8eqmxsxF9iuraWMXT/vDM8RLF9m4HEWMY6HqMAHP1X4eNcLYxWGm2Vo1vJbgTfbJZWEMU0c3lsWGTkxKAecZPHWqi1aKfz+9sOrf9bCeOZDH4n05pNJuXto3jIuIGh+e4kJjj3hpA2xFDseDk4P8NcmLC41TxJf2um6kttOb7TnEsUqllVcM2OobgHg8Hoa7nxH4W1nxDrGm6iq2Nr9gZi0ZuJSJ8rgHKBSNoZ9p6gknp1qQ+ELm21S/nk0ae5jvfK4/tiUKmxcc5bLevI4pR0s/O4mt/Q9AUEKATuIHJ9aXms9ZdXVQPsNgMD/AJ/HP/tKjztX/wCfKw/8DH/+NUDNCqGi/wDHlJ/19XP/AKOek83V/wDnysf/AALf/wCN1T0ibUxauI7OyZftNxy10wOfOfPHlnvn/wCt0oA474s/8izqH/YatP8A0CKrfwq58PXX/X23/oCVi/F/UpbW1sNGkSA3uq6mt6Y45S3lW8ES7nOVGfnEa4x/H7Gtr4Vf8i/df9fjf+gpXdGLWEk/7y/I4J/73FeRkfGn/kl/jf8A7Bcf/o+Wuq+H3/In6V/1x/8AZjXPfFzT7vVfh14wsdPtbi8u59NjWOCCJpJJG8+XgKoJJ+lcC/xe8ReHvCDaNH8NPGDvHp+DfRWsgjhZ4tzZITgxlirehQ/hwnoIfXr3wqhSH4e6GI0Cg2+4gDGSWJJ/E5NfGvgD4s+I7m6j0y70+XW84G+EYmUep7EfXH1r7M+FZJ+HegkhlJtVJDdRyeDXh5Tg6mGnUjUt0t+J7+c42niqdOVPzv8AgdVmjNFFe4fPBmjNFB6UAVbzUGtZooUtLi5kkVnAi2DAUqDksw/vCsa48e6RZzvb3MsUE0Z2vHJe2qsp9CDLkVrTf8huz/69p/8A0KKue8c+ZJf6AgbVYIIrqS4kuLCza4ZNsLqoIEbgZL9x24oAuWHjnSdVvBZWEkV3clDIIYLy2kfaMAnCyk4GR+dTf8JZbebdRvZ3URtJVhmaVokVZGRXChmcAnaynjPWqngrULm8stTubvUby7gS8kSGS9gWCRI0CghlEaY+YP1XNee2UWqSazqWozx7LV9fhMDl5pJ4VMNvsBQ537k2k8AqR3/hS3S9Pxa/zDo32v8AgepW3iOK9aVbSzmuTEAXEM8Dlc9MgScVSHjizNot0LDUGRrgWoVUQyCUnGwpv3AjqQRwOTgc1V0UT3Os6+FeS4kcWoLSh7RsbW9BuFYyJI3ju6tXtcweRHCjHVJ/K+1EOzrnH+sMWzt90daYI7G6182Kxvd6ZeQJJIsSu7whdzcKCfMwMngZ6kgdSKa3iMJqUWnNpeoC6lieZE/dkFFKhju34HLrwTk546GsnxDBc2fh/Trd/Isk+1WtvJbLtuIRGZlGMyICfl6HAx+GabJaS3Xi+zaHWrwiXSrgxzxrCSAZIsMv7sg9jyDSTu7ev5XE9Pw/Oxpal4wttHuLS3v7O7glvC4hDNFhtoyxJ34AA7nA5A6kVVtPiHpF9K8VqHlZJlt8iaDa0jKGCqTJh+GH3cjPHUEVznxR8rT5dLuzekss6rcSSx3EwXaMx5W2wynzMEEYBY+mAKvw61SNvF13C17AVhtVtSFgu4B5pbeEP2kku+GLcc/MSetOOo3ornWn4h6Wb57COG4uLqM4litnhmMHXmXZIfLHB5fA961xqsrOYxpd4ZAAxTzIcgHODjzOnB/KvMdYl1m71zxdcI9xcaYdJhjQ+ZGjmMfasyEbRuTcGGAclSCM9K6TRvsKa/rMumQwSFdFs/ltMZLbrn5flI56dx9adtGxuNv69P8AMs6t8U9E0S+On31rqcd5kKLZYA8jEnA2qpJbPbGc1t3XiEWOnS6jc6ZfQ20MTTyO5iBRAMkkb88AdOteA3enHS4tasr/AFKxSeaVTqKz65KJEKAsyImzBDBgMnc2cZZsAD0lrTWJfhbe2WuJ5c7QNZ2ksGoTSvdCbCI8m5VIYlwNpyPp0oVmgatJI7uPVZpkWRNIvyjAMp3QjIP1kp/9oXP/AEBr7/vuH/45XB20LyeJ7y3a8vzbI16kaG7lOwLDa4AO7ONxY46ZJrpPDet2GneH/DNpe3ZjuL+ziWAzbj5ziMErvPG49cE5ODjOKP8Agfjf/Im+3z/A2P7Quf8AoDX/AP33D/8AHKoT+Lra0vlsZ7O6iuGjeXazxYVV27izb8LjzE6kZ3DFbwrx7xLP9m8YSyhlnN5HdrD/AKIredMFtEbysydEWL5ieRtfGeMI0jG56HbeMLK9nW3tIJbmViwCwzwPgr1ziQ4/GoIvHdjM0qpZXwMQmLbhGuBE5Rzy/OGBHvg44rlfBwl1G9giFzdRxT2V6rMJmkDvugBcrIWUsGaTqMdsVwejaLZar9mi0GO3F9eabcXUojnsnKAvG0iFY4Q67vNYDlSOAMAU7f19/wDkTFXV7dT3a11qS8tormDSL9opUEiMTCMqRkHBkyPxqnbeM7e9uY7eHTdSaSV540GxACYW2Scl8YDcZ6HtmuWtpVvfB0es2r6g8epatbPAWnkEjW/2tVQAswKgpyBkferFjhKQsVstVUhddIIu+n+kf9dO3f196Tdk32/yuOKvb1/z/wAj0y88Rf2f5P2nTL6Pz5VhjG6E7nboOJKhHi61bUJNPNldrcxSLEyO0Sjey7woJfDHbzgZrmNeW4uZ/D9ik16UntCpMFhPM0C7MO4uE+WORlOxS+MbmOe1ZEiX8HiS90mdbm6kvUtru2eW/fzIQAyl2EIjDpHsG4mTPzKMsWGRLWxCd1c7+78WW9hLcx3NhexG1t/tcxby9scXPzFt+P4W4znimw+MLO5vPscFvLLP5Rm2RzwMdgIBbiToCR+dcN4tje51nxAJoLi2tV0lIXuZZGkLFzMoeKIScrlu5z2CnOa2PD915viqOdWlZraOeymjmfBjCspL8zSHqoGMDIJPbFC1t8/6/IqWn9en/BNw+PNKG3biQsxULFc27sxBwQFWQk4PX074rU/tK4/6A99/31D/APHK8p8+31bUGhtQl3JJcat5DxyPNGJN52EjGyMcddw9+tdp8NDa6jp194itrdLcatcmQQqFHlIiiNVIXgH5S2P9uhPuDVjo/wC0rn/oD33/AH3D/wDHKP7Ruf8AoD33/fcP/wAcq+KKAKH9o3P/AEB77/vuH/45R/aNz/0B77/vuH/45V+igDNuNYltYJLibSb5YokLu26E4AGSeHrRqjr4/wCJFqX/AF6y/wDoBq9igAooooGFFFFAHIaagj8ceJgoCho7NyB3bY4z9cKB+AqZx/xOYD/tr/K7rg/GfxG1TwR8RdXgsPA3iHxKtxaWjtLpcDSLDgSDDYU4JrOi+L2tTQf2q3w18VxzwsxWxe1fzpNrMowNufmFy5HHS3k9DieoPY4D4F8/Dmy/67Tf+hmuj8cf8iX4g/7Btz/6Kasb4QaTqOh+B7Wx1WwurC6SWUtBdRNFIAWJBKsARkGuj8SWMmq+HtVsIceZdWc0CZ/vMhUfqasR7n4f+7ef9dY//SeKtY1y/hPVJtX0O31jS4rWe11KKK6j82do2T90ilWGw4IKkGtnz9Y/58bD/wADH/8AjVSBeoqj5+sf8+Fh/wCBj/8Axqjz9Y/58LD/AMDH/wDjVAi9RVHz9Y/58LD/AMDH/wDjVHn6x/z4WH/gY/8A8aoAvUVR8/WP+fCw/wDAx/8A41R5+sf8+Fh/4GP/APGqAL1FUPP1j/nwsP8AwMf/AONUefrH/PhYf+Bj/wDxqgC/RVDz9Y/58LD/AMDH/wDjVHn6x/z4WH/gY/8A8aoAv0VQ8/WP+fCw/wDAx/8A41R5+sf8+Fh/4GP/APGqANCs/X/+QFqP/XrL/wCgGjz9Y/58LD/wMf8A+NVBfR6vf2NzaNaWMYniaPeLp227gRnHlj1oA5Dwh/yUf4j/APYQsf8A0ggpdb/5H/wx/wBhhf8A02ajUPw7ni1TxR441iBzJDfalGI224DCGFYCR6gtCxB9CKm1v/koHhj/ALDC/wDps1GmM9FooooAKKKKACiiigAooooAKKKKACiiigDhtM/13xL/AOwn/wC4qzqp8VP+Retv+vtf/QHq3pn+u+Jf/YT/APcVZ1U+Kn/IvW3/AF9r/wCgPXTgv48PU58X/Bl6Hk9zbGbyZYp5ba5t3E1vcREB4ZB0YZ/UHggkEEGvQPD/AMarq1iitfFGjXEky/Kb7TAHik4HzNGzB0Oc8DePfnFcKvQUtfQ4nBQr6y3PBw+MqUdI7HqN98X/AAxfWVzaBdXTzomj3/YHO3IxnHfrVb/hcdhn/j4uf/BNN/8AHK82IFArl/sin/Mzr/tWf8qPSv8Ahcmn/wDPe4/8E03/AMco/wCFyaf/AM97j/wTTf8AxyvNcUYqf7Jp92H9qz/lR6V/wuLTv+e9z/4Jpv8A45Sj4x6cP+W9z/4Jpv8A45XmmPpRj6Uf2RT/AJn+Af2rU/lR6V/wuLT/APn4uf8AwSzf/HKP+Fx6f/z8XP8A4JZv/jlea4PtRg1X9kUv5mL+1an8qPSv+Fy6f/z3uv8AwSzf/HKT/hcmnf8APe5/8Es3/wAcrzYijFL+yKf8zD+1an8qPSv+Fyad/wA/Fz/4JZv/AI5R/wALk07/AJ+Ln/wSzf8AxyvNKKP7Ip/zP8A/tWp/Kj0r/hcmn/8APe5/8E03/wAco/4XJp//AD3uf/BNN/8AHK81x7CjHsKf9kUv5mP+1Z/yo9J/4XJp/wDz8XP/AIJZv/jlVZ/jNBYWZttF0TUNTu5GlkE1ygtLdWZy2GLFn/i7K3TtXn9FH9kU/wCZkvNanZDrq4vdT1SfV9WuFu9SnAVnVNqRoMkRouThRk+5OSSc16p8Kf8AkXrn/r7b/wBASvKa9W+FP/IvXP8A19t/6AlVmUIwwyjHa6JwM3PEc0t7M6vSv+Qndf8AXCP/ANGzVVjs4tR0y9s7gEwzy3UTgd1aRwataV/yE7r/AK4R/wDo2eo9N/1Mv/X1cf8Ao56+dZ9AjwLStE07Q7VbXTLOG1hXtGPve5PUn3Ne3/C//kn2hf8AXsP5mvHxXV+APiZpvhnR4PD/AIkM9o9qXS3u47aSSCaLJKZZA2xgCAd2ASMjrgfLZHWSqTVSWrtv8z6vP8O3TpunHRX26Xseu5ozXID4ueCcf8hxP/AeX/4mj/hbngr/AKDif+A8v/xNfTe0j3R8v7Kf8rOw5pDnFch/wtzwT/0HE/8AAeX/AOJo/wCFueCf+g4n/gPL/wDE0vaw/mQeyqfyv7jopv8AkN2n/XtP/wChRVVn8LWFxM8z3GrBnJJCardIv4ASAD6AVz138TfAV68by644eMEK0QuIyAcZHygZ6D8qh/4WH8P/APoYLz/v9d0e1h3Qexqfys6LS/Bmk6PcpcWbamro7yhZNUupIyz53Eo8hU5JJ5B5560XvhCyv/tQlnvFF1eR3snkzGJg6IiAKy4ZRiNScHPJ55rnP+Fi+AP+hhvP+/13R/wsXwB/0MN5/wB/ruj2kO4vZT7M6Sy8J2+myXb2d/qUTXbRmRnuTO+EBGA0u4gEH1+mKtSeHtMl0o6U1t/oh52hmDbs53787t+75t+d2ec55rkf+Fi+AP8AoYbz/v8AXdH/AAsXwB/0MN5/3+u6ftYdw9jPszqJ/C+nXmmW2magJ9Qgt5UmU3UzOzuh3KXP8WCAcHI4FWm0uJ9Wi1Ms/mxQPbhf4drMrE/X5BXG/wDCxfAH/Qw3n/f67o/4WL4A/wChhvP+/wBd0vaxve4exn/Kzp9S8M2er30VxesZYomWQWxjTy3dSCrOSu4lSAQMgeoOKlsfDun6dd311Dbx+Zezid8ovyERomF44GEB+pNcn/wsXwB/0MN5/wB/ruj/AIWL4A/6GG8/7/XdCqRXUPZT7M62XQLK4ub2eVWcXtrHZSxZ2r5amTAGOQf3rd/TpUkmlQkzS20klpcywpAbiLaXVELFQN4K8b26g9a47/hYvgD/AKGG8/7/AF3R/wALF8Af9DDef9/run7WHcfsqnZl2b4aQXAu1k8Qa0wvGZ5+LYbyRg/8seOB2rXtvC6RwwwXep39/HA/mRCcxrsIXauPLROgyRnuc9QMc3/wsXwB/wBDDef9/ruj/hYvgD/oYbz/AL/XdL2kO4OlPszeh8D6Ypja5aa9dTcFmuQjGRpipZiAoGRtAGAMD1rTg0axh0+zsDbxywWQjEAlUPsKDCsM/wAQx1rjv+Fi+AP+hhvP+/13R/wsXwB/0MN5/wB/run7WHdC9jP+VnfisqbQfOuZLk3twk5BSKRAn+joTyIwQQCcDLEEnnGOMcr/AMLF8Af9DDef9/ruj/hYvgD/AKGG8/7/AF3S9rDuHsZ9mdVaeGbDT72G6shLasiMjpG/yXGed0gOS7A5IYnPJ55NZ8fgWyi/s2MX+oG30+yNgkO5AJIjszuIUNk+WmcEdDwMmsb/AIWL8P8A/oYbz/v9eUf8LF+H/wD0MN5/3+vKftY9wVKfZnQP4N00WctlA1zbWsl1FdiGGUqkTJIsmEH8ALLyFx1OMGmSeBNFeF41S8jLCcB1vJsqZm3SEZbGSeeRWF/wsX4f/wDQw3n/AH+vKP8AhYvw/wD+hhvP+/15S9pDuNU6i2TOnvvC2n6jBHDcmeRIofJRHfdHjGNzRHKOw7FlOKpan4C0rU7CWDzby1upI2iOoQSYuQrDBG4gjb/sY2jjAGBWL/wsX4f/APQw3n/f68o/4WL8P/8AoYbz/v8AXlP2se4vZT7M3p/Blle37Xd9cXV4rxxRvbTFDE3llipI25+8xbGcZAxjGKfpnhVdHnzaatqf2Qs8jWcjpJG7Mckl2QyH6b8Vz3/Cxfh//wBDDef9/ryj/hYvw/8A+hhvP+/15R7WHcPZT7M6vUPDthqcto1yjeXah1WFW2xurAAqwHVcAcdD0IIqe30fT7S/nv7e0ihurgATSIuDJjoW9TwOevA9K43/AIWL8P8A/oYbz/v9eUn/AAsX4f8A/Qw3n/f68o9rDuHsp9megUVwH/Cxfh//ANDDef8Af68o/wCFi/D/AP6GG8/7/XlHtIdx+xqfys7/ADRmvP8A/hYvw/8A+hhvP+/15R/wsT4fn/mYbv8A7/XlHtIdw9jU/lZ2OvY/sLUf+vWX/wBANXuK4BviB8PHUq3iC7ZSMEGa7wRV/wD4W54I/wCg6n/gPL/8TS9rDuHsan8rOwzRmuP/AOFueCv+g4n/AH4l/wDiaP8Ahbngr/oOJ/34l/8AiaftId0P2NT+V/cdhmjNcf8A8Lc8Ff8AQcT/AL8S/wDxNRXXxk8E2sDSnVpJsdI4LOeR29gqoTR7SHdD9jU/lf3Fiw/5HnxF/wBcLL/0GSnt/wAhqD/fX+V3WV8P9Sm8SXWt+IpoGtRe3KRQWzgb4oI4wF34ON5ZnYgdMgc4zWq3/Iag/wB9P5XdKM1NKUdiJxcXyyVmcZ4y/wCRjvP+Af8AotaxTW14y/5GO8/4B/6AtYpqzMd4f8Q6v4DuJf7LtU1LRrh3mm0zeI5IZGOWeBj8vzHJKNgEkkMvOe6t/jHocsUbS6drlvIy7miks9zJ7EoWX8ia4EUvegD0H/hb+gD/AJc9Z/8AAF6P+Fv6B/z56z/4AvXBDpRQB3v/AAt/QP8Anz1n/wAAXo/4W/oH/PnrP/gC9cFQelAHe/8AC4PD/wDz6a1/4AvR/wALg8P/APPprX/gC9efVmeH/EuleKLN7zSLsXUEchhZ/LZMOADjDAHow/OmM9U/4XBoH/PnrX/gC9H/AAuDQP8Anz1r/wAAXrgcilpCO9/4XBoH/PnrX/gC9H/C4NA/589a/wDAF64KigDvf+FwaB/z561/4AvR/wALg0D/AJ89a/8AAF64KigDvf8AhcGgf8+etf8AgC9cp4k+I+t+K7eXTdHsLvQLCQlJr64kUXUicZESIWCbhn52O4dlBwRm0UAdb8LbO2061u7SzhSC3hWJEjQYCgbgAPwp+t/8lA8Mf9hhf/TZqFO+HP8AzEf+2X/s9N1v/koHhj/sLr/6bNQpjPRaKKKACiiigAooooAKKKKACiiigAooooA4bTf9d8S/+wn/AO4qzqp8VP8AkXrb/r7X/wBAerem/wCu+Jf/AGE//cVZ1U+Kn/IvW3/X2v8A6A9dOC/jw9Tnxn8GXoeWr0FLSL0FLX1p8sgooopXQ7BRRRRdBYKKKKd0FgoooougsJRRRRdBYKKKKLoLBRRRRdBYKKKKLoLCV6r8Kf8AkXrr/r7b/wBASvKq9V+FP/IvXX/X23/oCV52a/wPmjuy7+MvRnWaV/yFLv8A64R/+jZ6i03/AFU3/Xzcf+jnqXSv+Qpd/wDXCP8A9Gz1Fpv+qm/6+bj/ANHPXzLPokeHg8H60lA6H60V+aPc/UVsFFLRSuxWEopaKLsLCUUtFF2FhKKKKY7BRRRQFgooooCwUUUUBYKKKKAsFFFFAWCiiigLBRRRQFhcUYpaKBWExRilooCwmKMUtFAWExRilooCwmKMUtFAWExRilooCwmKMUtFAWExRilooCw2ilopXYWEoNLSEcUXYJHpfwx/5Alz/wBfLf8AoC1rv/yF4P8Aron8rusn4Y/8gS4/6+W/9AWtWT/kMW//AF0T+V3X32W/7tT9D8+zL/eKnqcZ4y/5GO8/4B/6AtYpra8Zf8jHef8AAP8A0Baxq72eeJiiiikAuaMmkooAXJpM+9FcT8Svht/wsP8As7Gq/wBn/YvN5+z+bv37P9pcY2+/WgDtu2K8u/Z1/wCRJvv+wm//AKKirCP7NWP+ZqH/AIL/AP7ZXLfDr4Rnx/os2ojWfsPlXLQeX9m8zOFVs53j+9+lMZ9LnANGa8t8GfBBvBviWz1v+3/tf2bf+5Fps3bkZeu84xuz07V6l1oAfkUZFMopCH5FGRTKKAH5FGRTKKAO1+HP/MR/7Zf+z03W/wDkoHhj/sLr/wCmzUKd8OOmo/8AbL/2em63/wAlA8Mf9hdf/TZqFMZ6LRRRQAUUUUAFFFFABRRRQAUUUUAFFFFAHDaZ/rfiX/2E/wD3FWdVPir/AMi7bf8AX2v/AKA9W9M/1vxL/wCwn/7irOqnxV/5F21/6+1/9AeunB/x4epzYv8Agy9Dya8vYdPtTPNvIyFVI1LPI5OFRVHLMSQABySa7fwt8HdS1iKG+8VXtxpqN866VYyAOqkHAmm5O7kcRkAEfeas74Z6Wuo+J73XpoIrmLRDDaWcTPhRdz43OTg4KxuoHtK3HSvY7q/1Oys57mSwsykMbSELdsSQBn/nnXbmONk5unB2S/E48Dg4qCnNXbOch+DPgeFFQaK0m3+KW8nkY855ZnJPX1qX/hUHgb/oAx/9/wCX/wCKroxNq/P+gWIx/wBPbc/+QqPO1b/nysf/AALf/wCNV5bnJ7s9Lkj2Od/4U/4H/wCgCn/gRL/8VR/wp/wP/wBAFP8AwIl/+Kro/O1f/nysP/At/wD41Sedq/8Az5WH/gW//wAao9pLuPkj2Od/4U/4H/6AMf8A4ES//FUf8Kf8D/8AQBj/APAiX/4qui87V/8Anysf/At//jVHnav/AM+Vj/4Fv/8AGqSnLuHJHsc5/wAKg8D/APQCT/wIl/8AiqP+FQeB/wDoBJ/4ES//ABVdH52r/wDPlY/+Bb//ABqjztX/AOfKx/8AAt//AI1T55dxckexzn/Cn/A3/QBj/wDAiX/4qj/hT/gb/oAx/wDgRL/8VXR+dq//AD5WP/gW/wD8ao87V/8Anysf/At//jVP2ku4ckexzn/CoPA3/QBj/wDAiX/4qj/hUHgb/oAx/wDgRL/8VXR+dq//AD5WP/gW/wD8ao87V/8Anysf/At//jVLnl3Dkj2Od/4VB4H/AOgCn/gRL/8AF0f8Kg8D/wDQBT/wIl/+LrovO1f/AJ8rD/wLf/43R52r/wDPjYf+Bb//ABunzy7hyR7HO/8ACoPA/wD0AU/8CJf/AIusXU/gRoEiSSaFfapotw5LcXL3MJPPBjlLYXJ6IU6DkV3vnav/AM+Nj/4Fv/8AG6ggv9TnkuI1sLQNbyCN83TYJKK3H7vphhTjUmndNidOLVmj5/1HTdV8NaqdI163jhuiC0M0LFobqMH7yE8gjjKnlc9wQT6l8Kf+Reuf+vtv/QEqx8RvD9z4v0KfTpLC2TU4IZL/AEyZJi5S4jwApygwG37TjPDGs/4N3sepeDxeQZ8q4l81D7NGhH8676uLdbDOM900cUMKqWITjs0ztdK/5Cd1/wBcIv8A0bPUWnf6qb/r5uP/AEc1SaV/yE7r/rhH/wCjZ6j07/VS/wDXzcf+jmry3seijw5f4qKQkKrEkAdSTwBVFdZhmUSWtpqt7C33ZrPTbi4jb6PGhU/nX5xChUqX9nFv0P02pWp0knUkl6sv5ozVH+1W/wCgP4j/APBHef8Axqj+1W/6A/iP/wAEd5/8arb6liP+fb+5mf1/Df8APyP3r/MvZozVH+1W/wCgP4j/APBHef8Axqj+1W/6A/iP/wAEd5/8ao+pYj/n2/uYvr2G/wCfkfvX+ZezRmqP9qt/0B/Ef/gjvP8A41R/arf9AfxH/wCCO8/+NUfUsR/z7f3MPr2G/wCfkfvX+Zf3H2o3H2qh/azf9AfxH/4I7z/41R/azf8AQH8R/wDgjvP/AI1R9SxP/Pt/cw+vYX/n5H70X9x9qNx9qof2s3/QH8R/+CO8/wDjVH9rN/0B/Ef/AII7z/41R9SxP/Pt/cw+vYX/AJ+R+9F/cfajcfaqH9rN/wBAfxH/AOCO8/8AjVH9rN/0B/Ef/gjvP/jVH1LE/wDPt/cw+vYX/n5H70X9x9qNx9qof2s3/QH8R/8AgjvP/jVH9rN/0B/Ef/gjvP8A41R9SxP/AD7f3MPr2F/5+R+9F/cfajcfaqH9rN/0B/Ef/gjvP/jVH9rN/wBAfxH/AOCO8/8AjVH1LE/8+39zD69hf+fkfvRf3H2o3H2qh/azf9AfxH/4I7z/AONUf2s3/QH8R/8AgjvP/jVH1LE/8+39zD69hf8An5H70X9x9qNx9qof2s3/AEB/Ef8A4I7z/wCNUf2s3/QH8R/+CO8/+NUfUsT/AM+39zD69hf+fkfvRf3H2o3H2qh/azf9AfxH/wCCO8/+NUf2s3/QH8R/+CO8/wDjVH1LE/8APt/cw+vYX/n5H70X9x9qNx9qof2s3/QH8R/+CO8/+NUf2s3/AEB/Ef8A4I7z/wCNUfUsT/z7f3MPr2F/5+R+9F/cfajcfaqH9rN/0B/Ef/gjvP8A41R/azf9AfxH/wCCO8/+NUfUsT/z7f3MPr2F/wCfkfvRf3H2o3H2qh/azf8AQH8R/wDgjvP/AI1R/azf9AfxH/4I7z/41R9SxP8Az7f3MPr2F/5+R+9F/cfajcfaqH9rN/0B/Ef/AII7z/41R/azf9AfxH/4I7z/AONUfUsT/wA+39zD69hf+fkfvRf3H2o3H2qh/azf9AfxH/4I7z/41R/azf8AQH8R/wDgjvP/AI1R9SxP/Pt/cw+vYX/n5H70X9x9qNx9qof2s3/QH8R/+CO8/wDjVH9rN/0B/Ef/AII7z/41R9SxP/Pt/cw+vYX/AJ+R+9F/cfajcfaqH9rN/wBAfxH/AOCO8/8AjVH9rN/0B/Ef/gjvP/jVH1LE/wDPt/cw+vYX/n5H70X9x9qNx9qof2s3/QH8R/8AgjvP/jVH9rN/0B/Ef/gjvP8A41R9SxP/AD7f3MPr2F/5+R+9F/cfajcfaqH9rN/0CPEf/gjvP/jVH9rN/wBAjxH/AOCO8/8AjVH1LEf8+39zD69hf+fkfvRoZ+lITxVH+1W/6BHiP/wRXv8A8ao/tVv+gR4j/wDBFe//ABqj6nif+fcvuYfXcN/z8j96PWfhn/yBLj/r4b/0Fa1X/wCQ1B/10X+V3XP/AAn1azvdLvLVJmW6in3yW0qNHNGpVcFo2AYZ56gdK6F/+Q1B/wBdF/ld19rl8HGhCMlZ2PhMwkpV5uLurnFeNf8AkYr3/tn/AOi1rGPStrxr/wAjFe/9s/8A0WtYp6V2nEAopGZY0LuwVVBJYnAArIn8Z+GLYlZfEWkIw6q15GCP1oA2M+xoz7GsP/hOfCn/AEM2h/8AgdF/8VR/wnPhT/oZtD/8Dov/AIqgDcz7GjPsaw/+E58Kf9DNof8A4HRf/FUf8Jz4U/6GbQ//AAOi/wDiqANzIrjPhV4Mv/A3h+407UZrWSeS6acNbMzLtKIvO5Qc5U9q2P8AhOfCn/QzaJ/4HRf/ABVH/Cc+FP8AoZtE/wDA6L/4qgDcySOeaSsT/hO/Cn/Qz6J/4Hxf40f8J14T/wChm0T/AMD4v/iqANvPsaM+xrD/AOE58Kf9DNof/gdF/wDFUf8ACc+FP+hm0P8A8Dov/iqANzPsaM+xrD/4Tnwp/wBDNof/AIHRf/FUf8Jz4U/6GbRP/A6L/wCKoA3KKxYPGvhm6mWGDxDpMsrfdRLuNifoAa2UdZE3owZcZyDkUAdr8Oumof8AbL/2ak1r/kf/AAx/2GF/9Nmo0vw66ah/2y/9mpNa/wCR/wDDH/YYX/02ajQB6LRRRQAUUUUAFFFFABRRRQAUUUUAFFFFAHD6Z/rviX/2Ev8A3FWdVPir/wAi7bf9fa/+gPVrTP8AXfEv/sJf+4qzqr8Vf+Rdtv8Ar7X/ANAeunB/x4epz4v+DL0Mv4R26R+FNVnAO+58Qo8hJ6lTboMf8BRa9I13/kBaj/16y/8AoBrzv4T/APImXv8A2Hl/9GQ16Jr3/ID1H/r1l/8AQDWeI/iz9WVh/wCFH0RfrP1u+uLK0Y2kMsk7ghHWHzVjPqy7lJH0IrQqpqNjJqEIhW7ntkP3zCQrMPTd1X6jB9CKyNjyUax41uPFOt2FpJcEXDwCeeDT8fY4vJIJTdcMEkz0XBPRiMYz3moeKpNJ8H3esw2NzIbJFCLeOFNwPlG/cu7g564/CuT8Y+EPDXhu6vdWSBze3VqIbW2XSo7lZZEDsFDtE3zuzEks2T+FdBrmkXUfgax8PQ20Ut1N5EUiQRpEhCsrykKMKuQr46DLAd6S2E9/6/r/AIY5zVte1u68ZI1pdSQ7NMZsaWXuEf8Ae9wbaTnjjC+vNdBYa3fQ+D3l12a7QS3DWiX8DiSaIFyiyShY49pD8EBDjjd/FjDvLb+2dYMnjOxdLuwmieFYdIku4ZIGhQyRb1jII8wsM9QU9Cc2pZddsPhzqUui6Rb6R5gWSxggsmEuyUAuHhG0pIrO2WxztyRRa0bf1q7g9H/XYtarqmuf2BpV956MY722iF5BOYjdbp1iy0Wxl8t856nAbIGQK620fWJ4rxdSisrDnbbSWtwZiF2j5m3xqAQ2eORjFcZ4x0mwn0u1sLPSdWmmtbyyQ+Xb3ATyop4yxBHynCKeR17ZrotMfSIbC9t7bRNQjt1kEjRTWkh+0O3OVD9eRyTjB5OOtV0fr/kNbHOXN/eh9IGsXuoW4u5rm3urf7Z5cn7tXYSxmEKWUiPheCQ4PYirnhWz/wCEc8L6lHPdyC+lEt40Mt9NdTW8bbhHvaSR2yAoBIwMg46ZrnvEPgBdU8YeHtVvrOC3vJp544o4Ig0djEsEjITxhnLhCxPGQFHAyew0m9XyL+3vfDU+mX1tHsma3td0VyD0MLr98HrtOGHcDrUSVotdRRd5ejPO9I8R6yt7ocd5qU8ht7i3F0Yzdf6RujOcEzOrjd1+UdMnC816PpmoyRatqyXN5NPqIhWd7ZAzWtkgB2RhsY3n7zZ5OcgBQK4LQ9FvrA2MV7bXgtdEureEKltGkinyCNykQBpsblzs98FsV3miaRqLzyzNu0vTWjdIdPwrySsxBM878kuccAN3JYknC1JX5ref6Cjpa/Zfmzkn+I2vSRwLdXOlWdtc6bBevcraSuYBJBNIcKJDu2+Vx656Vs+E/E8x1rT/AA9b3Ud1aQW08crS2dxDOkkQgKgmZiWys2SSPxrLvvhkIBpumtqd7ctc2g06W5MKfuEjtZkDAAYGTJ/ET2GTV/R9Dn0v4iR/Pqt4DFeXNxeXUKKhMgtkVQyAKTiE8YB46d6tpc9ltZ/8AUG+VX/rT/M9Dqhpv/H5qv8A19L/AOiIqv1Q03/j81X/AK+l/wDREVQWJN/yHbT/AK9Z/wD0OGvP/ghGkPg6WCJFjiju5ERFGAoAXAHoPb2r0Cb/AJDtp/16z/8AocNcD8FP+RUm972X+S1rH4JfIyn8UTttJ/5Cd1/1wj/9Gz03TP8AVS/9fVx/6Oeq41Sy0R9R1LUrmO1s7e2jeWaQ4VF82bkmvKfHf7RGgeAbeyl02ax15ri+ka5tYLkCWOCRmkSVeCCCpUjPB3DkVizdbmM9hDq99pWl3QJtb3ULeC4jGP3kRcbkP+ywGD7E19GxQxQRJDFGqRoAqqowFA7AV8ueCPHWh+LPEHh7+zrsecNTt2e3lGyRBu547j3GRX1NXj5LTnSoSjNWd3+SPZz6rGrXjKDuuVfmxQKr3d/aWAQ3VzDAHOF81wu4+2etWKoT/wDIctP+vWf/ANDhr2DxBP7d0n/oKWI/7eF/xo/tzSf+gpY/+BC/41iX3jKTS/EM1ldWFwLRY7UK6hGfzJpmiBPz/dyF7ZHOauaT4wsdYFsYoZ4IruzN9FLPtCmIbeThjj744PvQk2Iv/wBuaT/0FLH/AMCF/wAaP7c0n/oKWP8A4EL/AI1xGv8AxF1XTtLje3tNMnu5A2Gtp5rlfkmEbHEUDgDkcMwILY5IrWj8dXX/AAiepa/Jp1v/AKJKY44UlnG8qwRg3mQIykMSMBW6fhSCx0P9u6T/ANBWw/7/AKf40f27pP8A0FbD/v8Ap/jXnzfE3X01W+b+x7KSztbmHTjbrcTFjM4RhIrfZx8u2UAqRn5ePfptQ8az6bp8dxJpgeU6bNqUiCR0CrHsyo3Rh9x3jgqO+aqz/r7/AMgur2Nv+3dJ/wCgrYf9/wBP8aP7d0n/AKCth/3/AE/xrK1Txethq+lWi29yYbvzfNxYzs42qCNoC56nng8elZXiXxve6Z4gXT7Wa2RI7ae5dHsppnk2FVC5BUIpL/f+YDb75qbjsdV/buk/9BWw/wC/6f40f27pP/QVsP8Av+n+Nc9o/iXVZ9W0+C8urKa1urSW4cpp01uYiuzA3vIwP3z2/hrbs7691F7sW11prxRShYZoiZtylQcMoYbWBPryMHAzVOLQlqTf27pP/QVsP+/6f40f27pP/QVsP+/6f41k6f4oIbXl1m80+zi0y8S0W5f91Gd0MTgtuf8AvSYxnsK4zUvilqtpbuYtV0F3QgZ2W2GG4DcAL9mxjn7pPtRZgek/27pP/QVsP+/6f40f27pP/QVsP+/6f41Lpuq2Os2v2vTryC7gLFRJC4dcg8jIq1n3FIdih/buk/8AQVsP+/6f40f27pP/AEFbD/v+n+NcT45+J1z4R1qex8i2eJfsBRifn/ezssmQWGRtXggcE85HTR0Pxt/bt9EG1jQbNFuDCbQSCaW4OwHCNvXHLDna2cds0JXE9Nzpf7d0n/oK2H/f9P8AGj+3dJ/6Cth/3/T/ABrnbnxNrn9v6vZW0VsbWylijR/JRiS0SOQxa4j5BbsOhFWfD+vavdX2rDUYYPstnDE8XkoodmPmFwQs0g6KuOR1o6XGbP8Abuk/9BWw/wC/6f40f27pP/QVsP8Av+n+NcWvj/VbqB7W0064/tW+Ed1pySJFt+zyPgFsS8lUV3OSvpnOCev0PXo9aF6Ftbm2ezuDbSJPsyWCq2RtZhj5h39adupKaZL/AG7pP/QVsP8Av+n+NH9u6T/0FbD/AL/p/jXNaT4t1e8tPCd5OlgseuuBIiowaIfZ5JeDu/6ZgdO9aXi7xFNop02ztJrZL/ULoJGtwGKmNFMkpOOR+7RhnnBYUNNaFWNP+3dJ/wCgrYf9/wBP8aP7d0n/AKCth/3/AE/xrnR44u7ma0gsbbSLlrmVIyY7+Q7A6O6tgwjIIjOOao6/8QLzS/Eus6ZFaForHTIrrLlVEbM8w3kjcxU7EAAUnJ5wOaT0VwSv/XyOw/t3Sf8AoK2H/f8AT/Gj+3dJ/wCgrYf9/wBP8a5TwT4t13WdYurLU4bREjjjlXb5quFMSAkAxqDmTzO+RjgEcmsnxB1OTxDJp6x7oIrpoSw0i5DuixRSHqwCn97jPONucc4ptW1Cx2n9u6T/ANBWw/7/AKf40f27pP8A0FbD/v8Ap/jWP4I8T3XihdQuLiJYI42tzFEvJRZLWKUgt/F80h5wOMV1GKGmtGBn/wBu6T/0FbD/AL/p/jR/buk/9BWw/wC/6f41m+MPFdv4YTTw91ZQyXd5DDtncAmNnAdgMjkA9e1Y1v8AEm1m1+SBm/0SNXiKQoZnWUXRgUsVztDYBGfXrSWv9eVxPRX/AK1djq/7d0n/AKCth/3/AE/xo/t3Sf8AoK2H/f8AT/GszWvE0um6uunqsaqYFm81kZ+SxGNq/TPUVQ8G+KrzxBPFJcXccq3ELSCCGxaIQ4bGS7SMTn6Y+lC1A6L+3dJ/6Cth/wB/0/xo/t3Sf+grYf8Af9P8a5DW/iYLLxLbaXDaS/ZGYk3ayW7icBNzYBmVo1U4Bdh1IAHOa3NC8WNrVreb7P7Nd24LLGkiziVMAq6lTz1wV6gg9Rgk8x2NP+3dJ/6Cth/3/T/Gj+3dJ/6Cth/3/T/GvL9L+L2q6vNd2qRW0V0L2KzjjCFyGbyQ23kblH78hiMN8uCO/W+IvHqWvg+713T4LlEjmECSzRqq7vMWMnDMONxK/UenNO2iYurR0f8Abmk/9BWx/wDAhf8AGj+3NJ/6Ctj/AOBC/wCNee6x8SNctNSuRDZW1vaWr24mWfzGaMEM0gYpEy52tD90tjPGecdN4q8UX+gw6aFWJLi5YRyItnPcoG2sx2sm3ptPBGSOeKnZXDS9jc/tzSf+grY/+BC/41NbX1pe7vsl1BcbcbvKkDbc9M4Psa4bTvH2p36aQjwokl01rJNJ9neIFJjJ8io5J4Cj588nPA6V2sP/ACHLz/r2g/8AQpadnr9wk09jnPHNhDBqnhzXY/3V7b6iloZUwGlgmBRomPdNxR8eqLU7/wDIag/66L/K7qt8UtWsdD0TTr/UbmK1tYdVtHkllbaqASdSawf+FneCpblNSXxPpTWUb5ecTjYu3zg3PsbiEf8AbRfWjrcvoUvGX/IyXn/bP/0Wtc/e3cGn2NzfXUgjgtozLIx7KAST+lXdT8T6N4q1m+vND1K21G2VkQywPuXOxeM1i+IMfZrNGGVl1PT4XHZke7hVgfqpI/GmI7zwZ8L7XU7S21zxjY/ar2ZRLFpdzhreyUnKho/uvLwCWbIB4XGMnvGm0DTv9EaTTLXy+PJJjTbnn7vbrmotP0+O9hlmmmvS5uZ1+W7lUACVwAAGAAAAFRWWkwyXOpKJrwFLhVU/a5v+eUZ5wwz16n+lAFn+0vD3/P5pX/f2P/Gj+0vD3/P5pX/f2P8AxrgNR1++tZUvIZrubT38hkYmeEupWcybfMnUNt2RHhu465wbMGvKfAeq61cai0d7GtxNbo984IT5jFuUTNyVUHG7NC1B6WR239peHv8An80r/v7H/jR/aXh7/n80r/v7H/jXD3HjDSpNcgsoby9dYbx4Jore7nlluFFr5m4IDuVQ7AbunHJxWtqGqRJpOk6jYw6u66mMxQGd2lx5TSZJNwij5UPcnpQ3ZXYdbdTov7S8Pf8AP5pX/f2P/Gj+0vD3/P5pX/f2P/GvPofEmpNYF7qy1iJplEsT2752QSSbYpPmvDzgqSMdc8YrpnktYdZbT/7XM7C0LtDHc3Ek8cgYLu8tHOYznkcEEDnngFc2/wC0vD3/AD+aV/39j/xo/tLw9/z+aV/39j/xrB02aDUp7e4gvtWu7V3kgKwxXcShgxUuzO/AUqRx69D1DJdUg+3C2gjv53jdPNgiur15gj5CEqQoQEjO5jtwrfUAzof7S8Pf8/mlf9/Y/wDGj+0vD3/P5pX/AH9j/wAa5jwVfHV9OsYL1NWN/NYreNPJeMI3DEhfuyHH5Vk3uvXba1NZ22pv5Co0aQxw3hu55wQCsW6bayjOCzAKCfTJCbB9jvf7S8Pf8/mlf9/Y/wDGj+0vD3/P5pX/AH9j/wAaxr2zk0Lww15cXt/PcQR7m+0XEhklYn5Y8RyBdxJCjGcn1rFOvMr3duZ7l54YnRxm7hFtMsHnH5nc+YCCgwAuOp64obsm+wLWx2ayaBqLi3V9LuXbOIwY3J7niuF8a/C600+zudc8G2K2d9Ahkl0y2AS3vlHLKE+6kp5wwxknDZ4I6lNOjkg0SSWW7MksgMh+1S9fIkJxl+OfT6etXtRsY7SGKaGa8VxcQLzdSsCDKgIILYOQSKpoSd1c4v4V3sGo2VzeWziSGdIZEYd1IYg1NrX/ACP/AIY/7DC/+mzUazvg+xVvEtsMCO21e8gjAH3US8uFUfQKAPwrR1r/AJH/AMMf9hhf/TZqNIZ6LRRRQAUUUUAFFFFABRRRQAUUUUAFFFFAHDaX/rviX/2Ev/cVZ1V+Kv8AyL1t/wBfa/8AoD1a0v8A13xL/wCwl/7irOqvxV/5F62/6+1/9AeunCfx4epzYv8AgyM/4U/8iXef9h5f/RkNeia9/wAgPUf+vWX/ANANed/Cn/kS7z/sPL/6Mhr0TXv+QHqP/XrL/wCgGs8R/Fl6v8zSh/Dj6Iv0yaaO3hkmmdY4o1Lu7HAVQMkmn1yPxGnCWGm20st4lre3otrkWiM8jxNHJlQqgsc4HQVzmp0L6zpqW1rdNfWywXjIlvKZAFmZ/uBT3Ldsde1WJZ4oFDSSIg9WOK8q0yX+19Yj/tHU9UhsLTWZbfTnkiCSCcwKFDK6fIoXzQMryX7fLnSsdZ1JPBZuLiRNXnk1yazjlvIPNVIhevFuKoF+6gJ7dK1tdJrrb8SU9Obt/wAH8NDuJ9f0i22+dqthFv3Bd9wi7tpw2MnnBPPpUtvq2n3dm97b31rPax7g88cqtGu372WBwMYOfTFePTOmk2K3mhXk91eWMd46z2VrCtvi5vzuUrKc/K0ZXA9OtdRpkf8AZ/gnxJp2nWtxJJaXF2LgajJHGS8qmdiDEGXH74ADA/Colom+3+ZdtbedjuptSsrezW+lu4EtWCkTlwEIYgKd3TkkY+tTTTRW8TSzSpFGvLO5AA+pNeM6pfa/NZWtvLbQ20S6dZYLXDNER9qi2yKg+8egOdhx0Ndvb6zqQ8L+Jbu6uY7q60+S6WJ/JVVXYuVG30B9ST70nK34/g7Ex1/D8Vc6T+3tI/6Cth/4EJ/jS2ut6XfXclnaajaXFxGgleKKVWZUJIDEA9MgjPtXmOs32oWuuz6iUhubmw0q0kgl+xoVh+0yusmfmHXyl6Aniuy8O3+pTar4ls5Db3DafcRQ22VEQIaBJCGKgnqx7GqY/wDgHTwTRXMKTQyJLE43K6MCrD1BHWncc+1ebQXUaeFPOtvDekTN/aN3b2+nSSNN5lx9qkVtrMvyglWc8YUZ7Cul8PWH2Sa+ewtdAgifKzwWMBic3KjH7xx/s7R93OMHkYoB6Ox0eAT0FQ2V7a6jALiznjnhLMm+Ntw3KxVh9QwII7EGuI0i7ub/AFaaG20jTbF7OdoILyS9eYzKqgTNEpQZ2ltpz3FVvAt9qNm+g2P25ZbbUhqV6yCEDK+fuUhvT97n8aZJ6QaoaZ/x+ar/ANfS/wDoiKr1UdM/4/NW/wCvpf8A0RFSGEv/ACHbT/r1n/8AQ4q8/wDgp/yKcv8A1+y/yWvQJf8AkO2n/XrP/wChxV5/8FP+RTl/6/Zf5LWsfgl8jOfxR/roVvjV/wAks8bf9gtP/R8tcvffAnQPiX4N8Nbo7XSGhIku7qztUFzcoFKLHvx0A24JzgKBj06j41D/AItb42/7Baf+j5a6b4ff8iXpQ/6Y/wBTWTNDxHwb4R0Twvr3h+LSrGOFm1O3Dyn5pH+boWPOPbpX0/Xze97Hpd/pWpTK5gsr+CeYouSsYcbmx3CgljjsDX0ZbXUF7bxXNtNHNDKoeOSNtyupGQQR1BrxslqSqUZObu7v8ke7n9KNPERUFZWX5skzVGb/AJDlp/16z/8AocNXuPWqd5aXEt1Bc2tzDC8SOhEkRcMGKnsy4+7XsHhHJ6rpV9qWsvcpp9zi5urONZTgKkNtK0pZgTkEsWwMcgr7gVfBmm6vpljoUt9pUmyz0JoXijbdIz5iOwqwXDYU8Z/Guz8nWP8An+sP/AN//jtHk6x/z/WH/gG//wAdoUrK39bWG9Vb0/A8k8YaNNDoJj1fSdRtpRcy3Nu2mWs15I3m3PneW3lRsEC5G4EYYrgEr97oNNlTUPDFxptrHcC1OpJ+/udKnsSYd6yyM6SouWwHGVAUkjoeK7ww6sRg31gf+3N//jtBg1Ygg3tgQextG/8AjtUmN6u55lr3h+O4199at9M1V7RruK8n1NNNRrmJosDZHE0fmuD5ajcqnAPG7OR0fiTQ7jxzHBeacsMdrPpV1AjahayRyK8rR7f3bBXQ4QnJGR6c11Xkax/z/af/AOAb/wDx2gQauBgX2nj/ALc3/wDjtKL5Ukun+ViXrqYdzYPD4z0oW1temJTdXEsrbmiQtGq4VicLk/w8cljjqaxNe8NwzePl13U4bqYrp80cDQwTTxwBZIgilY+WLF5CyjquR0XNdv5Gsf8AP9Yf+Ab/APx2jyNY/wCf6w/8A3/+O0uqYNXVjhfBcF1B4huZL2FWV7p2t2/sC5tyqGJRlZJGIjXIYbcZ5PY5pb+21GTX7sS6Pc/2bHr0M7y+UZPtCNaImVRQSUDcE4xn6EjufI1j/n+sP/AN/wD47R5Gsf8AP9p//gG//wAdo7f12/yEluYsN9Bp1xqkGj+GbuXcsE7LHbG3W5kcmNvmk2qdqohbBJx2PSuMj8La0/iJYIDeK+n6fMqp5kqRtHNMrG2FyQCwIVgrKAUCrxxz6b5Osf8AP9Yf+Ab/APx2jyNXzn7bp+fX7G//AMdp31v/AFtYbV1Yxpb3xCfDVtdaBoiW1zb4B0vVHCvLGqkeWsiOyo2cYZtwOOQM7h0sbOyKzrsYgErnOD6Zqn5Gsf8AP9p//gG//wAdo8jWP+f7T/8AwDf/AOO0mxnnfxC8H6prevXF2NPubnT4zptwvlSxoHaCaR3yS6nhGIAxgkg5GK0/DeiX2n6rok1xHeSGQX0sr3HzSIG8oR+awGA5VRn3zXYmDVyMG+sCD/05v/8AHaPI1f8A5/tP/wDAN/8A47TTsrA9Tg9Xgu4mu7iF9Vhu9dvXeB7fTjcpaxIiRCVwI2wSqAqGIzuHocbukHP9qRfZ9VSWGDA+0RBI51YHaygKvzZUgg8j3BBO+IdWAAF7YYH/AE6N/wDHaPI1bk/bLDn/AKc2/wDjtJq6sHW5594a8MTSOBeaZrNnGuiWcfmSTbpRKjs2IyXbaQQp28duK3PD91c22kavqMVjdLcalfTS2dvNEY5HO0KpZW5QHZnJxgc10vk6vn/j9sP/AAEf/wCOUGDVSQTeWJI6f6I3H/kWhpO/nf8AF3JUbW8v0VjkdX02Twpo/g1PIvb630S4Vbl7O2knk2i0li3iOMMxBZl6A4z6c1NqcE/iK38LX0ljNa3U8zifzICrQA2lwPmUnKjcw6nuO9dR5Orf8/ll/wCAjf8Ax2gwaqcZvLI46f6I3/x2m3fcpNrbtb+vvOMTw5/wjuseH7RbvU9SlaSCMyNafuoo4IJ1yXRQq5L9GOemM1m6/wCEbWbxprV1dRtLLd2Fswm+zySM7brhfLiCOpyEKg84GdxxnNeimDVjjN5ZcdP9Ebj/AMi0eVq3e+sP/AR//jtG4JJKy/rW5w3gvStV0PXYk1fzUvbm1YyOlrPOjoDuCibzGSNkL7cMo3YGM9aNRW8tL3SptHS7IjvHeeSTSrlneORSZGkyoBJKqOACBwMDiu58nVv+f2y/8BG/+O0eTq3/AD+WX/gI3/x2hsF/X5HL6RbXemaB4gOirO+sSO08cl5Z3CxvJsCxKFlbcwVUVThgOOwrr7D7SbKH7aIxdeWvm+X93fgbse2c1B5Orf8AP5Zf+Ajf/HaPJ1b/AJ/LL/wEb/47RcDH8aWOo6v/AGdY2OnpOi3UdzLNPKqQqkbqSh6sSwzgBSODkiuGfSbiw+0r9n1K3kt5p2S2tdJllimAvWuECsq7QrDYODx36V6j5Orf8/ll/wCArf8Ax2jydW/5/LL/AMBW/wDjtC0/rysF/wBPw1OQ120udS1VdSeymZozaiGzMRLy7Czv7KMyIu5iANp56VL4T0y90XWbG11DT5lmXTTE15CPMglfeGYb+GUjsGAHoTiup8nVd2fttj9fsjf/AB2l8nVv+fyy/wDAVv8A47QlYTOE1/T7m+1SYRLqN/NuG2RbcsCVIIA4EXynON7qoIDFHIzW7onhubTdGuRqVxdQrMm02kMxuI4lzwVUpjcR95VXZnIC4PO6INWH/L7Y/haP/wDHaXydW/5/LL/wFb/47QlbQZ5bY6J4ltptRgNrdT3V1HJNps0qQ7RceYpEkoCI8KAJEApJyqMMbtorU1DQzqnw1ttMuLO/WXSzEs9tNAVM9wrrlwRw6bizZXIJwc8YrvvI1XOftljn1+yN/wDHKDDq3/P7Y/8AgI//AMdp+Qjyy+8H3KXN5LpyM+hrDidLa2nw7YRVMUYmzII1iAIXAbecBiAB2t+wvIbC4uHuJ7r7PkN/ZdyI1LqVZwigtG5GRhmJUEjuc73k6r/z+2P/AICN/wDHaPJ1b/n8sv8AwEb/AOO1PkFtbnn/AIcs7qSHQf7ZS/J0+ZokhXTbpMqrMsJYjCbVUg5YE+p659Ag/wCQ5d/9e0H/AKFLR5Orf8/ll/4CN/8AHadZ2dzFdzXNzcRyvIiRgRxFAoUse7Nyd36UwSsc58TdOtNW0jTbLULS3u7abVbRZILiMPG48zoyng1jjwF4QhvorGPwpoSWbuoeBbCIRtu88tlQuDkwxH/tmn90Y1vG2ow3ms+H/D9uwmvZL5L2aJCC0FvECxkYdQC4RB6lvYkTn/kMwf76fyu6Cj57+Hlrb2PiDx7aWkEVvb2/iS7jiiiUKkaByFVVHAAAwAK6XXz+507/ALDGmf8ApbDXPeBf+Rq+Iv8A2NF5/wCjGroNfH7nTv8AsMaZ/wClsNIR75of/HlJ/wBfVz/6OejT/wDj71X/AK+V/wDREVGh/wDHlJ/19XP/AKOejTv+PzVf+vpf/REVMDz9/Dl5eXt22m6f4h0+CPMFoySQbVCw+WQyzsxCkswBVTkJkHGMmm+GPFMGi6vo13atdz6jax20d/LPEI4oxEyYdUQHKnPADbty8rzj06immFtbnlV1ot1ZanqULF7GZ7+S6Wez0S4nhZZLJYtyhAwLBt2cuDlc45FbE897f6b4fl0/Q9UeK1vJoRE8Ihl8oW80ayMspUqDlT82Dz06V3uKRmWNS7sFVRkknAApS1VvkHW55Jp/hjWtIs0hOi6tNutLO0d2+x4jZJVLMBEQxTGeSC1dZraapPqt5eadHNZ+XatYpePamfZIxVvMEIZWdB04Od3bAJre03xFpmr/AGY2Vw0y3Vv9rhby3CyRZA3Ake446856VPqmqWujWMl9euyQx7QdqF2YswVVCgEkliAABkkim9d/P+vzEkl+H4W/yRyWgNc2+qaVbx3N0Ugga2njj0O5tYJFC/Kd0pIUgjg7iSCRzkYrXWkeKbPUFntNS04ajdXMks0EVtI4kjZdib5C+EVQEP3ckocZJIPeSXMERiEk0aGZtkYZgN7YJwPU4BOB2BqgfFOhK2x9Z0+NzM9uFkuFVjIpYMuCc5BVuPY0WuMwPDtsdM1G626fqCWWm6daafEXhO6Z1L7tgGcjBjyw4yTz8pxi2/g2c6m1ncR3iyailxNMZJ7qeLy8KI45pPNAkILN8gKjBwAQu4+gWms6dqFzLa2l7b3E0KLI6RuGKqxIB49Sp/KrtL+v6+YjkLbSivhtdKvdFupnilkhitpLpp4nBBw3mtyIwG43crjABIGaepeGDoXhqLat/qN1DFcGVoIzM80ssZXJydxHIAxuIAGehNd3RQ1dPzBaNeRkiOSNNDSVdkiyAMuQcHyJMjirGtf8ecf/AF9W/wD6OSjUP+PvS8f8/Lf+iZaNZ/484/8Ar5t//RyUPe4JWVjzn4Rf8ffi/wD7D+of+ltxWhrX/JQPDH/YYX/02ajWf8I/+Pvxf/2H9Q/9LbitDWv+R/8ADH/YYX/02ajQM9Foo9aKACiiigAooooAKKKKACiiigAooooA4bS/9d8S/wDsJf8AuKs6q/FX/kXrb/r7X/0B6taX/rviX/2Ev/cVZ1V+Kv8AyL1t/wBfa/8AoD104T+PD1ObF/wZGf8ACn/kS7z/ALDy/wDoyGvRNe/5Aeo/9esv/oBrzv4U/wDIl3n/AGHl/wDRkNeia9/yA9R/69Zf/QDWeI/iy9X+ZpQ/hx9EXqw/FGkXurPpLWMtvE9percs06ll2hHB4BGT83qK3KKxauaJnL6foer6RZarMradeX9zePeQq6tHEcoqhT94qfl6/NjNL4c0nWfDng0W6x2VxrG6e6eLzWWAzSyvKUD7chcuRu2++O1dRXO/EDxG3hPwfq2rQyRLc29rK9uJBlWlCMygjv0pJdCoxu7L+rnJS/DvVrvTf7Jn0rw4+IUDapNK8srOZDLIFiMeFXezY+fJBGcVuWnhHWobLVNLS+0qxtL2cSB7Ky2usbLtkTaTjdwNrnPBwV4FUdW+JEsWm6ZdWNuwN1dQRO00LrlWfbINh5Ug7gOeuDyK67QtWfWbJrprfyB5jIg3EkgHGSCqkfTHoQTmm1dP7vyZKldr7zkdb8C6nDPB/ZNtZaxbG1S1ng1bUZYP9XIrowKRSDqoBUBR+dSaR4V1yHQvEFhPpegaRBe2zRWlhpU7yRJIwcu7M0cYBZnHAXt1PSqumfEDWb20tHnWCC4uVLJCNPclgOpX98CQOO3euq8N67c33hSx1bVYWjuZoVkmigt5CVYnoIxub8OcUP4WhrR3RzV98Or/AFSae6upNLNxLZWlrGzRMxgMLu+5Wz/Fvx26VsaZoWuW114nuTdWdtc6nPHJayqhlWILBHHuZCVycqeM1h2HxB1PVvDemyWMLvqt5eeWS1jIsXkLM29gDjdiNcZB+8y9M4rrLTxJBf6nfaVBa3KXtlBHcOk6bFIkLhMNz1MbU99f66CX9fkczf8Aw9vbVreXTWttTa2M8saX91NanzZm3yEvB8rBm5wYztyccYAs+FfDet2mo6pc6jpWh6ONQiRJX0q/nuZJWUMFYmSOMKwDfewxOAD0FQ6x8RLq28OazqNtpyxyWcdz9nkaXekpiQ5ccDK7wy++0+ta/hjxpFr+oXWlyWzwXVrFFIx5KOHXPBxgY9Cc/rQU0Zt18ObcWem2lre6mZLNspey3rloAFKnagOwsysRnaMZJOcYNrTvD2pQ+LLW5kgsbbR9KsJLOxEEjM8nmGM/MpAC7REBwTnd2xXWY4oxQmyRTVHTP+PzVv8Ar6X/ANERVfNUNM/4/NW/6+l/9ERUAE//ACHLT/r1n/8AQ4q+c/AX7QnhXwbpNxpmoWGuSTpeysTb2gdD0HB3e1fRk/8AyHLQ/wDTrP8A+hRV598Fv+RSnP8A0+zf+y1pH4JfIh/Ev66HmHxM+PPhrxD8N9et7TT9cR9Yt2sYDNaqoR433kv83yqRMuDzyG9K9p+HEon8C6NKMgPbhhn3JrnfjYF/4Vb42wAP+JXGf/I8tdN8Ph/xRWlY/wCeJ/mazaNVueSYyeaoL4f0yIt5NokIdi7CLKAsepwOM1burqKyhkuJ5EjijUs7ucBQO5NWINM8T3kKT2vgvXp4ZF3RuRBFuU9DtllVx+Kivz/CUsRO7oJ/I/RcXWw1NJV2vK5n/wBj2X/PJ/8Av43+NH9j2X/PJ/8Av43+Naf9heMv+hE13/v9Z/8Ax+j+wvGX/Qia7/3+s/8A4/XX9SzD+99//BOT65l/eP3f8AzP7Hsv+eT/APfxv8aP7Hsv+eT/APfxv8a0/wCwvGX/AEImu/8Af6z/APj9H9heMv8AoRNd/wC/1n/8fo+pZh/e+/8A4IfXMv7x+7/gGZ/Y9l/zyf8A7+N/jR/Y9l/zyf8A7+N/jWn/AGF4y/6ETXf+/wBZ/wDx+j+wvGX/AEImu/8Af6z/APj9H1LMP733/wDBF9cy/vH7v+AZn9j2P/PN/wDv6/8AjR/Y9j/zzf8A7+v/AI1qf2H4y/6ETXv+/wBZ/wDx+j+w/GX/AEImvf8Af6z/APj9H1LMP733/wDBD63l3eP3f8Ay/wCx7H/nm/8A39f/ABo/sex/55v/AN/X/wAa1P7D8Zf9CJr3/f6z/wDj9H9h+Mv+hE17/v8AWf8A8fo+pZh/e+//AIIfW8u7x+7/AIBl/wBj2P8Azzf/AL+v/jR/Y9j/AM83/wC/r/41qf2H4y/6ETXv+/1n/wDH6P7D8Zf9CJr3/f6z/wDj9H1LMP733/8ABD63l3eP3f8AAMv+x7H/AJ5v/wB/X/xo/sex/wCeb/8Af1/8a1P7D8Zf9CJr3/f6z/8Aj9H9h+Mv+hE17/v9Z/8Ax+j6lmH977/+CH1vLu8fu/4Bl/2PY/8APN/+/r/40f2PY/8APN/+/r/41qf2H4y/6ETXv+/1n/8AH6P7D8Zf9CJr3/f6z/8Aj9H1LMP733/8EPreXd4/d/wDL/sex/55v/39f/Gj+xrH/nm//f1/8a1P7D8Zf9CJr3/f6z/+P0f2H4y/6ETXv+/1n/8AH6PqWYf3vv8A+CH1vLu8fu/4Bmf2LZf88X/7+t/jR/Ytl/zxf/v63+NaX9heMf8AoRNd/wC/1n/8fo/sLxj/ANCJrv8A3+s//j9H1LMP733/APBD63l3eP3f8AzP7Gsf+eTf9/H/AMaP7Hsf+eb/APf1/wDGtT+w/GX/AEImvf8Af6z/APj9H9h+Mv8AoRNe/wC/1n/8fo+pZh/e+/8A4IfW8u7x+7/gGX/Y9j/zzf8A7+v/AI0f2NY/883/AO/r/wCNan9h+Mv+hE17/v8AWf8A8fo/sPxl/wBCJr3/AH+s/wD4/S+pZh/e+/8A4IfW8u7x+7/gGZ/Ytl/zxf8A7+t/jSf2JY/88W/7+t/jWn/YXjH/AKETXf8Av9Z//H6P7C8Y/wDQia7/AN/rP/4/R9SzD+99/wDwQ+t5d3j9xmf2NY/88n/7+v8A40f2PY/883/7+v8A41qf2H4y/wChE17/AL/Wf/x+j+w/GX/Qia9/3+s//j9H1LMP733/APBD63l3eP3f8Ay/7Hsf+eb/APf1/wDGj+xrH/nm3/f1/wDGtT+w/GX/AEImvf8Af6z/APj9H9h+Mv8AoRNe/wC/1n/8fp/Usw/vff8A8EPreXd4/d/wDL/sax/55N/38f8Axo/sax/55N/38f8AxrU/sPxl/wBCJr3/AH+s/wD4/R/YfjL/AKETXv8Av9Z//H6PqWYf3vv/AOCH1vLu8fu/4Bl/2NY/88m/7+P/AI0f2NY/88m/7+P/AI1qf2H4y/6ETXv+/wBZ/wDx+j+w/GX/AEImvf8Af6z/APj9H1LMP733/wDBD63l3eP3f8Ay/wCxrH/nk3/fx/8AGj+xrH/nk3/fx/8AGtT+w/GX/Qia9/3+s/8A4/R/YfjL/oRNe/7/AFn/APH6PqWYf3vv/wCCH1vLu8fu/wCAZf8AY1j/AM8m/wC/j/40f2NY/wDPJv8Av4/+Nan9h+Mv+hE17/v9Z/8Ax+k/sPxl/wBCJr3/AH+s/wD4/R9SzD+99/8AwQ+t5d3j93/AMz+x7H/nm3/fx/8AGj+x7H/nm3/fx/8AGtP+w/GX/Qia9/3+s/8A4/R/YfjL/oRNe/7/AFn/APH6PqWYf3vv/wCCH1zL+8fuMz+xbH/nk3/fxv8AGk/sWx/55N/38b/GtX+wvGP/AEImu/8Af2z/APj9Vb6PV9FiS413w7q2kWruIxcXCxSRhj0DNE77BnjLYGSBnJqZ4XHxTk1L7/8AglxxWXuSjFxu/I9F+EmlWOnaNeva2sUMkt0TJIqjfIdi43N1OPeqfxU8bSfDvw9e+J4rNL17J7fEDOUD75biPqAcffz+Fa3wx50O4PBBuSQR3+Ra4T9pzB+FGveu+y/9Kpq+qy9t4eDfY+QzBJYidu585+OLnxtpdvqGq3+jzaJHq+tnWY7iOcbo5JUdlRSpzja5OeOldX4D8X+NdfttKi1nS/P03+1tNI1R/wB03/H5DjA6SZIxkAe5Neu6vpVjqttpS39pBdJBa2c0azIGVXFuoDYPGQGNUteGIdNA4H9r6X/6Ww12nCe+6J/x5Sf9fVz/AOjno07/AI/NV/6+l/8ARMVGif8AHlJ/19XP/o56XTf+PzVf+vpf/RMVAF6iiigArH8R2dxqFi1sDCLJwftYeUxmSPumQpwpGcn04GM5GxVLU9MTVYxb3E0n2VgRNAuAJ1P8LHGdvqARnoeMgjA4ptR1rX28K3mnWthpFxc20lzEJHabbEUQmJlCr8pBXp0IUjpgv8Q2n9r+K9Fg/s/TzbJcv508sG8TXKwswwMgsqbecn7xHdTXVQ+HLWDWf7VWa6aRYWhiheUtFCGYFiinoTtUegCjAHObs+n29zcW1xLGGltWZ4WyRsYqVJ9+GI59aHqwOJ8DySk6Hb3MGmy+fphuzMtrtmDq0YGW3HP3z27VzOqRTfYftG6KOWLVL+K1kuTH5Ss9zMH8uMsWklIwAQuV6gN8yt6VoXhTTdBED28Za5itltTOSRvRTn7udoJPUgZOB6DDYfB+mR2dxZzfariC5lmlljkuHCN5sjOylAQuMsRjHTrmncd9/VfkZfg+CS01/UbWSxWxFvp1jCsIm87Cq1wAd+BnPvz6119Z2n6DbaZf3N7A9w0lzFFEyySlwqxlyNueR9898dMYrRpt31JCiiikUUr/AP4/NM/6+T/6Jlo1r/jzj/6+bf8A9HJRf/8AH5pn/Xyf/RMtGtf8ecf/AF82/wD6OSkI84+Ef/H34v8A+w/qH/pbcVoa1/yP/hj/ALDC/wDps1Gs/wCEf/H34v8A+w/qH/pbcVoa1/yP/hj/ALDC/wDps1GgD0X1oo9aKACiiigAooooAKKKKACiiigAooooA4bS/wDX/Ev/ALCf/uKs6p/FT/kX7f8A6+1/9Aerml/6/wCJf/YT/wDcVZ1U+Kn/ACL9t/19r/6A9dOD/jQ9Tmxn8GRQ+FH/ACJl7/2Hl/8ARkNeia9/yA9R/wCvWX/0A1518J/+RNvv+w8v/o2GvRde/wCQHqP/AF6y/wDoBqMR/Fl6suh/Dj6Iv0UUVibBXHfFyzt7v4c+IXnhSR7fT7mWFmHMb+S67h74Y/nXY1XvrO31Gzms7uFJ7edGjkjcZV1IwQR3BFJDjo0zy/VtOa+8VXNoto81vDZ2d0qxQq+yVzLluY3IPyLjp0rb+HVrZXfgX7ZqqREzT3DXMswCZ8ueRFLYAA2qoGcDgV2DaTp7vcNJZwObqJYZ96BhKi5wrA9QNzce5ptnommWOn22nW1hbR2dpt8iHyxtjI6ED19+vNVe6ZCVrHkllYS3LWCPZvdTXEl69pOSqYSMkhkD2pYgo6gEE7ueTXY+EbCOLwOF0ea0m1mW3jt727j4P2oKEd3BCnKZJ2kA4GMV1J0PS21YawbC3OorEYRc7B5mw4yM+nAq1FZ29vNNNDBFHLOwaV0QBpCAACxHU4AHPYCpeqsVc8e8GeC5LXwlo9vZW9zfae8jtcCe5TZB5EzlB8xBAdwjOFyD5XI+bNdR4Rl1DVfEviKTU7WK0vn02whmWGXKo/8ApBIDqQcfMGHOQGHeu2s9OtdPs1s7WBIrdd2I1HAyST+pP51S0vwtomiW11a6ZpdpZQXkrTTx28YQSu33i2Ouen04pu9ncSWx465W58G+LYNNt7g28FvNCls975/2VI7cKdokmDBS/mEEAhl2kV6Z4JsbuxNwZ9Me2+0rHIZ2MeWIUKF2q7HpyD7mtTV/B3h3XlgXVdD02++zYEBnt0cwgdNhIyv4VFo/gbw1oF+2oaXoljaXjJ5ZuI4h5mzOdu7rjPbpTT7lN6Jdr/iblFFApCFNUNN/4/NV/wCvpf8A0RFV81Q03/j81X/r6X/0RFQIJv8AkOWn/XtP/wChxV5/8Fv+RQn/AOv2X/2WvQJv+Q5af9e0/wD6HFXn/wAFv+RQn/6/Zf8A2WtofBL5GU/jiVvjT/ySzxr/ANgtP/R8tdN8Pv8AkS9M/wCuH9TXOfGOGW4+GXjKGGN5ZX0yNVRFJZj58vAA615V4v8A2grrwL4X8OWfh61uBfwFGvI76zYQSwvHvCh8g7huXOCCCDWUjc37S3jute0K3nXfFJqltvQ9Gw4Iz+IBr6KAxXyT8M/iRZeNPEWgRpaXFtdx6lbGRCpaMfN2cDH4HH419b15GUUZ0aMoTVnf9EevndaFatGdN3XKvzYlZnie9m07w3q15av5c9vZzSxvgHayoSDg8Hkd61KhvbyDT7Oe8uX8uC3jaWR8E7VUZJwOTwO1esnqjxrHjHwp+JXirxBr97b6nNPqscVk0yW0EUEbMwkjXIJ2DgMerAfjivUP+Eh1T/oUda/7/Wf/AMfrnNL+Imm6k3iA6JqY1W7B+2Wlr5FwdsSxxRlcbMjMgY/KDjdux1rDg8b+INU8GRXNjNLLPckNA0dhK8rRb0y27coPVug4GM4NduMmnWf7vl20/qxlSg+Re9c7/wD4SHVP+hR1r/v9Z/8Ax+j/AISHVP8AoUda/wC/1n/8frE1HxXfQeGreec3aT3Fw0ctxa2D/wCjopLH5Tu+YqAikkgsw69Ky1+IXiBruWC5XSNNcXMsBt5VaV4Qlqs43MJFBJLbeBge/fkc1rptr1Ks+/5f5HX/APCQ6n/0KOtf9/rP/wCP0f8ACQ6n/wBCjrX/AH+s/wD4/WSviy6/s7SLx762imutP+0TQtauwd/K8zKYIHRX+Ut6c8c43hvxxq+peIprNryCSK51BIoR9mjYJH9lSZgNtySucNzh8E/gK0u1bb19BpNpSv8Al/kdf/wkOp/9CjrX/f6z/wDj9H/CQ6n/ANCjrX/f6z/+P1yXi3xnrVrcaxZxSw2trFqFtpyXIi+aHzoom37zKoyGkJAK4OMGtPwj4p1bWpbm5ujG+m2nnRGaG2XErIQN2RKx3dflCke/alddvz8v80EouOjf5dTa/wCEh1P/AKFHWv8Av9Z//H6P+Eh1P/oUda/7/Wf/AMfrlZPGmpyeGtWuIiFlKTNFNeSfZPKkZWZIIlKFndF25yOSTgnGBtP4muh4O1HVHfTmNpbsxlt7zeFxHlmZtgwR1wAaUpJJu23qNQbaV9/Q0P8AhIdT/wChR1r/AL/Wf/x+j/hIdT/6FHWv+/1n/wDH65Tw14q1nXW8OSwz2sm6xYyJ9pbbeS7UySyxnBTncMABnUZJyKTxH8Qr220Dw5qjRW2nnUdRWFla8IT5fMJVmKfcxHktjim9HZrrbr3sTFNq6fS/Q6z/AISHU/8AoUda/wC/1n/8fo/4SHU/+hR1r/v9Z/8Ax+uAt/FXiaXW4p/t4W1m1N7QAWoZB9yEcefnaJFdvXnPfaN74g+I9a0W6MemHUUxZT3BMa2zR/IFw3zndjLgH17Ucy7L8RtNO1/y/wAjof8AhIdT/wChR1r/AL/Wf/x+j/hIdT/6FHWv+/1n/wDH6xNO1nXH8T6fp18J4YVeWI+cE8yYC3jbcxT5CdzN90AD0rtqXMu35hyvv+Rif8JDqf8A0KOtf9/rP/4/T4Nc1CaWON/C2rwKzBTJJLa7UBPU7ZicDrwCfQGr+pzT22nXU1qIDPHEzxi4cpHuAJG5sHC+pxXm5+IOq3WrCPTb23u/s8GXRLTbHIXSKQO4M2UjCPnecDhhgkqC009EvzHyvucn8N/ih4w17xfZWOo6g99buszNbx28CNIVidgoO1cHKjqQPU4r2P8A4SHU/wDoUta/7+2n/wAfrFuPFOrweGxfR3OnXV5JqkdkBHbOixKZ1jKMjOCXGT3AzjqOTzUXj7xE2rSQwzwPc3V9Jp4svJQtCYklbzEUzg7m2KCpIXjOck56MViqdefNTpqKS2/4a3dEUqUopqUr/wBf8Bnff8JDqf8A0KOtf9/rT/4/R/wkWp/9ClrP/f60/wDj9c74x8V6loOq+E7Iz2kM1/LIshml8pJCIGyGUBsKHKHhjzgZ71ieHvFHiS913SWe/wAWeozXCIHtAV5JlTgTnGI43X23dG61zqSvay/H/Mqzte7/AA/yO9/4SLU/+hS1n/v9af8Ax+j/AISHU/8AoUdZ/wC/1p/8frlvG3iPXtP1o2WmNqkUW2AO0a2pVTLcRxKV35IyGkxuH3lHGAa0NE1vWLvxjBZ34kghFrdEQsACxR7cKzEcMfncZGBz0ojK+yXXv0+Yprl1u/w/yNn/AISDUz/zKWtf9/rT/wCP0f8ACQan/wBClrX/AH+tP/j9blVtRne3s5JI5VicDh2haUD6qpBP50c67f195XK+5mf8JFqf/Qpaz/3+tP8A4/R/wkOp/wDQo61/3+tP/j9cO3jzXEgTX1nX7HOYrUW7adJsDNMIxJ/rMg5bpnke+K6TV/E2qaP4ZtdYjaC/kiWQXET20lp55CtyiOWZMFc85BXcR2pOaSu1+f8AmNQbdk/y/wAjU/4SHU/+hR1r/v8AWn/x+j/hIdT/AOhS1n/v9af/AB+uI1nxvrl5fWMtvLbaPbpZT3MzNLI4YhodvymDLDG8YUZO44IIFdN441y/0XTYJLQ3MUsw2+bHCjRW7f35GfoOeBjJPHHJBzq17L8f8xcj01/L/I0f+Ei1P/oUtZ/7/Wn/AMfo/wCEh1P/AKFHWf8Av9af/H6yfBVzeX08k17f6rPIsCfLfCGEyZ5L/Z0UNGMjgscnJ9ATyWq+P/EVh4tvbdUupbGGMvG8EQZZDu4iBAI3FgU3YHULnfkgckmlZfj/AJi5Xa9/yPQ/+Ei1P/oUtZ/7/Wn/AMfo/wCEh1P/AKFHWv8Av9af/H6zfCmv30+nvZywvdXGnW8IuLyedR58rRq/8I4yrA9OM4964HTPiBr/AIi0bRW06/gLzx3MzNH++dlCkDzCXj2ndNEQoB4XdntTbtdcv5/5jjBy1v8Al/keof8ACRan/wBClrP/AH+tP/j9H/CRan/0KWtf9/bT/wCP1zX/AAketxfDKXWllubm/jik8toYIkbfGCoDh3YMC6nkHJ3DAFZep+KvE9poOsTYvxsN5GJ7hYP3Ait5mBXyujblTJbIPQYp3V7WX4/5jjBu2u/p/kct8SPil4w0Txjf6fp2oPYW0aQstu9vC7RFokYqWw2TknoSPQ4xXv8AiuA1T4j+H9E8RWkGp66LdrazkS6tzFMxMknkvG3yoVOFD85yN3ua7+uvGyvTpr2fLZb/AM22uy9eu5z0F70nzX/QMVQ17TrbVdEv9PvIlltrm3khlRgCGVlIIwfY1fqG9/485/8Acb+VcDOlbnmXwMuZLzwBZ3Mx3SzJHI59SYYyf51y37Tox8KNc/37L/0qmrlPhX+0V4F8H+DLPStTm1AXMUcasI7YsuViRTzn1U1X+MnxZ8NfEL4V6ymiSXTGRoSvnQlOIblS/wD6VRY/H0rHDx5aai13N8TLmquR3c3/AB72P/Xjaf8AohKyNf8A9Tp3/YX0z/0tgrXl/wCPex/68bT/ANEJWR4g/wBRp3/YX0z/ANLYK2Oc970P/jxf/r5uP/Rz0+TSLWWeSYm5R5SGfyrmSMEgAZwrAdAPypmh/wDHi/8A183H/o56vikBS/sW2/563/8A4Gzf/F0f2Lbf89b/AP8AA2b/AOLq9RQMo/2Lbf8APW//APA2b/4uj+xbX/npff8AgbN/8XV6igCj/Ytr/wA9b7/wNm/+Lo/sW2/5633/AIGzf/F1eooAo/2La/8APW+/8DZv/i6P7Ftf+et9/wCBs3/xdXqKAKP9i2v/AD1vv/A2b/4uj+xbX/nrff8AgbN/8XV6igCj/Ytr/wA9b7/wNm/+Lo/sW1/5633/AIGzf/F1eooApRaRaxTxzA3LvGSyeZcySAHBGcMxHQn86brX/HnH/wBfVv8A+jkq/VDWv+POP/r5tv8A0clAHnPwi/4+/GH/AGHtQ/8AS25rR1z/AJH/AMMf9hhf/TZqNZ/whG6bxZKOVk13UCP/AANuK0Nc/wCR/wDDH/YYX/02ajTA9E70UUUAFFFFABRRRQAUUUUAFFFFABRRRQBw2mf6/wCJf/YT/wDcVZ1U+Kn/ACL9t/19r/6A9W9M/wBf8S/+wn/7irOqvxU/5F62/wCvtf8A0B66cH/Gh6nNi/4MjO+FH/Im3v8A2Hl/9Gw16Lr3/ID1H/r1l/8AQDXmHwiu2Oh69p8pw8GvW8sa/wDTJxbkH/voSflXp+vf8gPUf+vWX/0A1GI/iy9WXQ/hx9EX6KKKxNgooooAMUUUUAFFFFABRRRQAUUUUAFFFFAAaoab/wAfmq/9fS/+iIqvmqGm/wDH5qv/AF9L/wCiIqBCzf8AIctP+vWf/wBDirz74Lf8ijP/ANfsv/std5f3EdpqkNxMwWOKzuXdj2AaIk15/wDAuSSfwHFcSxeTJcTGcxE5Me9EbaeByM46VrD4JfIzn8cfmd5pfGp3X/XCP/0bNXJeKvhxoHxItLS28QRTTW1jqNzcCFJNgkbzHGGI5x9CK63S+dTuz/0wj/8ARs9R6eP3M2P+fq4/9HPWbNEeF+H7Gz03W/DltZ20dvCmqW+1I12r970r6Pr5uluptPuLHUbeA3DWF5DdGEHDSIjjcoP97bnHvj617Fa/F74f3UCSnxloVsWAJhu72O3lTjo0chDKfYgV4WRVOahK71v/AJHv8Q03HERdtLL8LnXY7VS1zTP7Z0W/03zfJ+2W8lv5m3ds3KVzjIzjPTNYf/C1/h9jP/CdeFv/AAawf/F1U1b4neFbrRtSTQPF+gXmqJZTzW8NrfwzSFkjZ8hAx3YCkng8A5r3Y35lY8B7HNeBfhQmhaprgg16WZki/subbaCIjesMpZG8w87WABI4JzzjmzbfDZINO0K0h0eKGO2trh54jlh5mIlQACVPmKpj72OOeea5X4c/FPWZtU1afW9V0tbSO0+0ySXzw2UHmeZDErSSqmQdpCjOc/KPTHaf8Ll0j/oYfh3/AOFWn/xmu/H06qrP2zTlpr8vkc+HnDk9xaFjTfCl5L4Q8O6c2mLG1pMZ3SS9ltTbnLlTtiJMh+b7hfHfJxWY/gfXv7SvriPS9KkiW9nnQyzmNp1ezSIbV2Pj5gfvN2q3/wALk0j/AKGH4df+FWn/AMapf+FyaR/0MHw8/wDCrT/4zXC6b18/Ndbf5Grkna/Tyf8AXUvHQte/srQYYrazDaTZpvjmbeZpDEY3TH3RtByCSQxwOBk1zfhrTdY0rxHczweEfFNis+orcedJNYPE6GFI3Mq/aDgllZsxrkDAHHy1rf8AC5dH/wChh+Hf/hVp/wDGaP8Ahcuj/wDQw/Dv/wAKtP8A4zVcru3p94JpLlX5MvX+h3lxDqJgsLmTUbu8+1xSecYYYWCqkZchgWG2NchQxGSODzT/AAda6vpMd/p2oaPfi7nL3Ul+LxHtZZDgBIiXMiYAAAKDpkkk1nf8Lk0f/oYfh3/4Vaf/ABmj/hcmj/8AQw/Dv/wq0/8AjNTyO1v1RXOv6QqeFNcsIdDht4ZxHHdlrq3j1i4chPJl5eYkZy5QkKg+bnnrWhaeG7+60PXtP1RLhorm7d4YpbprjfHsXau5iTtLL047jvznf8Lk0f8A6GD4d/8AhVp/8Zo/4XJo/wD0MPw7/wDCrT/4zQ6bd/Tug59U+3r5/wCY8eDbvT9As7+3k1eO9t7G2R7Cw+zqxkjwzbWdfvMVAb5wGAwaa/hC6Xw54aF1aO97ZPGZ0XbJ5CsS0pA5DEkgHGc4wBjqn/C5NH/6GH4d/wDhVp/8Zo/4XLo//Qw/Dv8A8KtP/jNNwbd/O+6JTSVvK2xQk8BX9tfXGs29reNHLKpjtYEsxdxkMz+eu9PLDl3YlcglQvORsrqfEmm3F8t5Hb6bfvJcW/lPKPs7LLxlR+8fKgEngADJJ9zi/wDC5NH/AOhh+Hf/AIVaf/GaP+Fy6P8A9DD8O/8Awq0/+M0nBtW/VDUknf8ARl3wvo1/aahpd7qmmahPqCWK2k13cG1PlkKMtuVjI+SuMnPX610llDrEGtXn2i5huNLkRXtwy7ZopMncnAAZMbSD94c5zXHf8Ll0f/oYPh3/AOFWn/xmj/hcuj/9DD8O/wDwq0/+M1Ti32+9CTS7/iehTQrPE0T7trDB2sVOPqOa84tfBpN7YXN94PinxBPHqIENp/pcjFPLdvnG7ADjnH3ql/4XLo//AEMPw7/8KtP/AIzVjT/ivpeo39tZx674Ele4lSJUtvEqSysWIACJ5Q3Mc8LkZPFTyNf8Ohua/pGkLPU73Q/D39q20guojFd36IqkiVVztATjPmFehxhTzWDd6DrdlqkWpQ6JqFxpVtObpLCDUR9teX33yCMx5JbbvySeTj5a4XwJ8WvFWo+JraDWNZtmsVhuJpvtCRQRAJA7gvIEyigqCW7DPXpXeH4yaQf+Zg+HX/hVp/8AGa6sXgp4apyzau9dP+D6EU60aiur9v6+81PFOgPqer6Hqws7ndG7if5Eke2jNvKAoX5lJLuAeo6dhxg6f4F1HRr2DUUtbtke7R4obQWn2ixXATLF02lWXfvCEEbjjeeatf8AC5dI/wChg+Hf/hVp/wDGaP8Ahcukf9DB8O//AAq0/wDjNcqg9/1NOZf0mXfGui6lqul6xa6RYakl1cRHy5le3CtOozHIHZ967WwRgDbjIANXtA0qW11+W/uNLvhPcWyxvd3AtRs244/dncxbjJOfuLWL/wALl0j/AKGD4d/+FWn/AMZpP+Fy6R/0MHw7/wDCrT/4zQoNf8OhNp/8MztNFttXtWvYtUuoryITZtJgoWUxFQcSAALkNuAIAyMcZ6274XQtyLOOB5SQP37lVA7ngHOPTjPTI61wP/C5dI/6GH4d/wDhVp/8Zo/4XLpH/Qw/Dv8A8KtP/jNPkf8ATHzL+rmZF8OtRdb9/wCyLNbkXbuXdkg+2IGDJ5W0P5GMcPw+c55O8dF4g8P6n4qs9Md7RtNdo57a4gklEjwpKmwtuUlSwUtjryw561n/APC5NI/6GD4d/wDhVp/8Zo/4XLpH/QwfDv8A8KtP/jNHI9tPvFzK9/0Mq5+GOp2OqjVrO2tr2Owm89bTAha9xJK6pu3EYUyqcvjLRLwBzXUeI/Ds/iR9OvrzSYnfTNtwAdrSSuVG6ONSdq+m5jnggYzurM/4XLpH/Qw/Dv8A8KtP/jNH/C5dI/6GD4d/+FWn/wAZpODfX8UNSX9Jk/hHwjqOjf8ACOXlzYWDXEdn5V5I6hbm2kMY3ESLxKGZQGDZOeQx6VWl8K6vbeKV16wtbg23mxr9ilvZBLIiqwC5DtGIlLM+1hknjjgF3/C5dI/6GD4ef+FWn/xmj/hcukf9DB8PP/CrT/4zTcW3fT7x8ytb9GX/AAd4X1DSLLUtC1eAzQ3Mnn/bopVKSxsAogIOHBRFWPOMMoByGJAwY/h7e6lpum2aQPYXFsS0s0kMPlxKH3BF+Us5bZGDzt25Gf4ToD4x6QP+Zg+Hf/hVp/8AGaP+FyaT/wBDB8O//CrT/wCM0uR3v+ouZf0maWjaTd2mgfZZtJ1YSQ3ZeGAvaMkLD5t8YUorR7ssN43AnOBgYyJPDGqXX9tQ3+lapdWN3cpcw2p+xMrEKN4IZsKWbdkjkhjUv/C5NJ/6GD4d/wDhVp/8Zo/4XJpP/QwfDv8A8KtP/jNHI9/1Q+bp+jMbxh8I4/FfjL7W+rS6fNqVv54tjZrIIViWGNlLCQZPzr0GOvPTPsFfO/j34peJrLxdMdJ1WzS3S3ga3e3jhuECSwxSN5crJlkY4OeAQFOOlexXXxO8DWNzNaXfjPw1b3MDtHLFLqcKPG4OCrKWyCDwQelehj4V40qTqyTTWnktPL07nNh3BymorW+p0tQ3nNpMP9hv5Vzf/C1/h7/0PfhX/wAG0H/xdZHib4v+FYdFu10HXdK1vVJImjtbTT7tJy0hB2lyhbYgPVm4+p4ry5SSV5PQ64xlKSjFamT8Af8Akm2m/wDXGH/0THXXEf8AE4h/31/9u65/4OWa6Z4RWyT7lu6xL9FjQf0roD/yGYv99f8A27rDCSUqUZLrf8zpxkHGvKL6HF+Mv+Rju/8AgH/oArm9UsjqOn3FoszwPKhCSp96Nv4WHuDg/hXSeMf+Riu/on/oArFNdJynd/D7xLofjezeO+06wt/ENtxqNlJGhcP/AM9VyPmjY8hvfBwwIHXf2BpP/QLsf+/Cf4V4XeaTZ38kc00bLcQ5MNzDI0U0Oeux1IZfwNWEl1aNML4n8Q47br5yfzNIR7Z/YOk/9Aux/wC/Cf4Uf2DpP/QLsf8Avwn+FeK+frJ5/wCEn17/AMDWo87Wf+hn17/wOagD2r+wdJ/6Bdj/AN+E/wAKP7B0n/oF2P8A34T/AArxXztZ/wChn17/AMDmo87Wf+hn17/wOagD2v8AsHSf+gZY/wDfhf8ACkOhaT/0C7H/AL8J/hXihn1jH/Iza/8A+BzVw3xL1HWre/8ACKDxFrh87W4EJN4+QCe1MZ9S/wBg6T/0C7H/AMB0/wAKP7B0n/oF2P8A4Dp/hXif2jWf+hm8Qf8Aga1H2jWf+hm8Qf8Aga1AHtn9g6T/ANAux/8AAdP8KP7B0n/oF2P/AIDp/hXif2jWf+hm8Qf+BrUfaNZ/6GbxB/4GtQB7Z/YOk/8AQLsf/AdP8KP7B0n/AKBdj/4Dp/hXif2jWf8AoZvEH/ga1H2jWP8AoZvEH/ga1AHtf9gaT/0C7H/vwn+Fcr498RaJ4JslWy03T7jxBcqf7Os1jUO7jH7xsDKxqSCze2BkkA+fGTVnBB8T+Icf9f7j9RzVay0u00+WSaFHeeXHm3E0jSyy46bpHJZvxJpCO1+EVmbDTLi1djJLGkXmyk8yudxZj7k5P41a1z/kf/DH/YYX/wBNmo0fDjrqP/bL/wBno1v/AJH/AMMf9hhP/TZqNMZ6JRRRQAUUUUAFFFFABRRRQAUUUUAFFFFAHDaZ/rviX/2Ev/cVZ1U+Kn/IvW3/AF9r/wCgPVvTP9d8S/8AsJf+4qzqp8VP+Retv+vtf/QHrpwf8eHqc2L/AIEvQ8y0bWh4T1+PVZYpp9MuUW31OKEkPsV90cy7cEmJiTgHO12wCQBXtt5Bpt/4auNRsL2a7tpbN5oJo76WSORShIIO8hgfyNeFDpU2iPqGh3Bi0fUrixtLlyLmxXa8EwbIb5WB2Mck7k2knrmvUx2Ac5OpT+Z5uCxqjFU5n0L/AGNa/wDPW+/8DZv/AIuj+xbb/nrf/wDgbN/8XXj9v8W/GkcCLNaeHppgPnkSKZAx+m84/OpP+FweMP8Anx0D/vmX/wCKrzvqGI/l/FHf9fofzfgz1z+xbb/nrf8A/gbN/wDF0f2Lbf8APW//APA2b/4uvJP+FweMP+fHQPyl/wDiqP8AhcHjD/nx0D8pf/iqPqGI/l/FB9fofzfgz1v+xbX/AJ633/gbN/8AF0f2La/89b7/AMDZv/i68j/4XD4w/wCfHQfyl/8AiqP+Fw+MP+fHQfyl/wDiqP7PxH8v4oPr9D+b8Geuf2La/wDPW+/8DZv/AIuj+xbX/nrff+Bs3/xdeR/8Lg8Yf8+Og/lL/wDFUf8AC4PGH/PhoP5S/wDxVH9n4j+X8UP6/Q/m/Bnrn9i2v/PW+/8AA2b/AOLo/sW1/wCet9/4Gzf/ABdeR/8AC4PGH/PhoP5S/wDxVH/C4PGH/PhoP5S//FUf2fiP5fxQfX6H834M9c/sW1/5633/AIGzf/F0f2La/wDPW+/8DZv/AIuvI/8AhcHjD/nw0H8pf/iqP+FweMP+fDQfyl/+Ko/s/Efy/ig+v0P5vwZ65/Ytt/z1v/8AwNm/+Lo/sW2/563/AP4Gzf8AxdeSf8Lg8Yf8+OgflL/8VR/wuDxh/wA+OgflL/8AFUfUMR/L+KF9fofzfgz1v+xbX/nrff8AgbN/8XVKw0m3e61FTJe4S4CjF5MOPKjPPzc9e/8ASvMf+FweMP8Anx0D8pf/AIqsnVvGfi7VVIfV49Nhuv3syabHskLAlcCVizKNqp90A5BOecAWX4hu3L+KD6/Q/m/Bm58W/EFg6S+D9ImkuLy7jMWqStcySi0tWwXj+Ykb5MBcdQuT6Z3vhUip4fnVBgC6YAenyJXlFrZwWMXlW8axpuLHHJZicliTySTySeTXrHws/wCRduP+vx//AEBK7MRhVh8NZ7tq5y4fFe3xF1okjrNK/wCQld/9cI//AEbNTNP/AOPeX/r6n/8ARz0/Sf8AkJXf/XCP/wBGzU3T/wDj2l/6+p//AEc9eOz1jw0/NSGOM/wA/Wl/Cj8DX5o9z9RuMW2gUcQxD6KKmt2NrMs1uTDKucPH8rDIweR7UwUVV2JpPRlu41TUruFoZ9Ru5YmxlJJWZTg5HBOOtUvKh/55j/vkU6lolUlL4ncmFOEPhSQzyof+eQ/75FHlQ/8APIf98inUUF2G+TD/AM8h/wB8ijyYP+eQ/wC+RTqKAsN8mD/nkP8AvkUeTB/zyH/fIp1FAWG+TB/zyH/fIo8mD/nkP++RTqKAsN8mD/nkP++RR5MH/PIf98inUUBYb5MH/PIf98ijyYP+eQ/75FOooCw3yYP+eQ/75FHkwf8APIf98inUUBYb5MH/ADyH/fIp0apDIskSlJEIZWUYKkdCD2NFFF2FkXZdZ1SeNo5NSvXjYFWR5mIIPBByelZ/k2//ADwT8qf+FKKJVJS+J3IhThD4UkR+TB/zxj/75FHkwf8APGP/AL5FP/Kj/vmi5dhnkwf88Y/++RR5MH/PGP8A75FP/wC+aP8Avmi4WGeTB/zxj/75FHkwf88Y/wDvkU//AL5o/wC+aLhYZ5MH/PGP/vkUeTB/zxj/AO+RT/8Avmj/AL5ouFhnkwf88Y/++RR5MH/PGP8A75FP/wC+aP8Avmi4WGeTB/zxj/75FHkwf88Y/wDvkU//AL5o/wC+aLhYZ5MH/PGP/vkUeTB/zxj/AO+RT/8Avmj/AL5ouFhnkwf88Y/++RR5MH/PGP8A75FP/wC+aP8Avmi4WReg1zVII0ii1K9jjQBVRZ2AUDoAM9KoTJHLNJI6KzuxZmYZJJPU0v5UYzTlVm92yI0acfhikRiCIdI0H4U4Ko6ACnUtLmNFE9K+GX/IFuf+vlv/AEFa12/5DEH++v8A7d1kfDL/AJAtx/18t/6Cta7f8hiD/fX/ANu6+7y7/d6fofnWY/71U9TivGP/ACMNz9E/9AFYtbXjH/kYbn6J/wCgCsWu04WFGKKKYxaKKKACiiigANcB8VP+Ql4L/wCw/b/+hV6Aa8/+Kn/IS8F/9h+3/wDQqAPQaKKKACiiigBtFFFABRRRQB2fw5/5iP8A2y/9npda/wCR/wDDP/YXX/026hSfDn/mI/8AbL/2el1r/kf/AAz/ANhdf/TbqFAHolFFFABRRRQAUUUUAFFFFABRRRQAUUUUAcNpn+u+Jf8A2Ev/AHFWdVPip/yL9r/19r/6A9W9M/13xL/7CX/uKs6qfFT/AJF62/6+1/8AQHrpwf8AHh6nNi/4MvQ8sqW24uIcf3x/Ooj3o0mZtUuwNOtbu+ihcie4t4GeCEqfm3yY2AjuM54PFfS15xjF8zsfOUISnJcquKSRnmo3miijaSWSNEQFmZjgKB1JNP1fRvEtjZzXNx4TvBZwI0s8lyUVY1XnPcYGCc8YxWHDHrE91LAfBTqsdvBcF5CF+WUsEJBX5c7DjNY/XaL05kb/AFKtvys2wwYBgQQeQR3qEXlsQD58WGkMQyw5cEgr9eDx7Uah4f8AE8Gl5vvCN+jeYEj2RCSNCThMgMDjkA/nx2wLDwvq95cSRQ+DrpmtkXUSd6kHzGkHX+58rY+lJ4ykteZWGsFVf2WdIzqilmYKB3JwKj+1W/8Az3i/76FZlx4e1g+BXvV8J3trbXFutyxijTy/mwd3XPOfSmeKrXXvD6/Z5vD93b/bOIZ5YY/9G+YAu+Dwo3DDHA3EAnnNOWMpJ2vr+vYlYOq+hsxXEc6lopEkUEqWRgcEdRTPt1n/AM/cX/fa1aj8JeK7ayWG28M6puVQDJNFH8/A+Y7XHNcVcp4s1G40tW8JXc0V2kzxpHbuY7pOCjbQG3AKQepHPPFE8bRj9oqODqvdHXQzR3CK8TK6OAyspyGB6EH0oaaJJUiZ1V5M7FJ5bHXFR6RoXi/UdH+1Q+HbxFuI82vkxKRECuOTvG7ntgY6Vz13HfLJobS2WqzQzzzotxK8YAaIFHZTkgfN8uSQPm65NDxtG+kkH1Kr/KdRioftlttuGE8WLbPnfMP3ZwDz6cYpNL8PeKfsst9H4b8TTpKB5MU8KKQBwMDdkZznJ7fSuTvNI8XL4YnWLS9Riv7iS883ZFGYj5cjiZzuy3yhdvUDO0elKWOpxTaZUMBUe6OyR1lUMjKysMgg8Gm/aYNu8TRkbimdw+8M5H14NU/DWheJ54nB03XLqe3QRyQMkARCQGVsDDcqQRyetY+r6frUVut3N4eurUQ6rN5zIE2kpbybidxPIVc9Oi03jKPSX9XIWCqttW/q1zoluYGYKs0ZY9AGGaszf6uD/cP/AKE1ch4V8O6/Frdpa/2DfyyxW9yuEWPO7MLHHC9nU8k/frtNR0/WLG2jmn8PayI4l2y+TaNOYm3E4ZY9x6FT06GlHGU3yybt/TG8JVjf3b6fqVq9T+Fn/Iu3H/X4/wD6AleTWt5b38XnWs8c6ZK7kOcEdR7Edx1Fes/Cz/kXbj/r8f8A9ASs80kpULrua5cmq1mdZpP/ACErv/rhH/6Nmpmn/wDHtL/19T/+jnp+k/8AISu/+uEf/o2amaf/AMe0v/X1P/6OevnGe+eH9T6UZoJpK/Nj9RCiiiiwXCiiiiwXCiiiiwXCiiiiwXCiiiiwXCiiiiwXCiiiiwXCiiiiwXCiiiiwXCiiiiwXCiiiiwXDFGBRRRYLhgUYFFFFguGBRgUUUWC4YFGBRRRYLhgUYFFFFguGBRgUUUWC4YFGBRRRYLhgUYFFFFguGKKKKLBcKWkoosCaPS/hl/yBbn/r5P8A6Cta7f8AIYg/31/9u6yPhl/yBbn/AK+W/wDQVrXb/kMQf76/+3dfd5d/u1P0Pz3Mv96qepxXjH/kYbn6J/6AKxa2vGP/ACMNz9E/9AFYtdp54UUUUxi0UUUAFFFFAEdzK0FvLKkTSuiFljXq5A6D615T4l8WWPjGDwRqNmGjP/CQwRywP9+Fw3Kt79D9CK9arwP4s+DNV0TxTZXugGZbfVbxJoo4uBFejoQOxPUH/e9KAPXvDvjC18Sa3q2m2kEnlaY6xPdZzHJJzlV+hGM10B61g+CvC1v4O8O22kwEO6DfNKBjzZD95v049gK3uaACijBowaAG0UtFACUUUUAdn8Of+Yj/ANsv/Z6XWv8Akf8Awz/2F1/9NuoUnw5/5iP/AGy/9npda/5H/wAM/wDYXX/026hQB6JRRRQAUUUUAFFFFABRRRQAUUUUAFFFFAHDaZ/rfiX/ANhL/wBxVnVX4q/8i7bf9fa/+gPVrTP9b8S/+wl/7irOqvxV/wCRdtv+vtf/AEB66cH/AB4epzYv+DL0POPDHhuDxjr8lpqlwtrodgFe9cy+WbiRslLcH0IVmbBBxtH8RI9ov7/QrXw9dWFhd6bDFHavFFBBIgCjaQFVQf0FcR8G7aOLTbi4XcZLvxDM7k/7NmEA+mEH4k16Tr2Boeodv9Fl6f7hoxlV1KsmxYOmqdJJGdrD6Nrght7rV7JrJGEktt5q4nI5UMc8pnkr3wM8ZBw9GQTeJPEOo6/eaAbW+gt7KGKC6DiWKPzCzOG6Z84jbz93rzXbXF5a2YDXNzDAG6eY4XP51lxeMdBm1S50xdTtvtFtFHNJmQbQrlguGzgnKNx/jXMlo0dVzn7/AE61h+H934e0vxQsl2lvNHZXM2oBHRjuMas6nJCghcnPA5zVfUdLs5Lu5a1vtAuLG80+3sZLWe8MfliIyEFGTJ6SY7Ebfeu3t9WsL2yN9aXcFzagsDNC4dcqcEZGehBB9MGs+48a+H7S1uLqbU4Uhtjid+SIjxw3HB5HHXkULqO+lv66f5HNXNvJP4R1jSH1jw+JbrC2cEdzthtogqKE3ckgbSeFHXHvVwz20sN7FdJ4duvtymO4abVtxlQ5Gw/uuFAJAAwOSepJPXXl/a6fZyXl1OkNtGu55XOFVfUnsPesN/H2gR21zO125FsZQ6LEzMfLl8psADn5+Bjr2zg03eW5KVtShaGA+HP7Bn1TSrS2RUtY2h1AzSfZwgBBdgp3nBGewOeo5x9R0TTNR8Z6fM02mpolrbTqzLrL7nZwqiMQggIowejYI4xXpLOFQsewzWBb+OtCuoLCaC5nkXULb7ZbqlrKzPDkDftC5A+ZevrSau7/ANdf+HHeyKGhR6f4XbUUtNetbrT55fPtrB5U3W7ty4WQtyrNlsHkEnntVOPRtD1GS7uNZ1HSkkltvscFvZ3ChLKIsGPltwd5YKxbA+4mAMZPV6XrthrIuTZzM/2WQRTB43jMbbQ2CGAPRlP41VvvGOhWCW8kupWzpPMkCtFIHAZzhc4PAJ4zSC5leGda1G1M9nr+s6BeQQ4W21CC6CTXA9ZIsbVYDqVYgnkAZwMaPw7pQ8M6vaS6rZ/2lePfmN49QKArLNK8akqw4w4JHPOetd9batp95cPbW19azzogkaOOVWZVJIBIByASCM+xrNl8Y6RDo+o6u0s32XTppLeciFi29H2MFXGW+bgY60PVNDUmjJ8P6P4V0W5TVVvrf+1Ht0hmnfU3lyAMbQHcjaDnAxgZJ7mse48IaJf6hftfeI4ZrO7NzIFFxGpgaaLyiqDJAwrSEscklh2UCvSA67d5OFxn5uMD3z0ql/bmlssrJqNpJ5ShnCyqSoOcZ54zg/lTvrcmOhxWl6ZZ6X41iv7e/wBNXTIref8AeSamZZ5JZPIUAhxwAsA/iPXoK6ew1rS47zUmfUbJQ9wrITOo3Dyoxkc8jIP5Vd0fXbDXbKC80+4SWKeFJ1HRgjjKkqeRn39KNOJ+2ap/19L/AOiYqd3swuecfE3wrpOpWt14o8OvaPrFlGZrqG1dW+3Qr94Mq9XA5VuvG3oa0PhPMk/hqaWMgxvdMyn2KJXbXKLJrNsjgFWtLgEeoLRV558DYFtPBAtUzsguGhTJydqKqrn8AK6IVW6UoP1OeUEq0Z+qO90kY1O64/5YR/8Ao2aotOz5E3T/AI+rj/0c9SaSD/ad31H7iP8A9GzVizeKNL0Rkgu5Zi9xe3EY8mFpfLPmuRv2g7Af7xwPeuZnSeQ3ENzeS2mn2cqwT391FaJM3Ii3sAXx3IGSB0JAB4Nes2Xwc8G29skU2nTXcgGXmuLuVnkJ6kndj8AAB2wOK8v0+Nk8QaHKysIotSgeRyMBFB+8T2Hua93GvaSB/wAhSx44/wBev+NeFkeHiqLco63Pfz7ES9vGMJaW6erOe/4VH4J/6Ai/+BEv/wAXR/wqPwT/ANARf/AiX/4uui/t7SP+gpY/+BCf40f29pP/AEFLH/wIT/Gva9nDseJ7Wfd/ec9/wqLwT/0BF/8AAiX/AOLo/wCFReCf+gIv/gRL/wDF10P9vaT/ANBWx/7/AKf40f29pP8A0FbH/v8Ap/jR7OHYPaz/AJmc9/wqLwT/ANARf/AiX/4uj/hUXgn/AKAi/wDgRL/8XXQ/29pP/QVsf+/6f40f29pP/QVsf+/6f40ezh2D2s/5mc9/wqLwT/0BF/8AAiX/AOLo/wCFReCf+gIv/gRL/wDF10P9vaT/ANBWx/7/AKf40f29pP8A0FbH/v8Ap/jR7OHYPaz/AJmc9/wqLwT/ANARf/AiX/4uj/hUXgn/AKAi/wDgRL/8XXQ/29pP/QVsf+/6f40f29pP/QVsf+/6f40ezh2D2s/5mc9/wqLwT/0BF/8AAiX/AOLo/wCFReCf+gIv/gRL/wDF10P9vaT/ANBWx/7/AKf40f29pP8A0FbH/v8Ap/jR7OHYPaz/AJmc9/wqLwT/ANARf/AiX/4uj/hUXgn/AKAi/wDgRL/8XXQ/29pP/QVsf+/6f40f29pP/QVsf+/6f40ezh2D2s/5mc9/wqLwT/0BF/8AAiX/AOLo/wCFReCf+gIv/gRL/wDF10P9vaT/ANBWx/7/AKf40f29pP8A0FbH/v8Ap/jR7OHYPaz/AJmc9/wqLwT/ANARf/AiX/4uj/hUXgn/AKAi/wDgRL/8XXQ/29pP/QVsf+/6f40f29pP/QVsf+/6f40ezh2D2s/5mc9/wqLwT/0BF/8AAiX/AOLo/wCFReCf+gIv/gRL/wDF10P9vaT/ANBWx/7/AKf40f29pP8A0FbH/v8Ap/jR7OHYPaz/AJmc9/wqLwT/ANARf/AiX/4uj/hUXgn/AKAi/wDgRL/8XXQ/29pP/QVsf+/6f40f29pP/QVsf+/6f40ezh2D2s/5mc9/wqLwT/0BF/8AAiX/AOLo/wCFReCf+gIv/gRL/wDF10P9vaT/ANBWx/7/AKf40f29pP8A0FbH/v8Ap/jR7OHYPaz/AJmc9/wqLwT/ANARf/AiX/4uj/hUXgn/AKAi/wDgRL/8XXQ/29pP/QVsf+/6f40f29pP/QVsf+/6f40ezh2D2s/5mc9/wqLwT/0BF/8AAiX/AOLo/wCFReCf+gIv/gRL/wDF10P9vaT/ANBWx/7/AKf40f29pP8A0FbH/v8Ap/jR7OHYPaz/AJmc9/wqLwT/ANARf/AiX/4uj/hUXgn/AKAi/wDgRL/8XXQ/29pP/QVsf+/6f40f29pP/QVsf+/6f40ezh2D2s/5mc9/wqLwT/0BF/8AAiX/AOLo/wCFReCf+gIv/gRL/wDF10P9vaT/ANBWx/7/AKf40f29pP8A0FbH/v8Ap/jR7OHYPaz/AJmc9/wqLwT/ANARf/AiX/4uj/hUXgn/AKAi/wDgRL/8XXQ/29pP/QVsf+/6f40f29pP/QVsf+/6f40ezh2D2s/5mc9/wqLwT/0BF/8AAiX/AOLo/wCFReCf+gIv/gRL/wDF10P9vaT/ANBWx/7/AKf40f29pP8A0FbH/v8Ap/jR7OHYPaz/AJmc9/wqLwT/ANARf/AiX/4uj/hUXgn/AKAi/wDgRL/8XXQ/29pP/QVsf+/6f40f29pP/QVsf+/6f40ezh2D2s/5mc9/wqLwT/0BF/8AAiX/AOLo/wCFReCf+gIv/gRL/wDF10P9vaT/ANBWx/7/AKf40f29pP8A0FbH/v8Ap/jR7OHYPaz/AJmc9/wqLwT/ANARf/AiX/4uk/4VH4J/6Ai/+BEv/wAXXRf29pP/AEFbH/v+n+NH9vaT/wBBWx/7/p/jR7OHYPaz/mZxk/h+L4f61pMmgtOmlapeG1vLCWd5ER2jYpNHuJKkGMKyggENnGRzsEg61ER0Lrj/AMm6reNNUsbl9B8m9tpRFqsUkhSVW2JskBY4PAyetSwzQzaxCYZY5QHQEowYDIuz29iD+NNJKyRLberOO8Yj/io7v/gH/oArFP3T6d/pW34y/wCRju/+Af8AoArkvESrLpq2rlvLvrq1sZNrFTsmnSJsEcjhz0pkG54V8Iax49thqKXz6JocgPkTxRK9zer2kTeCsadcEqxYYIAGCewT4N6R31rxC31uk/8AiK6TTbK4ntiY9SuoI0mlijiiSIIiJIyqBlCeijvVoaddf9Bm+/74h/8AjdMZyf8AwpzR/wDoMa//AOBS/wDxFH/CnNH/AOgzr/8A4FL/APEV1/8AZ1z/ANBi+/74h/8AjdH9nXP/AEGL7/viH/43QByH/CnNH/6DOv8A/gUv/wARR/wpzR/+gzr/AP4FL/8AEV1/9nXP/QYvv++If/jdH9nXP/QYvv8AviH/AON0Acf/AMKc0f8A6DPiD/wKX/4imyfBbQpmRpNV11zGdyFrlCVPqPk4Ndj/AGdc/wDQYvv++If/AI3R/Z1z/wBBi+/74h/+N0Acj/wpzRv+gzr/AP4FL/8AEUf8Kc0b/oM6/wD+BS//ABFdd/Z1z/0GL7/viH/43R/Z1z/0GL7/AL4h/wDjdAHI/wDCnNG/6DOv/wDgUv8A8RR/wpzRv+gzr/8A4FL/APEV139nXP8A0GL7/viH/wCN0f2dc/8AQYvv++If/jdAHIf8Kb0b/oMa/wD+BS//ABFH/Cm9G/6DOv8A/gUv/wARXX/2dc/9Bi+/74h/+N0f2dc/9Bi+/wC+If8A43QByB+DWj4ONZ18e/2pOP8AxyuP8V+DtY8BWzam2oNrWhQrm4mliVLu0UdZH2AJIg6khVKgEnIzj1/+zbn/AKDF9/3xD/8AG6rajaXEFurPqNxcI80UTxTRwlHR5FVgQEHYmgDkvhswddRZSCD5RBH/AAKl1v8A5KB4Y/7DC/8Aps1Gsv4KoLex1iwUuU069m09C7Fm2Q3E0S5J6/Ki1qa3/wAlA8Mf9hhf/TZqNNjZ6JRRRSEFFFFABRRRQAUUUUAFFFFABRRRQBw2mf674l/9hL/3FWdVfir/AMi7bf8AX2v/AKA9WtM/13xL/wCwl/7irOqvxV/5F22/6+1/9AeunB/x4epzYv8Agy9DP+EH/IET/sO3H/pO1eia9/yAtR/69Zf/AEA1558IP+QIn/YduP8A0navQ9e/5AWpf9esv/oBqMR/Fl6v8y6H8OPojP8AGmoahpXh++vtNs7W4mtbeWcG4b5VKqSAABlienUfXsfLJ9LHhy31bxbpdxpf9qXVrBIJJL0vK8ylyWf90A4fzFBQBQAi7cYXHrviXR59e0a70uG6jtUu4ngldoi52MpB24ZcHnrz9K5yf4cS3VgbGXWZnhKBCrT3rAgeqm629umMVhHe5u3podPpI1C30xTrLWC3CZMjWiskWB3wxJHr1/xrzFHY+Hbh9U1BbKPU7w69bBoA/wBoj80FLfbkFn4gOOp3Y7GvQ7nRtS1DRUsNSvbS6kbcLgxW7QxzqTwm3exC44Iyd2McZqjqfgWLXvIl1jULiW6tWElo9p+4SzkHSSNcnLdvnLDGRjBII97r+v6diGu/9f1qMvzqU3gaGLxAkL6hcRqlyIPMjhjZuoOwlioHBx972B48r8M6JDJpZmOsXFxZxXR1S4WQ3EEj2wvGZJMbgmxgBIrY3DYcMdxx7La6Zri6NNZX+qWOo3MhZRPJZbFMZ4w8YfDHHXBUH0HSsC3+GCWktzBb6tfJY38Bhv0aTe1wvQImRiFVXKgJ2c8Bvmq07Nsp6x5SppM0B8HXurahJr14t9eTC3S1urmSRohO6Qhdr/KCu0lsgHILHvXnPhZY9G0PSNQkvY7Gf/hF1dDca5PHtZwuzbuJGT5JPlqAox3617LpHhjU9C0W50ez1mNrWNBHpnm22XtIwOEdt37xR0HCtjqSeayND+Gc+g2mgRW+qhrnTGUS3LRcyIlu0KIq5wAAxPXqWPfhO3vfh9zX6lXVte9/xuO+H95bzaJqN7DLp06TrHPczW+qPeO05hUMJNyjZ8qpgAnr2ri1in0nw74e1Ca3uXg0bRobxFWwzHJcPEECbxE33U353Z5dfSvSbbwpdRWviCGW/WRtZuBI0gj2GOMxRxMOv3tqEg+pFO8Q+CNN1bQ7zTrS0tLeWdNiyFM7OR/TNNvVvvb9f8ybWVkw0tbaO01O5uJ79LdEIYz2wtGjQLkshRUfB9Sc/LxivKPC0WoXWhXpvNOMUlzrFw9rHdXryRyT/apCscqM/Hl/60leTt68HPtVt4e0e0nmuINMtI5p0EckixDc6AkhSccjJJx71naL4QtbK1uINQhtb1m1C5vojJCG8kySMwxkHBAbGRU7O/8AW6D7NvP9GYXh670zUvHcdzpNwJrf+yGDFWbaW8/a3BJwQUYEdqwrSa7lm1pLy1s1uZES8kubSaSZW8wSKkWwxKV8tIgPqxPBauw8P+E77Sdf1XV7m60+Tz4hBaQ2tqbdUTczs0h3Nudnc5IA4A4rMvPhtdxyXV1puoaYbi+lae7TUdMW4hLtwxiAZGjOAP4mHGSCSSc5L3bev4u40vev5r8FYy/hLoirLY6u9xMrHRLOCKElkDhQxYlT94DevOOD9a9F07/j81T/AK+l/wDRMVcv4P8AB+seHJrGKX/hGUsbS3WDda6c6XMuFABMhkwOnPynPtXUad/x+ap/19L/AOiYq3nK8rozS01CX/kN2n/XtP8A+hRV5/8ABf8A5FOX/r8l/pXoE/8AyG7T/r1n/wDQoq8/+C//ACKc/wD1+y/+y1UPhkRL44/MZ8Xb67034c+Mbywup7S6i06No5oJCjofPl5DDkda8W+IfwB8V614c8OSaL4g8SeJrm/MUs0Op3m+C0DRbjJljxgnHrjoDXsXxr/5Jb42/wCwZH/6Pkrt/DH/ACLGj/8AXhb/APopaxZqj5i+FPw+uvBmvaA1zrM9y0mpwA20RIt0O7rg8k9eePpX1+OK+dLOSO38Q+HpJGVE/ta1UljjlnAH5kgfUivoqvLyivOtSlOe9/0R7GdUIUK8acFpyr82LRRRXqnkBRRRQAUUUUAFFFFABRRRQAUUUUAFFFFABRRRQAUUUUAFFFFABRRRQAUUUUAFFFFABRRRQAUUUUAFFFFABRRRQAUUUUAFFFFABRRRQAUUUUAcF8YtDfxLoWlaQmo3mltd6rAn2uzfZND8rnKt2PGPxNcdL8BrqwiWH/hZnji4+3Ytw0t+WMGB5m9D/C37vbn+67DvXofj2WNJfDMbuqvJrMQRSeWIilY49eAT9Aa1dSwX0rn/AJeT/wCiJKAPmf4dC+ttR8W6XfavqGrNpmtT2UdzeztLIyRnYOSf9ntXSa+P3Omf9hjTP/S2Cue8C/8AI1fET/sZ73/0Y1dDr5zDpv8A2GNM/wDS6ChiPe9E/wCPOT/r5uP/AEc9Xh1NUdE/485P+vm4/wDRz1eHU0DFooooAKKKKACiiigAooooAKKKKACiiigAqjrX/HnH/wBfVt/6OSr1Uda/484/+vq2/wDRyUAedfCIf6V4u/7D+of+ltxV/W/+SgeGP+wwv/ps1GqHwi/4+vF3/Yf1D/0tuKv63/yUDwx/2GF/9Nmo0xnolFFFIQUUUUAFFFFABRRRQAUUUUAFFFFAHDaX/rviZ/2Ev/cVZVV+Kn/Iv2//AF9r/wCgPVrS/wDX/Ez/ALCX/uKsqq/FT/kX7f8A6+1/9AeunB/x4epzYv8Agy9DP+D/APyA0/7D1x/6TtXomv8A/IC1H/r1l/8AQDXnfwf/AOQGn/YeuP8A0navRNf/AOQFqP8A16y/+gGs6/8AFl6v8zSj/Dj6Iv0UUVkahRRRQAYooooAMUUUUAGAaMCiigAxRgUUUAGB6UYFFFABVDTv+PzVf+vpf/RMVX+9UNO/4/NV/wCvpf8A0TFQAT/8hu0/69Z//Qoq8T+F/wAV/A/h7w9cWOq+JtPs7lbyUmKWTBHQf0r2yf8A5Ddp/wBes/8A6FFXjHws+GfgvXvD1xear4X0m+uWvZQ009urseh6n61rD4WZv4kVPiz8TvBmsfDPxRBp/iOwuZNQshbWqo+TNIkrMyr7hZEJ/wB4V674UdZPCuiuhDK2n2xBHceUteL/AB6+H3hLQvhN4mn0zw9ptnLZLazWzwwBTC8t4Edl9CyIqn2UV7R4SVY/CeioowF0+3AHsIlrGSNDxO8tIL61e2uE3I4A4OCPcHse+fUCtm18c+MrO3S1TXorhYwFWS5tFeUj3YFQfrjPrmspzkk1VbUbGJisl7aow6gyrkfhmvgMPi69G8aDP0fEYOhWtKurnSj4ieNcf8hex/8AAAf/ABVL/wALE8a/9Bew/wDAAf8AxVcx/a2nf8/1r/39Wl/tbTv+f61/7+rXV/aWP7v7l/kcf9mYD+Vfe/8AM6b/AIWJ41/6DFh/4AD/AOKo/wCFieNf+gxYf+AA/wDiq5j+1tO/5/7T/v6v+NH9rad/z/2n/f1f8aP7Sx/d/cv8g/szAfyr73/mdP8A8LE8a/8AQYsP/AAf/FUf8LE8a/8AQYsP/AAf/FVzH9rad/z/ANp/39X/ABo/tbTv+f8AtP8Av6v+NH9pY/u/uX+Qf2ZgP5V97/zOn/4WJ41/6DFh/wCAA/8AiqP+FieNf+gxYf8AgAP/AIquY/tbTv8An/tP+/q/40f2tp3/AD/2n/f1f8aP7Sx/d/cv8g/szAfyr73/AJnT/wDCxPGv/QYsP/AAf/FUf8LE8a/9Biw/8AB/8VXMf2tp3/P/AGn/AH9X/Gj+1tO/5/7T/v6v+NH9pY/u/uX+Qf2ZgP5V97/zOn/4WJ41/wCgxYf+AA/+Ko/4WJ41/wCgxYf+AA/+KrmP7W07/n/tP+/q/wCNH9rad/z/ANp/39X/ABo/tLH939y/yD+zMB/Kvvf+Z0//AAsTxr/0GLD/AMAB/wDFUf8ACxPGv/QYsP8AwAH/AMVXMf2tp3/P/af9/V/xo/tbTv8An/tP+/q/40f2lj+7+5f5B/ZmA/lX3v8AzOn/AOFieNf+gxYf+AA/+Ko/4WJ41/6DFh/4AD/4quY/tbTv+f8AtP8Av6v+NH9rad/z/wBp/wB/V/xo/tLH939y/wAg/szAfyr73/mdP/wsTxr/ANBiw/8AAAf/ABVH/CxPGv8A0GLD/wAAB/8AFVzH9rad/wA/9p/39X/Gj+1tO/5/7T/v6v8AjR/aWP7v7l/kH9mYD+Vfe/8AM6f/AIWJ41/6DFh/4AD/AOKo/wCFieNf+gxYf+AA/wDiq5j+1tO/5/7T/v6v+NH9rad/z/2n/f1f8aP7Sx/d/cv8g/szAfyr73/mdP8A8LE8a/8AQYsP/AAf/FUf8LE8a/8AQYsP/AAf/FVzH9rad/z/ANp/39X/ABo/tbTv+f8AtP8Av6v+NH9pY/u/uX+Qf2ZgP5V97/zOn/4WJ41/6DFh/wCAA/8AiqP+FieNf+gxYf8AgAP/AIquY/tbTv8An/tP+/q/40f2tp3/AD/2n/f1f8aP7Sx/d/cv8g/szAfyr73/AJnT/wDCxPGv/QYsP/AAf/FUf8LE8a/9Biw/8AB/8VXMf2tp3/P/AGn/AH9X/Gj+1tO/5/7T/v6v+NH9pY/u/uX+Qf2ZgP5V97/zOn/4WJ41/wCgxYf+AA/+Ko/4WJ41/wCgxYf+AA/+KrmP7W07/n/tP+/q/wCNH9rad/z/ANp/39X/ABo/tLH939y/yD+zMB/Kvvf+Z0//AAsTxr/0GLD/AMAB/wDFUf8ACxPGv/QYsP8AwAH/AMVXMf2tp3/P/af9/V/xo/tbTv8An/tP+/q/40f2lj+7+5f5B/ZmA/lX3v8AzOn/AOFieNf+gxYf+AA/+Ko/4WJ41/6DFh/4AD/4quY/tbTv+f8AtP8Av6v+NH9rad/z/wBp/wB/V/xo/tLH939y/wAg/szAfyr73/mdP/wsTxr/ANBiw/8AAAf/ABVH/CxPGv8A0GLD/wAAB/8AFVzH9rad/wA/9p/39X/Gj+1tO/5/7T/v6v8AjR/aWP7v7l/kH9mYD+Vfe/8AM6f/AIWJ41/6DFh/4AD/AOKo/wCFieNf+gxYf+AA/wDiq5j+1tO/5/7T/v6v+NH9rad/z/2n/f1f8aP7Sx/d/cv8g/szAfyr73/mdP8A8LE8a/8AQYsP/AAf/FUf8LE8a/8AQYsP/AAf/FVzH9rad/z/ANp/39X/ABo/tbTv+f8AtP8Av6v+NH9pY/u/uX+Qf2ZgP5V97/zOn/4WJ41/6DFh/wCAA/8AiqP+FieNf+gxYf8AgAP/AIquY/tbTv8An/tP+/q/40f2tp3/AD/2n/f1f8aP7Sx/d/cv8g/szAfyr73/AJnTf8LE8a/9Baw/8AB/8VR/wsTxr/0FrD/wAH/xVc1/aunf8/1t/wB/V/xqSC9tbl9sFzDKw6hXB/lS/tPHbuT+5f5Ff2VgNlFfe/8AM9K8CQXXiKV/EWvXr6hf20jQWoKKkVqpVS2xB/E2cFiSccAgEg73jzxPpPgrRbXXtbuDbafaXKmaURs5XcjoOFBJ5cdqy/hlgaLc/wDXyf8A0Ba5j9rD/kieof8AXza/+jBX1uBqSqUIznu0fG46EYV5wjsmfN03xdt9B1LxRqOhSR3Mmp+Jbi9iSaJgsto5c57FTkpx19q7PRPi3onjQ6TYKktlqTavppFvJ8wfF5CTtYcHABPOD7V0njX4b6P4u03SrRkjsI447O4le1hVZJR9mAK7scZLZzz0qKPwhofhOy02HR9PitydX0wNJjMkn+nQfeY8n6dK6zkPpXRf+POT/r6uf/Rz1fqhov8Ax5yf9fVz/wCjnq/SAKKKKACiiigAooooAKKKKACiiigAooooAKo61/x5x/8AX1bf+jkq9VHWv+POP/r6tv8A0clAHnPwk/4+vF3/AGHtQ/8AS24rQ1v/AJH/AMM/9hdf/TbqFZ/wk/4+vF3/AGHtQ/8AS24rQ1v/AJH/AMM/9hdf/TbqFAHolFFFABRRRQAUUUUAFFFFABRRRQAUUUUAcNpf+v8AiZ/2Ev8A3FWVVfip/wAi/b/9fa/+gPVrS/8AX/Ez/sJf+4qyqr8VP+Rft/8Ar7X/ANAeunB/x4epzYv+DL0M/wCD/wDyA0/7D1x/6TtXomv/APIC1H/r1l/9ANed/B//AJAaf9h64/8ASdq9E1//AJAWo/8AXrL/AOgGs6/8WXq/zNKP8OPoi+KKBRWRqFFFFABRRRQAUUUUAFFFFABRRRQAUUUUAHeqGnf8fmq/9fS/+iYqv96oad/x+ar/ANfS/wDomKgAm/5Ddp/17T/+hxVwHwXH/FITf9fsv8lrv5v+Q3af9e0//ocVcB8F/wDkUJf+v2X+S1rD4GZy+JGD+0dx8HvGA9YLD/0vr0jwvx4Y0b/rwt//AEUteb/tHc/B7xgf+mFh/wCl5rU174q6L8MvCHha71hJZLW8ggt2kt8MYT5IILL1I4PTn2rJmhws9k+q3enaWszwJf30FrNIhIdY2cb9pHIYrkA9ic9q9707wj4f0izis7HRtPt4IhtREt1AH6cn3PJrwDwvrmna7rXh66028iuYjqttyjcj5u46g+xr6W4rxMihyUZKSs7/AKI93iCrz142d1Zfmyj/AGHpX/QMsv8Avwv+FH9h6V/0DLL/AL8L/hV2jNe1ZHhFL+w9K/6Bll/34X/Cj+w9K/6Bll/34X/CruaM0WQyl/Yelf8AQMsv+/C/4Uf2HpX/AEDLL/vwv+FXc0ZosgKX9h6V/wBAyy/78L/hR/Yelf8AQMsv+/C/4VdzRmiyApf2HpX/AEDLL/vwv+FH9h6V/wBAyy/78L/hV3NGaLICl/Yelf8AQMsv+/C/4Uf2HpX/AEDLL/vwv+FXc0ZosgKX9h6V/wBAyy/78L/hR/Yelf8AQMsv+/C/4VdzRmiyApf2HpX/AEDLL/vwv+FH9h6V/wBAyy/78L/hV3NGaLICl/Yelf8AQMsv+/C/4Uf2HpX/AEDLL/vwv+FXc0ZosgKX9h6V/wBAyy/78L/hR/Yelf8AQMsv+/C/4VdzRmiyApf2HpX/AEDLL/vwv+FH9h6V/wBAyy/78L/hV3NGaLICl/Yelf8AQMsv+/C/4Uf2HpX/AEDLL/vwv+FXc0ZosgKX9h6V/wBAyy/78L/hR/Yelf8AQMsv+/C/4VdzRmiyApf2HpX/AEDLL/vwv+FH9h6V/wBAyy/78L/hV3NGaLICl/Yelf8AQMsv+/C/4Uf2HpX/AEDLL/vwv+FXc0ZosgKX9h6V/wBAyy/78L/hR/Yelf8AQMsv+/C/4VdzRmiyApf2HpX/AEDLL/vwv+FH9h6V/wBAyy/78L/hV3NGaLICl/Yelf8AQMsv+/C/4Uf2HpX/AEDLL/vwv+FXc0ZosgKX9h6V/wBAyy/78L/hR/Yelf8AQMsv+/C/4VdzRmiyApf2HpX/AEDLL/vwv+FH9h6V/wBAyy/78L/hV3NGaLIRS/sTTO2m2X/fhf8ACua8feAdD1/w5eKbG2tb23iee0vIYlWW2lVSQ6kD2wR0YEggg12XaqWuf8ga/P8A07S/+gmhoFdanDfCOZrnww07/elmDkD3jQ1g/tX8/BLUM/8APxa/+jFq98IdW0+DwjGkt/ao29eGlUY/dp71kftS6jZXfwV1FLe8t5mFxakiKQMQPNXniuXA6YeCOvH64ib8yGT/AFFl/wBeNp/6IjrI17/VaZ/2GNL/APS2GteT/UWP/Xjaf+iI6yddXMOnH+7q2msfoL2E11nIe96KP9Fk/wCvm5/9HPV4VjaZq2nWsEsU9/aRSLc3GUeZVYZmc9Cat/29pH/QUsf+/wCn+NAF+iqP9vaT/wBBSx/8CE/xo/t7Sf8AoKWP/gQn+NAF6iqP9vaT/wBBSx/8CE/xo/t7Sf8AoKWP/gQn+NAF6iqP9vaT/wBBSx/8CE/xo/t7Sf8AoKWP/gQn+NAF6iqP9vaR/wBBSx/7/p/jR/b2kf8AQUsf+/6f40AXqKo/29pH/QUsf+/6f40f29pH/QUsf+/6f40AXqKo/wBvaR/0FLH/AL/p/jR/b2kf9BSx/wC/6f40AXqoa1/x5x/9fVv/AOjkpf7e0j/oKWP/AH/T/Gqmp6tp11bxRW9/azSNdW+EjlVif3yHoD7GgDhPhJ/x9eLv+w9qH/pbcVoa3/yP/hn/ALC6/wDpt1Cs34PuJZPFUq/dk1y/cfQ3txWlrf8AyP8A4Z/7C6/+m3UKAPRKKKKACiiigAooooAKKKKACiiigAooooA4bS/9b8S/+wn/AO4qyqp8U/8AkXrb/r7X/wBAerel/wCt+Jf/AGE//cVZ1U+Kn/IvW3/X0v8A6A9dOE/jw9Tmxf8ABl6GP8ItSt49JuYp5Eg+xeIJUkaRwF+e0Dqc56EOB9Qa7/Wtc0qTR7+JNTsmdreRQqzKSSVPAGeTXinhLxXJ4E8RtqcqSS6TexrBqCJktDtJ2The4XcwYAZwQf4cH3G91Gz1bwtd3+n3UN3aT2ckkU8Lh0kUocEMOCKeNoyp1pJhhKinSTRZ/t7SP+gpY/8AgQn+NH9vaT/0FLH/AMCE/wAavUVynSUf7e0n/oKWP/gQn+NH9vaR/wBBSx/8CE/xq9RQBn/2/pH/AEFbD/wIT/Gj+39I/wCgrYf+BCf41oZozQIz/wC39I/6Cth/4EJ/jR/b+kf9BWw/8CE/xrQzRmgDP/t/SP8AoK2H/gQn+NH9v6R/0FbD/wACE/xrQzRmgDP/ALf0j/oK2H/gQn+NH9v6R/0FbD/wIT/GtDNGaAM/+39I/wCgrYf+BCf40f2/pH/QVsP/AAIT/GtDNGaBlAa/pH/QVsP/AAIT/GqdjrelJdakzanZAPcKykzqAw8qMZHPIyD+RrbzVDT/APj81T/r6X/0TFQBWGp2N1rMDW95bzCO1nLmKQNtG6Lrjp0NcH8Crlb3wIl2iuiXE7TKr43BWRGGcd8Gm/Fn4gwy2d54Q0G5WXUblDDfXETEiwiYfMCw6SspwFzld248AA6HwnRY/Dc0a/dS5Kge2xK6o0pKi6j2ujmlUXtVBbmxrHhTSvG9rqmga3btcaddQQebGsjIW23Erj5lII5UdDXjvxH/AGS9B1GHT7bwRbxaPKbjN5cXNzLKBDtP3VYnLZx6fUV71pRzqd3/ANcI/wD0bPVq5/1xHtXMzpR8tfD34c6P4M8RaBLamS4vH1O3SSeRjyN3QL0Az9T719YV85i9g0zVdFvbpvKtoNTtnmk7RqZANx9ACeT2HNfRmQQCDkGvHyerOrRlObu7v8kezntCFGvGNNWXKvzYtGKAaM16x4wYoxRmjNGoBijFGaM0agGKMUZozRqAYoxRmjNGoBijFGaM0agGKMUZozRqAYoxRmjNGoBijFGaM0agGKMUZozRqAYoxRmjNGoBijFGaM0agGKMUZozRqAYoxRmjNGoBijFGaM0agGKMUZozRqAYoxRmjNGoBijFGaM0agGKMUZozRqAUUZozQFwqjrf/IF1D/r2k/9BNXs1k+LNQttL8Mate3cqxQQ2krOx7fKfzJ6AdzTYbs8F+HX7P8A8PPE+gLqGqaJJNcOwLMLuZM5RT0DY6k11037Nvwz0yOKC20KZY9QItrhTeznfGB5uPv8fPEh49Petj4OxtF4URHGGRwpHuI0rt9U/wBbpf8A18n/ANFSVz4ObnRjKR1Y2KjXkkrHl3iW1hsdZmtLdNkMCRRRrknCrEoAyfYVg6pYDVNOuLIyvCZkIWWPh42/hZT6g4P1FdH4w/5GS8/4B/6AtY/eug5T0L4ffEK38U2q6dqTR2fiG3XbdWb/AC+bj/ltFn78bdQRnbnBwRiuzwP7teAX+l2WqRol7axTiNg6F1yUYdGU9QfcVX/sGLompeIEXsqa3eqB9AJcAe1AH0Pgf3aUV87/APCPw/8AQV8R/wDg8vf/AI7R/wAI/D/0FvEf/g9vf/jtAH0QQM9BSivnX+wIv+gr4j/8H17/APHaP7Ai/wCgr4k/8H17/wDHaAPoj5cngUvBNfOp0GL/AKCviT/we3v/AMerL1a40TQr3T7LUfEHiWC41KTybRP7Z1BvNfKjGRIQOWXrjr9aAPp7Az0FLXzr/wAI/F/0FfEf/g9vf/jtA0CP/oK+I/8Awe3v/wAdoA+iQFz0GaWvnQ+H48/8hXxJ/wCD29/+O0f8I/H/ANBXxH/4Pb3/AOO0AfRW0Z6ClNfOv/CPxf8AQV8R/wDg9vf/AI7R/wAI/H/0FfEf/g9vf/jtAH0QQuegzXHfED4iWvhW2bT7Ax3viC5Gy2s0O4xZ/wCW039yNeuTjdjAyTXk40CMEH+1PETY7Nrd4wP1Blwatafplnpcbx2VrFAHcyPsXBdiclmPUkk9TQB2nwns2sbC5t3leZ0SENK+N0jfNlzjHJOSfrVnW/8Akf8Awz/2F1/9NuoU74d/8xD/ALZf+z03W/8Akf8Awz/2F1/9NuoUAeiUUUUAFFFFABRRRQAUUUUAFFFFABRRRQBw+l/674l/9hP/ANxVnVT4p/8AIvW3/X2v/oD1a0v/AF3xL/7Cf/uKs6q/FP8A5F62/wCvtf8A0B66cJ/Hh6nNi/4UvQ8rIqHTtOjstQW4sJrqwaWUGZbS4eFJ84B8xFIV8gD7wNT96fbH/SIv+ugr6atTjODUlc+cpVJRkuV2H/2v4g/6GfXv/A1qP7X8Qf8AQz69/wCBrVDRULC0v5F9xp9Zq/zP7yb+1/EH/Qz69/4GtR/a/iD/AKGfXv8AwNaoaKPqtH+RfcH1mr/M/vJ/7Y17/oZtf/8AAxqP7Y17/oZtf/8AAxqgoqvq9H+RfcV9Zq/zP7yf+2Ne/wChm1//AMDGo/tjXv8AoZtf/wDAxqgoo+r0f5F9wfWav8z+8n/tjXv+hm1//wADGo/tjXv+hm1//wADGqCij6vR/kX3B9Zq/wAz+8n/ALY17/oZtf8A/AxqP7Y17/oZtf8A/Axqgoo+r0f5F9wfWav8z+8m/tjX/wDoZde/8DWo/tjX/wDoZde/8DWqGij6vR/lX3B9Zq/zP7yb+2Nf/wChl17/AMDWqPUH1DUIoUutd1uWMje6C/lQTNkjL7SN3AAweMAU3FSSfci/3f8A2Y1nPD0rx91b9vJh9Zq2fvP7/NFWzs7awgS3tYI4IU4WONQoH4CvWPhWP+JBcf8AX23/AKAleW969S+Ff/IAuP8Ar7b/ANASubMlaj8zfLm3WuzrtK/5Cd1/1wj/APRs9Wbj/Wmq2lf8hS7/AOuEf/o2erNx/rDXzzPfR8/yIkilJFV0ZcMrDIIPUEU2yOo6ZbC20/X9ctbZT8kKX0hSMf3VBJ2r7Dgdqeeo+lKRX5xTr1KTfJJr0dj9Nq4anWS9pFP1VyT+0tc/6GfXv/A1qP7R13/oZ9e/8DWqLBowa2+v4j/n4/vZh/ZuG/59x+5Ev9o67/0M+vf+BrUf2jrv/Qz69/4GtUWDRg0f2hiP+fj+9h/ZuG/59x+5Ev8AaOu/9DPr3/ga1H9o67/0M+vf+BrVFg0YNH9oYj/n4/vYf2bhv+fcfuRL/aOu/wDQz69/4GtR/aOu/wDQz69/4GtUWDRg0f2hiP8An4/vYf2bhv8An3H7kS/2jrv/AEM+vf8Aga1H9o67/wBDPr3/AIGtUWDRg0f2hiP+fj+9h/ZuG/59x+5Ev9o67/0M+vf+BrUf2jrv/Qz69/4GtUWDRg0f2hiP+fj+9h/ZuG/59x+5Ev8AaOu/9DPr3/ga1H9o67/0M+vf+BrVFg0YNH9oYj/n4/vYf2bhv+fcfuRL/aOu/wDQz69/4GtR/aOu/wDQz69/4GtUWDRg0f2hiP8An4/vYf2bhv8An3H7kS/2jrv/AEM+vf8Aga1H9o67/wBDPr3/AIGtUWDRg0f2hiP+fj+9h/ZuG/59x+5Ev9o67/0M+vf+BrUf2jrv/Qz69/4GtUWDRg0f2hiP+fj+9h/ZuG/59x+5Ev8AaOu/9DPr3/ga1H9o67/0M+vf+BrVFg0YNH9oYj/n4/vYf2bhv+fcfuRL/aOu/wDQz69/4GtR/aOu/wDQz69/4GtUWDRg0f2hiP8An4/vYf2bhv8An3H7kS/2jrv/AEM+vf8Aga1H9o67/wBDPr3/AIGtUWDRg0f2hiP+fj+9h/ZuG/59x+5Ev9o67/0M+vf+BrUf2jrv/Qz69/4GtUWDRg0f2hiP+fj+9h/ZuG/59x+5Ev8AaOu/9DPr3/ga1H9o67/0M+vf+BrVFg0YNH9oYj/n4/vYf2bhv+fcfuRL/aOu/wDQz69/4GtR/aOu/wDQz69/4GtUWDRg0f2hiP8An4/vYf2bhv8An3H7kS/2jrv/AEM+vf8Aga1H9o67/wBDPr3/AIGtUWDRg0f2hiP+fj+9h/ZuG/59x+5Ev9o67/0M+vf+BrUf2jrv/Qz69/4GtUWDRg0f2hiP+fj+9h/ZuG/59x+5Ev8AaOu/9DPr3/ga1H9o67/0M+vf+BrVFg0YNH9oYj/n4/vYf2bhv+fcfuRJ/aOu/wDQ0a9/4GtQNR13/oaNe/8AA1qjwaMGj+0MR/z8f3sP7Nw3/PtfciT+0dd/6GbXP/A5qrXcNzqkkLanqWpaiIG3RR3d08kaN/e2E7SwxwSMjtiptp9KAKmWOrtWc397Khl2Hi1KMFf0R6V8Mv8AkC3H/Xyf/QVrrNV+9pX/AF8f+0ZK5P4Z/wDIFuP+vk/+grXWar97Sv8Ar4/9oyV9rlv+6w9D4XM/96qep5v4w/5GS8/7Z/8AoC1jVs+MP+Rku/8Atn/6AtYtd5whSUUUALRSUUALSUUGgAryz4tn/itfh7gn/kJf+1YKD+zv4V/6CGt/9/ov/jdcZ44+FWieGfEPhfTbS61F4tYuzBO0siFlXfGuVwgwcOeue1ID6HzS15V/wzx4V/6CGt/9/ov/AI3XfeGPD1p4U0W30exeZ7e337GmYFzuYsckADqx7UwNeikHNLQAUUUUAFFFFAHafDvpf/8AbL/2am63/wAj/wCGf+wuv/pt1CnfDvpf/wDbL/2am63/AMj/AOGf+wuv/pt1ChgeiUUUUgCiiigAooooAKKKKACiiigAooooA4XS/wDXfEv/ALCX/uKs6rfFP/kX7b/r6X/0B6s6WP33xL/7CX/uKs6rfFT/AJF62/6+1/8AQHrpwf8AHh6nPi/4Mjyee5htIXnuJUiijBZnc4Cj3Namj+GfFOrWo1W30QWunRkTNNqMpt3eMDJaOPazE46BwmfbrVj4faNb694ol1C/tXvLTRpo4ra2jKES3jRmTc4YgYjQAgE9XBxlRXses3ty+jXwbSruMG2kUsWiwo2nnhzwK9HG4+UZunTODBYJOKnUR5D/AMKp+I//ADw8Jf8Ag0uP/kal/wCFU/Ef/n38Jf8Ag0uP/kavav7RuQozo99/33D/APHKBqNz/wBAe+/76h/+OVw/2hiP5vwR1/UKH8v4s8V/4VT8R/8An38Jf+DS4/8Akaj/AIVT8R/+ffwl/wCDS4/+Rq9r/tG5/wCgPff99Q//AByj+0bn/oD33/fUP/xyn/aGI/m/BB9Qofy/i/8AM8T/AOFWfEf/AJ9/CX/g0uP/AJGo/wCFWfEf/n38Jf8Ag0uP/kava/7QuP8AoDX3/fcP/wAco/tC4/6A19/33D/8cpf2hX/m/Bf5D+oYf+X8WeKf8Ks+I/8Az7+Ev/Bpcf8AyNR/wqz4j/8APv4S/wDBpcf/ACNXtf8AaFx/0Br7/vuH/wCOUf2hcf8AQGvv++4f/jlH9oYj+b8F/kH1DD/y/izxT/hVnxH/AOffwl/4NLj/AORqP+FWfEf/AJ9/CX/g0uP/AJGr2v8AtC4/6A19/wB9w/8Axyj+0Lj/AKA19/33D/8AHKP7QxH834L/ACD6hh/5fxZ4p/wqz4j/APPv4S/8Glx/8jUf8Ks+I/8Az7+Ev/Bpcf8AyNXtf9oXH/QGvv8AvuH/AOOUf2hcf9Aa+/77h/8AjlH9oV/5vwX+QfUMP/L+LPFP+FU/Ej/n38Jf+DS4/wDkag/Cn4kf8+/hL/waXH/yNXtf9oXP/QHvv++4f/jlB1G6/wCgPff99w//AByj+0MR/N+CD6hQ/l/F/wCZ4p/wqr4k/wDPv4S/8Glx/wDI1DfDjx0+BFZ6FK1t+6uEj1GTO/7/AMm6EBhtdeSV5yOgyfbP7Ruf+gPff99w/wDxyqVlf3EdzqRGlXjbrkEhWi+X91GMHL+2ePWj+0MR/N+CD6hQ/l/FngHmT295Lp9/Z3On6jEA0lpcqA4HqpBKuvbcpIz3r1b4V/8AIAuB/wBPbf8AoCU/4l+Hf+Eu0ZUi0y5tNat98mmXMhj4lCF/KYqzHY4QqRg9j1ANVPg3eRan4SF7Bny7ibzUz1wY0P8AWuiti/b4dp7po56WEVCunHZ3O10r/kJ3X/XCP/0bPVu4/wBY34VU0r/kJ3X/AFwj/wDRs9W5/wDWmvLZ6aPnq6u7exhM91PFBEoy0krhVH4msj/hNvDf/QwaZ/4EJ/jXoHws8OWGueKdT1PU7eK6OlRwx2Uci7lhkfeXkweN2Aqg4yAGx9417N9OBXy2EyOFWlGpOW/Y+txufSoVpUqcb2Plr/hN/DP/AEH9M/8AAlP8aX/hN/DP/Qf0z/wJT/GvqWiun/V6j/M/wOT/AFkrfyI+Wv8AhN/DP/Qf0z/wJT/Gj/hN/DP/AEH9M/8AAlP8a+paKP8AV6j/ADP8A/1krfyI+Wv+E38M/wDQf0z/AMCU/wAaP+E38M/9B/TP/AlP8a+paKP9XqP8z/AP9ZK38iPlr/hN/DP/AEH9M/8AAlP8aP8AhN/DP/Qf0z/wJT/GvqWij/V6j/M/wD/WSt/Ij5a/4Tfwz/0H9M/8CU/xo/4Tfwz/ANB/TP8AwJT/ABr6loo/1eo/zP8AAP8AWSt/Ij5a/wCE38M/9B/TP/AlP8aP+E38M/8AQf0z/wACU/xr6loo/wBXqP8AM/wD/WSt/Ij5a/4Tfwz/ANB/TP8AwJT/ABo/4Tfwz/0H9M/8CU/xr6loo/1eo/zP8A/1krfyI+Wv+E38M/8AQf0z/wACU/xo/wCE38M/9B/TP/AlP8a+paKP9XqP8z/AP9ZK38iPlr/hN/DP/Qf0z/wJT/Gj/hN/DP8A0H9M/wDAlP8AGvqWij/V6j/M/wAA/wBZK38iPlr/AITfwz/0H9M/8CU/xo/4Tfwz/wBB/TP/AAJT/GvqWij/AFeo/wAz/AP9ZK38iPlr/hN/DP8A0H9M/wDAlP8AGj/hN/DP/Qf0z/wJT/GvqWij/V6j/M/wD/WSt/Ij5a/4Tfwz/wBB/TP/AAJT/Gj/AITfwz/0H9M/8CU/xr6loo/1eo/zP8A/1krfyI+Wv+E38M/9B/TP/AlP8aP+E38M/wDQf0z/AMCU/wAa+paKP9XqP8z/AAD/AFkrfyI+Wv8AhN/DP/Qf0z/wJT/Gj/hN/DP/AEH9M/8AAlP8a+paKP8AV6j/ADP8A/1krfyI+Wv+E38M/wDQf0z/AMCU/wAaP+E38M/9B/TP/AlP8a+paKP9XqP8z/AP9ZK38iPlr/hN/DP/AEH9M/8AAlP8aP8AhN/DP/Qf0z/wJT/GvqWij/V6j/M/wD/WSt/Ij5a/4Tfwz/0H9M/8CU/xo/4Tfwz/ANB/TP8AwJT/ABr6loo/1eo/zP8AAP8AWSt/Ij5a/wCE38M/9B/TP/AlP8aP+E38M/8AQf0z/wACU/xr6loo/wBXqP8AM/wD/WSt/Ij5a/4Tfwz/ANB/TP8AwJT/ABo/4Tfwz/0H9M/8CU/xr6loo/1eo/zP8A/1krfyI+Wv+E38M/8AQf0z/wACU/xo/wCE38M/9B/TP/AlP8a+peaOaf8Aq9R/mf4f5D/1lrfyL8T5a/4Tfwz/ANDBpn/gSn+NOTxr4adgia7prO3AH2lOf1r6jpk0EdxGY5kWSNuGRgCG/Ol/q9R/mf4f5B/rLW/kX4nA/DBg+hyspBVrhiCDkEbVrrdV+9pP/Xwf/RMlcv4O0e38Na74i0LTkWDTYpoby2t1GFthLHho1HZd0ZYDoN2BwAK6fVfvaT/18H/0TJXsYaj7GlGle9jw8RWVarKrtdnm/jH/AJGO8/4B/wCgLWMOtbPjH/kY7z/gH/oC1zl19surqx0nS2jXUtSnFvA0illjABZ5CB1CorNjjJAGRmukwGanrOm6OiyajqFpZof4riVU/LNZv/Cf+Ef+hn0b/wAC0/xr3Dwh8PdC8GwA2dsLi/dR9o1G5Ae5uG65Z+wyThRhVzwBXTYHpQB8z/8ACf8AhH/oZtI/8Ck/xo/4T/wj/wBDNpH/AIFp/jX0xxRxSA+Z/wDhYHhL/oZdI/8AAtP8aP8AhYHhL/oZdI/8C0/xr6Y/KigD5o/4T/wj/wBDLo//AIFp/jXGeObzQfE3iHwrqVn4r8Oxw6PdmedZr0BmXfE2EwCCcIepHavsrmigD5o/4T/wj/0M2j/+Baf40f8ACf8AhH/oZtH/APAtP8a+l+KOKAPmj/hYHhH/AKGbR/8AwLT/ABo/4WB4R/6GXR//AALT/GvpfijigD5o/wCFgeEf+hl0f/wLT/Gj/hYHhH/oZdH/APAtP8a+l+KOKAPmyHxx4XuZBFB4i0qSVvuqt0mT+tbasHUMpBBGQQcg17ncWsF3E0NxDHNE3DJIoZT9Qa8d8feBYPAbxa5oCC30KSRIL7TlB8u1Lnak0IH3F3FVZB8uDuGMNuYHS/Drpf8A/bP/ANnput/8j/4Z/wCwuv8A6bdQo+HP/MQ/7Zf+z0a3/wAj/wCGf+wuv/pt1ChgeiUUUUgCiiigAooooAKKKKACiiigAooooA4bS/8AXfEv/sJ/+4qzqp8VP+Rftv8Ar7X/ANAerel/674l/wDYT/8AcVZ1V+Kv/IvW3/X2v/oD104P+ND1OfFfwZehgfBD/j21b/sZ3/8ATbFXqmvf8gPUf+vaX/0A15V8D+bbVv8AsZ3/APTbDXqmv/8AIC1H/r2l/wDQDUYj+NP1ZWH/AIUfRF/NGaBSd6xNhc0UUcUAJRRRQIKKKKACiiigAooooAWkpTSUAFUdN/4/NU/6+l/9ExVeqjp3/H5qn/X0v/omKgBdR/4/NL/6+m/9Ey1598FP3fhJ/a9lXHp90V6BqJ/0zS/+vpv/AETLXn/wV/5FKb/r+l/pWsPhkvQzn8cfmdxpfOq3n/XGP/0bPWR4n+IPhrwtr1jo+t6rDp9xqCF7Zrg7Y3wQCN/QHkYyRmuB+P15f2nhFhpuo3mmzz31hbm4tJmikCvPOpww5715j8Vf2afF2o+ItJsdE1vWvEUTxSGe+1y73R2fIwAxyefRQT04qGao9l+CrK+oeJGVgysbUgg5BBV+a9UrwT9l/wAHTeEm8QW82rXV4VW2Uxk4hXIc5VTkgjp1/Cve8VyYOMVQgou6tudONlKVebkrO+wGiiiug5wooooAKKKKACiiigAooooAKKKKACiiigAooooAKKKKACiiigAooooAKKKKACiiigAooooAKKKKACiiigAooooAKKKKACiiigAooooAKUUlKKAOFm1fTtE8V+J7/VL+0sLSOGxD3F1MsUa5EgGWYgDJIH40XvxL8DXX2N4PGnhuVLWTzZ3j1KFhEnlsm5iG4G51XJ7sB3qPUfDuleKvEnifSdasYr6xmhsTJBJna23ewzgjoQD+FULr4IfDqxW2itvCenRx3j+RcKA2JIwrSYPP9+ND/wABpkpmFreuaT4h1i8vNG1Oy1K13Knn2c6ypuCLkblJGfak8D/N8VtIUk7V0nUHA7bhJajP5MfzNebfCS2hsrTxNbW8Yjih8QXcaIOiqAgA/KvSPA+f+Fr6T/2B9Q/9G2lMZ6loui6ZLo9hJJp1m7vbxszNCpJJUZJOKuf2DpH/AEC7H/vwn+FJoHOhad/16xf+gCr9ICj/AGDpH/QLsf8Avwn+FH9g6R/0C7H/AL8J/hV6igCj/YOkf9Aux/78J/hR/YOkf9Aux/78J/hV6igCj/YOkf8AQLsf+/Cf4Uf2DpH/AEC7H/vwn+FXqKAKP9g6R/0C7D/wHT/Cj+wdI/6Bdh/4Dp/hV6igCj/YOkf9Auw/8B0/wo/sHSP+gXYf+A6f4VeooAo/2DpH/QLsP/AdP8KP7B0j/oFWP/gOn+FXqKAKP9g6R/0C7H/wHT/CuN+JljbWvgXx2ltbxW6r4ellCxIFG5Y5yDx3+UflXoFcN8Uv+RI8ff8AYtT/APoq4oApfDQ7o74nuIj/AOhU7W/+R/8ADP8A2F1/9NuoUz4Zf6m9/wB2H+TU/W/+R/8ADP8A2F1/9NuoU2B6JRRRSAKKKKACiiigAooooAKKKKACiiigDhtL/wBd8TP+wn/7irKqvxU/5F+3/wCvtf8A0B6taX/rviZ/2E//AHFWVVfip/yL9v8A9fa/+gPXThP40fU5sZ/Bl6GB8EP+PfVv+xok/wDTZDXqevf8gPUf+vWX/wBANeWfBD/j31b/ALGiT/02Q16nr3/ID1H/AK9Zf/QDU4j+LL1ZdD+FH0Qmsa7YaBbG51CWSKEKzs6wvIFVRkk7QcADuayNR+IGkadqOm2cguSL8Owk8h1EYWPfkggHkenIqH4jyLDoKyXF7FaWUcoluPNiLpKqAsEb5lwpZVHvnb3rznXCbzWPDL3DW32yaKc3CxrCIxKbc7gNxJA3Z+90rn1s2bHrl54o0208Mv4kWYzaeLf7TGyA5lUjKhQcEs2QAOpJArLuPiNotvY2tyZN73DQqYkdT5e/OSXzswgDFsMeB7iquh+H7Ky8F6XBpDwxLpsYfcYQyvKi4LMowC24Zz68jsa47SdeGlDQZZNShNteaZLdT+TbCRbF5pIML1JVWeVs5yeR2HDlu7f1u/0Entc9NufFGnQ6JqGsQym6tbCF5pDCMlgqbztJwDkd84qPVvFtjpNsrsrSz5ti1srKJUWeYRKxGcY3E9/4TXISwNdfARCtzLa7fDxkcW+0Zzbk7fmBwOe2Dx1rmdej2Xeoedrs+owrHooJg27zu1FvkZly2V7bSp9uBWnJ7/L5lqOn9d1/me1ahf22lWFxfXkqw21vG0kjt0VQMmuOm+K1rBdW1tJ4b8QiW53eWPLg52jJ/wCW3pVfw39kXwXr0qWoMIury6SC9t2U4EjMjNHIA3VQRuHbNcXYXOn6m6oPOluM7JUGk3gxM8SyMpAiPOwgjk8c1kr/AJfiT/wfwPW/Dnia28SQTeXG9vdW7BZ7aQgvCTyucZHIweD3rKm+JFhDqWoaf9gumksJ/s8jG5tYgzbFbKiSZWxhxzgd6i+Geqw3XhuQq7NHBI/7xbZ44tuSMKzIhfG3BOMg8ZPBPH3Wq654e8Q+INRht5X0y4H9oPBJfNBLbbVCLuVYX+aXaoSPO7C84JIquvyDfY9L8J+Jrfxdoqara281vE8s0WyUoWzHIyE5QlSMqcYJ4qqfGtnFBcyzW1yDBf8A9nhEAdpH3AKQAehJ74rn/Bs97aaZreh3PhtJRYoLh7YXwuXuJ7gvM8TF4414LD2+auWg06O3gc32n6PaC71y4juoFto5o4kit5ZgAzIN2GjXkjHHA70vtNdLX/FC3tbq/wBGer6T4it9Xvr2xS3uoLiyWNpVmQDh923GCc/dNVLXxlp8i3jXO62FtqA03LfN5kpKhcAc8lx19+1ct4CguYr1xbwWemNqGjW168MVpGvlTMXA3bFXdtAxg471m+EfBNv9qv7qSCe/nsdUdJWSTypLlkjRUZzuAO3c7dc5Io+1bp/wUmJvRf10bPSPDuux+ItMGoQwyQoZpodr4zmORkJ47EqTUmnf8fmqf9fS/wDomKuK+E1kBpUVydMmQrNfILmW53Fc3T/IF3Hg45PqB16122nf8fmqf9fS/wDomKm0EXdCal/x+aX/ANfTf+iZa8/+Cp/4o+b/AK/Zf5Cu91WRYrnTXc7UW4dmb0Hky14r8KPi14D0bwxLbal4p020m+1yuEkkwdpxg1UfhkRP44l39oH/AJFWD/sLaZ/6Uz17FN/x8MfpXz38Z/iF4U8QeFrYaXr1ldtJq1iEET53mKd3kA/3VlQn/eFfQtx/rm/D+VQzVHlvwb1GC28T65pc7+Xc3UMF1ArEDzUXer7e52kpn2dfWvXa+bLqwt79UE6tujbfHIjFHjbBG5WUgqcE8gg81H9jv/8AoZvFv/g/vf8A47XzWDzujSpRp1E7rtb/ADPqcbkdarWlUhJWff8A4Y+mKMV80fY7/wD6Gbxb/wCFBe//AB2j7Hf/APQzeLf/AAoL3/47XT/b+G7S+5f5nJ/q7if5o/e/8j6Xor5o+x33/QzeLf8Awf3v/wAdo+x33/QzeLf/AAf3v/x2l/rBhu0vuX+Y/wDV3E/zR+9/5H0vRXzR9jvv+hm8W/8Ag/vf/jtH2O+/6Gbxb/4P73/47R/rBhu0vuX+Yf6u4n+aP3v/ACPpeivmj7Hff9DN4t/8H97/APHaPsd9/wBDN4t/8H97/wDHaP8AWDDdpfcv8w/1dxP80fvf+R9L0V80fY77/oZvFv8A4P73/wCO0fY77/oZvFv/AIP73/47R/rBhu0vuX+Yf6u4n+aP3v8AyPpeivmj7Hff9DN4t/8AB/e//HaPsd9/0M3i3/wf3v8A8do/1gw3aX3L/MP9XcT/ADR+9/5H0vRXzR9jvv8AoZvFv/g/vf8A47R9jvv+hm8W/wDg/vf/AI7R/rBhu0vuX+Yf6u4n+aP3v/I+l6K+aPsd9/0M3i3/AMH97/8AHaPsd9/0M3i3/wAH97/8do/1gw3aX3L/ADD/AFdxP80fvf8AkfS9FfNH2O+/6Gbxb/4P73/47R9jvv8AoZvFv/g/vf8A47R/rBhu0vuX+Yf6u4n+aP3v/I+l6K+aPsd9/wBDN4t/8H97/wDHaPsd9/0M3i3/AMH97/8AHaP9YMN2l9y/zD/V3E/zR+9/5H0vRXzR9jvv+hm8W/8Ag/vf/jtH2O+/6Gbxb/4P73/47R/rBhu0vuX+Yf6u4n+aP3v/ACPpeivmj7Hff9DN4t/8H97/APHaPsd9/wBDN4t/8H97/wDHaP8AWDDdpfcv8w/1dxP80fvf+R9L0V80fY77/oZvFv8A4P73/wCO0fY77/oZvFv/AIP73/47R/rBhu0vuX+Yf6u4n+aP3v8AyPpeivmj7Hff9DN4t/8AB/e//HaPsd9/0M3i3/wf3v8A8do/1gw3aX3L/MP9XcT/ADR+9/5H0vRXzR9jvv8AoZvFv/g/vf8A47R9jvv+hm8W/wDg/vf/AI7R/rBhu0vuX+Yf6u4n+aP3v/I+l6K+aPsd9/0M3i3/AMH97/8AHaPsd9/0M3i3/wAH97/8do/1gw3aX3L/ADD/AFdxP80fvf8AkfS9FfNH2O+/6Gbxb/4P73/47R9jvv8AoZvFv/g/vf8A47R/rBhu0vuX+Yf6u4n+aP3v/I+l6K+aPsd9/wBDN4t/8H97/wDHaPsd9/0M3i3/AMH97/8AHaP9YMN2l9y/zD/V3E/zR+9/5H0vRXzR9jvv+hm8W/8Ag/vf/jtH2O+/6Gbxb/4P73/47R/rBhu0vuX+Yf6u4n+aP3v/ACPpfijivmj7Ff8A/QzeLf8Awf3n/wAdo+xX/wD0M3i3/wAH95/8dp/6wYbtL7l/mH+ruJ/mj97/AMj6WzS54r5n+xX/AP0M3i3/AMH97/8AHaUWV3keb4g8UTp3jl128dG9ipkwR7Hij/WDDdpfcv8AMP8AV3E/zR+9/wCR7F4dvoNW8WeKb2zcS20UtvY+apyrSxxlpAPUAyBc+oYdjXQan97Tf+vg/wDomSuO+FFpBYeG5LW2iSGGOcqiIMBRsXgVt+PvFOleC9Dtde1u4a20+1uVEsqxs5XcjoPlUEnlh0r1cPW9tTjUStc8XE0XRqypt7Hz38LOR4t/7GS9/wDZK9C8EZHxX0n/ALA+of8Ao20r5rs/i4/ha8v5NIEV3b3ut313NDKhXfC/leWwPVTw/wDUdK9s+BnxC0vx58TNPksY54ZrfR74Twyj7haW1xgjgg7W9+OgroMj6G8P/wDIB03/AK9Yv/QBV+qHh/8A5AOm/wDXrF/6AKv0gCiiigAooooAKKKKACiiikAUUUUAFFFFMANcP8U/+RH8e/8AYsz/APoq4ruDXD/FP/kR/Hv/AGLM/wD6KuKAKHwy/wBTe/7sP8mp+t/8j/4Z/wCwuv8A6bdQpnwy/wBTe/7sP8mp+t/8j/4Z/wCwuv8A6bdQpsD0SiiikAUUUUAFFFFABRRRQAUUUUAFFFFAHDaX/rviZ/2E/wD3FWVVfip/yL9v/wBfa/8AoD1a0v8A13xM/wCwn/7irOqvxU/5F+3/AOvtf/QHrown8aPqc2M/gy9DA+CH/Hvq3/Y0Sf8Apshr1PXv+QHqP/XrL/6Aa8s+CH/Hvq3/AGNEn/pshr1PXv8AkB6j/wBesv8A6AaWI/iy9WXQ/hR9ER65oNt4itlsr/MlkTma36CbHKgkc4BGcDrgdsg89c/D++N/bXdt4x1lPsm77NHcRwT+RuXa2GaPe2R/fZjXaCisDY56LwhFeaTFp/iS8l8RlJTKZL2KJQxwRtKRqqFQD0IPvmrGl+GbLTJJpwqvPMojLKgRY0GSEjQcKoJJ9cnkmtmud8faxL4f8H6vqEMU7GCzmk8yFkBhxGxDfMw6HHTJpN2TGldpFHSvhrpdjpa6XfXl9q9lG0flw3bqEVY4/LVCsaqHXb1D7gSAatav4HS/v473Ttb1TQZlhS3YacluVkRWZkBWWKQDaWYjbjrXG3Xi7xDd3ekRWd3HaKbJ7gq8fnefGY9quXjcqxMnPGMe/fp/Bur6lqHhQXF5f/bJo8WxltrVlkWSP5JNwckP86tzgDHaqk2rv+v60JTvb+vMsWngRYrTUre+17V9XOp7EupL0xBmiUEeWoijRVBBIJ25IJ56YH+Hmk3F1rMt1Ld3EGrSrM9sZNkcTLEkQKbcHOEByScHpiuM034g+IJ4XvnkupI4dFXUcC1iEO9hNhpDw3l/ulxsOeTk46dl4L1a71K58QNdzs6w3saxofuxK1pA5A743Ox5J60KL1/rqU00XvDvh670OOeCfX9R1S3Y4giuUhX7Ov8AdVo41J+pyaiXwdYvIGnd3jSQyxQRgRxRyf8APTA5eTodzluRkYqpZ3Ou6/BrN/aXP2ezlUR6QhULu2A5mJxnDscDttUEferS0bxRY6/pUl7pwa5khystojKJopR1jYEgBvqQD1zg5pdRDfDvhlNAtr1G1C8v7q+mae4vLjYJHYqFH3FCgKqqowO3rVG38BwJbSWV7qd5f2ktzJdTRyhAZ3ck4dlAyoGBhduQOcgmuS0f4hatc6Tc3JZ7aNPEEtm13etCyRxm5ZPLwrkgquME8cdSOvY+H76xm1a48nxk2tSyLt+xiS3aO3K4J2iNAwOGHDMeKPP+tkxPdx/rdr9GXrLw1Bp2sNqNncXFvFJE0ctkrfuHbcCHCn7rD5vu4B3cgnFRWXhhbFr1odQu4jeXb3b+XsHzMFGOVPA2ityihdx2MPSfCdvootktb/UhBbySyrC0w2M0hZm3AD5uWJwehxjFXtO/4/NU/wCvpf8A0TFV6qOm/wDH5qn/AF9L/wCiYqYkJqqLJdaYjDKtcsCPX9zLXjnwk+GfgnVfC0txf+FNFu5heSqHms43IAxxyOlex6l/x/aV/wBfTf8AomWuA+Cv/IpTf9f03/stXFe5Izn8cfmeZfH/AMHeG/D+jeHhpOg6ZYj/AISGyBFvbIgxIbkOOB0byo8jvsX0FfR83MzV4T+0wP8AiTeHv+xh0/8Ane17tL/rm+tQaxPne5vorR4YiJpbid9kNvbxNLLM3oqKCT78cdTV3+zte/6FjX//AACaus+DWnQS+I/EOoSLuuIYba2iLciNDvZtvoWOM+uxfSvW6+ZweSUatKNSo3d/12PqMdntalWlTpxVlpqfPH9n69/0K+v/APgE1H9n69/0K+v/APgE1fQ9FdX9gYbu/v8A+Acf+sOJ7R+5/wCZ88f2dr3/AEK+v/8AgE1H9na9/wBCvr//AIBNX0PRR/YGG7v7/wDgB/rDie0fuf8AmfPH9na9/wBCvr//AIBNR/Z2vf8AQr6//wCATV9D0Uf2Bhu7+/8A4Af6w4ntH7n/AJnzx/Z2vf8AQr6//wCATUf2dr3/AEK+v/8AgE1fQ9FH9gYbu/v/AOAH+sOJ7R+5/wCZ88f2dr3/AEK+v/8AgE1H9na9/wBCvr//AIBNX0PRR/YGG7v7/wDgB/rDie0fuf8AmfPH9na9/wBCvr//AIBNR/Z2vf8AQr6//wCATV9D0Uf2Bhu7+/8A4Af6w4ntH7n/AJnzx/Z2vf8AQr6//wCATUf2dr3/AEK+v/8AgE1fQ9FH9gYbu/v/AOAH+sOJ7R+5/wCZ88f2dr3/AEK+v/8AgE1H9na9/wBCvr//AIBNX0PRR/YGG7v7/wDgB/rDie0fuf8AmfPH9na9/wBCvr//AIBNR/Z2vf8AQr6//wCATV9D0Uf2Bhu7+/8A4Af6w4ntH7n/AJnzx/Z2vf8AQr6//wCATUf2dr3/AEK+v/8AgE1fQ9FH9gYbu/v/AOAH+sOJ7R+5/wCZ88f2dr3/AEK+v/8AgE1H9na9/wBCvr//AIBNX0PRR/YGG7v7/wDgB/rDie0fuf8AmfPH9na9/wBCvr//AIBNR/Z2vf8AQr6//wCATV9D0Uf2Bhu7+/8A4Af6w4ntH7n/AJnzx/Z2vf8AQr6//wCATUf2dr3/AEK+v/8AgE1fQ9FH9gYbu/v/AOAH+sOJ7R+5/wCZ88f2dr3/AEK+v/8AgE1H9na9/wBCvr//AIBNX0PRR/YGG7v7/wDgB/rDie0fuf8AmfPH9na9/wBCvr//AIBNR/Z2vf8AQr6//wCATV9D0Uf2Bhu7+/8A4Af6w4ntH7n/AJnzx/Z2vf8AQr6//wCATUf2dr3/AEK+v/8AgE1fQ9FH9gYbu/v/AOAH+sOJ7R+5/wCZ88f2dr3/AEK+v/8AgE1H9na9/wBCvr//AIBNX0PRR/YGG7v7/wDgB/rDie0fuf8AmfPH9na9/wBCvr//AIBNR/Z2vf8AQr6//wCATV9D0Uf2Bhu7+/8A4Af6w4ntH7n/AJnzx/Z2vf8AQr6//wCATUf2dr3/AEK+v/8AgE1fQ9FH9gYbu/v/AOAH+sOJ7R+5/wCZ88f2dr3/AEK+v/8AgE1H9na9/wBCvr//AIBNX0Pg0c0f2Bhu7+9f5D/1ixPZfc/8z55/s/Xf+hY17/wCequoSXmkW5udU0fVtOtR965ubN1ij93bGFHucD35FfSOajmhjuImilRXRhhlYZBHoaTyDD9396/yH/rFie0fuf8AmcD8MGDaFcFSGU3JIIOQRtXmub/av/5Ilfn/AKebX/0YK1/gyqxeGb+2T/V2eq3llGM5wkMpjX9EFZH7V4z8Er8f9PNr/wCjBXpYOl7KlGD6aHlY2qqtaVRddfvOC8Y/DDRfGD6DNeKbeGzsoWaG2UJ55eCE/M3/AAE+/PUV0/wt0HSvD3xN0e00qxhtIRo+ofLGv3j5tpyx6k+55qxJ/qLEf9ONr/6IjqfwN/yVnSP+wPqP/o20rrOZHr+gDGhacP8Ap1i/9AFXqo6D/wAgPTv+vaL/ANAFXqQBRRRQAUUUUAFFFFABRRRSAKKKKACiiimAGuH+Kf8AyI/j3/sWZ/8A0VcV3Brh/il/yI/j3/sWZ/8A0VcUAUPhl/qb3/dh/k1P1v8A5H/wz/2F1/8ATbqFM+GX+pvf92H+TU/W/wDkf/DP/YXX/wBNuoU2B6JRRRSAKKKKACiiigAooooAKKKKACiiigDhtM/13xL/AOwn/wC4qzqp8VP+Retv+vtf/QHq3pn+u+Jf/YT/APcVZ1U+Kn/IvW3/AF9r/wCgPXRg/wCPH1OfF/wZehgfBD/j21b/ALGiT/02Q16rr3/IC1H/AK9Zf/QDXkvwanW1XWoXjlZoteF4wjQyMIZLBY1bauTjfGw6dq9N1rVraTR76MR3oLW8gy1nKAMqepK4H41OIX72XqyqH8KHojZDD3pdw96ojWbX/nlff+AU3/xNH9s2v/PK+/8AAKb/AOIrE2L+a5b4laQmteDtTtZ+bX7NLJMv98KhYL9CwXPsCO9bf9s2v/PK+/8AAKb/AOJpr6tZyIyPBeujDBVrGYgj0PyVMldWGnZ3PKdS0a6trnTX8L2dub66jjkaCG7IxBnzZHdGjIjMh+XIPVhjnJrofCt7pI8Mapa/25p1taLcu05+2bZrd5XLvFMXVTExZiBlcgHjkZrsYL7TrXd5Fncw7zlvL0+Vdx9ThKkGrWYLEQXq7jk4sZhk+v3KtvRolLY8ym8T6fp/jLTY7a98Kw2t5pctpcRR6yDCscJXy1DeWNmPNkx6/hXT+BY9D1DTNYt01Ox1eWS9aXUPJvvtSKSqhEZsLlRGqDBGDg5zzXS/2xbdo73/AMApv/iabJqlnKhSS3u3U8FWsZiD/wCOUL+vvuPQ4i8t/DFvqup+LtStNJtNHhtfsttPPCircuSXkkBI5BOxVP8AEQ2MgjOp4C8MppHgbSJLews7PW20m3t5bgwAOCEHDEDJCkk49fSulfVbORPLe3vGQj7psZiP/QKd/bNv/wA877/wCm/+JpLRW/rr/mF9bnk/gfwlp9vJBY6dAxmj126e5mLnP2eC4mZC/OCxkZQM8nLdhXc+A/8AkJeLv+w03/pPDW3HqVhCSY7W7QuSSVsJhkk5JPyetOj1Syj3bLe8Uu25sWMw3H1PydaErf16f5EyjzS5vO/5/wCZoiis861B/wA8b7/wCm/+Jo/tuD/njff+AU3/AMTQUaFUNN/4/NU/6+l/9ExU3+24P+eN7/4BTf8AxNVLDV7dLrUWMV6d1wDxZynH7qMc/Lx070AXdS/4/dK/6+m/9Ey15/8ABP8A5FKf/r+m/wDZa7PUtWtt9pdMtzFBaSSXE8ktvJGscYhkyxZgAByO9cV8DDI/gdJpojDLNO0rxE5MZZUJUn2zitIfBL5GM/jj8zjP2mCBonh4noPEOn8nj/n9rtPH/wAc/Cnw/wDEGnafq80jW+oI7fbLYiVYCuBh1X5sHPYE+1a3iXwB4e+IyS6T4lsWvbSHyblIxM8eJA9yoOUIPR24968h8d/si6RqWv6dH4UaPQtKSNjeySSyXEjtkbQisx7bucgcjrWdzVM734D6hZ6rP4ju7C7huYZGtiHiYMPuvxxXrVeHfs2eCNJ8I3XiNLCOR5QLZDPK2XYEOSPTGfQV7jXNg1FUY8juraHVjnJ1586s76hRRijFdJyhRRijFABRRijFABRRijFABRRijFABRRijFABRRijFABRRijFABRRijFABRRijFABRRijFABRRijFABRRijFABRRijFABRRijFABRRijFABRRijFABRRijFABRRijFABRS4oxQAlFGKKAPnfwZ8bvAngT/AISDR9e1aW1vk1/UnaNbWWQYa5kI5VSOhrK+O3xp8EfEb4V6ro/hrVZby9hNvcvG1rLHiMTIpOWUDq68V6Z8IreGXRtdZ4o2b/hIdU5ZQT/x9SV3GqWturaWBBEAbjBGwcjyZD/MD8qzg9H6v8zSrv8AJfkeSyf6mx/68bT/ANER1L4PljtPihoM80iIs9lfWUYJ5aVvJkAH/AYH/KtDxgAPEV2AMACPj/gC1zmpWB1C2WOO5ltbiN1mguIvvwSqco4+hA4PBGQcgmtUZo9q026vLLTrS2k0i9Z4YUjYq8OCQoBxmSrH9p3P/QGv/wDvqH/45Xn2i/GM2FmkPjDS7yG4iUBr7TbZ7m3n5xuCJmRCepUqQM8Ma0x8c/A3/P7q5/7gV/8A/GaBnYf2jdf9Ae+/77h/+OUf2jdf9Ae+/wC+4f8A45XH/wDC8/A3/P5rH/giv/8A4zS/8Lz8Df8AP5rH/giv/wD4zSA6/wDtG5/6A99/33D/APHKP7Ruf+gPff8AfcP/AMcrj/8Ahefgb/n81j/wRX//AMZo/wCF5+Bv+fzWP/BFf/8AxmgDsP7Ruf8AoD33/fcP/wAco/tG5/6A99/33D/8crj/APhefgb/AJ/NY/8ABFf/APxmobn9oD4d2ZiFzquowGZxFEJdFvl8xz0Vcw8k+goA7T+1Ln/oD3//AH3D/wDHKP7Uuf8AoD3/AP33D/8AHK5D/heXgX/n81b/AMEN/wD/ABmj/heXgb/n81b/AMEN/wD/ABmgDr/7Uuf+gPf/APfcP/xyj+1Ln/oD3/8A33D/APHK5D/heXgb/n81b/wQ3/8A8ZoHxy8C/wDP5q3/AIIb/wD+M0Adj/aN1/0B77/vuH/45R/aN1/0B77/AL7h/wDjlcf/AMLy8Df8/msf+CG//wDjNH/C8/A3/P5rH/giv/8A4zSA646nc/8AQHvv++4f/jlcf8UbiQeAfF0k9u9mb/Sv7NgFw6fPNL5kagbWPVpUFKfjj4OfItn1q6k7Rpot4hP/AAJ4lUfiQK4jX/EGr+O9Tt7nULdtM0qzPmWmm+YGkeUj/WzleMgEhUBIGSck42sDsfhqhSO9U9lh/k1Lrf8AyP8A4Z/7C6/+m3UKPhxn/iYZ/wCmX/s9Gt/8j/4Z/wCwuv8A6bdQpsD0SiiikAUUUUAFFFFABRRRQAUUUUAFFFFAHDaZ/rviX/2E/wD3FWdVPip/yL1t/wBfa/8AoD1b0z/XfEv/ALCf/uKs6qfFT/kXrb/r7X/0B66cF/Hh6nPjP4MvQ8w0fVtQ8Ka7F4g0tBNIqGC5tTJsW7hJztyeA6kZVj05HAY167B8SfC/irQ7+Kx1SKK9+yyBrC6Pk3KEqRgxtyeRjIyD2JrxzFOihikuITLEkhDgruUEqc8Efl1r2cZgY1W6idmeRhMa6a5Gro+kBfWuP+PmH/vsUfbrX/n5h/77FfLP/CIeHO/h/SP/AADj/wAKX/hEPDf/AEANJ/8AAOP/AArk/sip/Mjq/tan/Kz6m+22v/PzD/32KPttr/z8w/8AfYr5Y/4RHw3/ANADSP8AwDj/APiaP+ER8N/9ADSP/AOP/wCJo/sep/Mg/tan/Kz6n+3Wv/PzD/32KT7daf8APzD/AN9ivln/AIRDw3/0L+kf+AUf/wATR/wiHhv/AKF/SP8AwCj/APiaf9j1P5kP+1af8rPqb7da/wDPzD/32KX7da/8/MP/AH2K+WP+EQ8N/wDQv6R/4BR//E0f8Ih4b/6F/SP/AACj/wDiaP7HqfzIP7Vp/wArPqb7ba/8/MP/AH2KPt1r/wA/MP8A32K+Wv8AhEPDf/Qv6R/4Bx//ABNH/CIeG/8AoX9I/wDAOP8A+Jo/sep/Mg/tWn/Kz6m+22v/AD8w/wDfYo+22v8Az8w/99ivln/hEfDf/Qv6R/4BR/8AxNH/AAiPhv8A6F/SP/AKP/4mj+x6n8yD+1af8rPqX7daf8/MP/fYo+3Wn/PzD/32K+WP+ER8N/8AQA0j/wABI/8ACl/4RHw3/wBADSP/AAEj/wAKX9j1P5kT/a1P+Vn1N9stB/y9Q/8AfYrGPiHRtGm1efU9WsLKJLhXZ7idIwF8mMZyT0yMV85/8Ij4c/6F/Sf/AADj/wAK0F0nTrWC1SCwtIVjjIQRwqoUb2PGBxySfxpf2TP+ZDWaQabUXodV8RfiKvje3bQdBVv7DkJF9eyoVN2oP+qiU4OwkfMxGCOBkNurr/hSAPD1wBx/pTf+gJXlQ6gV6r8K/wDkX7j/AK+2/wDQErXGYWNDDcsd7q5nhcRKtiFJ+Z1ml/8AIUu/+uEf/o2erc/+tb8P6VU0v/kKXf8A1wj/APRs9W5h+9b8P6V4bPYPHvhr4r0/wx4l1G11m4hsbbVI7c211M22PzULKY2Y8AkMm3OMnI64r1/+29LPP9pWX/f9f8a8AkhjnUpKiup6qwyDVX+ydPzj+z7QfSFf8K+VwmeKjTVKcL2Pr8XkPt6rqxna/kfRX9uaV/0E7L/v+v8AjR/bmlf9BOy/7/r/AI187f2Tp/8Az4Wv/fpf8KP7J0//AJ8bX/v0v+FdH+sUP5H95zf6tz/5+L7j6J/tzSv+gnZf9/1/xo/tzSv+gnZf9/1/xr52/snTv+fG0/79L/hR/ZOnf8+Np/36X/Cj/WKH8j+8P9W5/wDPxfcfRP8Abmlf9BOy/wC/6/40f25pX/QTsv8Av+v+NfO39k6d/wA+Np/36X/Cj+ydO/58bT/v0v8AhR/rFD+R/eH+rc/+fi+4+if7c0r/AKCdl/3/AF/xo/tzSv8AoJ2X/f8AX/Gvnb+ydO/58bT/AL9L/hR/ZOnf8+Np/wB+l/wo/wBYofyP7w/1bn/z8X3H0T/bmlf9BOy/7/r/AI0f25pX/QTsv+/6/wCNfO39k6d/z42n/fpf8KP7J07/AJ8bT/v0v+FH+sUP5H94f6tz/wCfi+4+if7c0r/oJ2X/AH/X/Gj+3NK/6Cdl/wB/1/xr52/snTv+fG0/79L/AIUf2Tp3/Pjaf9+l/wAKP9YofyP7w/1bn/z8X3H0T/bmlf8AQTsv+/6/40f25pX/AEE7L/v+v+NfO39k6d/z42n/AH6X/Cj+ydO/58bT/v0v+FH+sUP5H94f6tz/AOfi+4+if7c0r/oJ2X/f9f8AGj+3NK/6Cdl/3/X/ABr52/snTv8AnxtP+/S/4Uf2Tp3/AD42n/fpf8KP9YofyP7w/wBW5/8APxfcfRP9uaV/0E7L/v8Ar/jR/bmlf9BOy/7/AK/4187f2Tp3/Pjaf9+l/wAKP7J07/nxtP8Av0v+FH+sUP5H94f6tz/5+L7j6J/tzSv+gnZf9/1/xo/tzSv+gnZf9/1/xr52/snTv+fG0/79L/hR/ZOnf8+Np/36X/Cj/WKH8j+8P9W5/wDPxfcfRP8Abmlf9BOy/wC/6/40f25pX/QTsv8Av+v+NfO39k6d/wA+Np/36X/Cj+ydO/58bT/v0v8AhR/rFD+R/eH+rc/+fi+4+if7c0r/AKCdl/3/AF/xo/tzSv8AoJ2X/f8AX/Gvnb+ydO/58bT/AL9L/hR/ZOnf8+Np/wB+l/wo/wBYofyP7w/1bn/z8X3H0T/bmlf9BOy/7/r/AI0f25pX/QTsv+/6/wCNfO39k6d/z42n/fpf8KP7J07/AJ8bT/v0v+FH+sUP5H94f6tz/wCfi+4+if7c0r/oJ2X/AH/X/Gj+3NK/6Cdl/wB/1/xr52/snTv+fG0/79L/AIUf2Tp3/Pjaf9+l/wAKP9YofyP7w/1bn/z8X3H0T/bmlf8AQTsv+/6/40f25pX/AEE7L/v+v+NfO39k6d/z42n/AH6X/Cj+ydO/58bT/v0v+FH+sUP5H94f6tz/AOfi+4+if7c0r/oJ2X/f9f8AGj+3NK/6Cdl/3/X/ABr52/snTv8AnxtP+/S/4Uf2Tp3/AD42n/fpf8KP9YofyP7w/wBW5/8APxfcfRP9uaV/0E7L/v8Ar/jR/bmlf9BOy/7/AK/4187f2Tp3/Pjaf9+l/wAKP7J07/nxtP8Av0v+FH+sUP5H94f6tz/5+L7j6J/tzSv+gnZf9/1/xo/tzSv+gnZf9/1/xr52/snTv+fG0/79L/hR/ZOnf8+Np/36X/Cj/WKH8j+8P9W5/wDPxfcfRP8Abmlf9BOy/wC/6/40f25pX/QTsv8Av+v+NfO39k6d/wA+Np/36X/Cj+ydO/58bT/v0v8AhR/rFD+R/eH+rc/+fi+4+if7c0r/AKCdl/3/AF/xo/tzSv8AoJ2X/f8AX/GvnX+ydP8A+fG1/wC/S/4Uf2Tp/wDz42v/AH6X/Cn/AKww/kf3h/q3P/n4vuPor+3NK/6Cdl/3/X/Gs/XPG/hzw7psuo6hrFmkMY4VJA7yN2RFHLMTwFHJNeC/2Tp3/Pha/wDflf8ACnx2FnAd0NrBG3qkYB/QUnxFD+R/eP8A1an/AM/F9x6N8Glc+Gry4lgaCW71G4vJImIJjaZvNK5HBwXxx6V3Orfe0v8A6+f/AGjJXJ/DH/kB3H/X03/oCV1mrfe0v/r4P/omSvYwcnOhGb3Z4eNgqdeUF0dvuPNvGP8AyMl39I//AEBaxf4q2vGP/IyXf0j/APQFrF/irsRyodRRRQAUUUUANozRRSAM1wHxaAJ8KEjpr1t/M139cF8Wf+ZV/wCw7bfzNAHe0UUUAFFFFABRRRQAUUUUAdp8Of8AmIf9sv8A2ejW/wDkf/DP/YXX/wBNuoUfDj/mIf8AbL/2ejW/+R/8M/8AYXX/ANNuoU2B6JRRRSAKKKKACiiigAooooAKKKKACiiigDhdN/13xL/7Cf8A7irOq3xU/wCRetv+vtf/AEB6s6b/AK74l/8AYT/9xVnVb4qf8i9bf9fa/wDoD104T+PD1OfGfwZeh5X2qSD/AI+Iv99f50ztT4P+PiL/AH1/nX1NX4ZfM+apfEiKiiirS0Je4UUUUWEJRRRRYYUUYoosAUUUUWAKKKKLAFKKSlFFgYtSzf6uD/cP/oTVFUs3+rg/3D/6E1RLp6/oyqez9P1Iq9V+Fn/Ivz/9fTf+gJXlVeq/Cz/kX5/+vpv/AEBK4c1/gfM7Mu/jHV6V/wAhS7/64x/+jZquS/61v89qp6V/yE7v/rjH/wCjZquS/wCtb/Pavm3sfQHz/wB6TvS96TvX5m2fqiWgYoxS0lFwsJRRRRcVgoooouFgooooCzCiiigLMKKKKAswooooCzCiiigLMKKKKAswooooCzCiiigLMKKKKLhYKKKKLhYKKKKLhYKKKKLhYKKKKLhYKKKKLhYKKKKLhYKKKKLhYKKKKLhYKKKKLjS1PTfhj/yBLj/r5b/0Fa6vVfvaX/18H/0TJXKfDH/kCXH/AF8t/wCgrXWar97S/wDr4P8A6Jkr77Lf92h6H53mf+9VPVnmvjH/AJGO8/4B/wCgLWL/ABVteMf+RjvP+Af+gLWL/FXecA6iiggigAooooAKKKKAGvIsSNI7BVUZJPQCvNviJq9lr2n+D9R025S4tJdet9sqg4OCw78g+xr0ogMCCAQeCDXzp8RLW++HWtwWNrGsmkPqCaxZI2dscicPGPblfwxQB77BrWn3Wp3Glw3SSXtsqvNEucxg9Mnp+FXa5D4a+GLjRNGfUtUG7WNXb7XdyN94E5KofoD+ZNdfj3NSAUUY9zRj3oAKKKKYBRRRQB2nw4/5iH/bL/2ejW/+R/8ADP8A2F1/9NuoUfDj/mIf9sv/AGejW/8Akf8Awz/2F1/9NuoU2B6JRRRSAKKKKACiiigAooooAKKKKACiiigDhdN/13xL/wCwn/7irOq3xV/5F62/6+1/9AerOm/674l/9hP/ANxVnVb4q/8AIvW3/X2v/oD104P+PD1OfGfwJeh5WOlSQf8AHxF/vr/Oq000okgtrW2ku766fybW1ixumk64BPAGASSeAAT2rv8ATvg89lpE+reJtVuLnUIYTOtpYytDawOoLLyMPJggZLEKcfdGTXv4zG06V4vdnh4TCzqvmWxwbOqKWZgoHcnArM/4SbSUmu45r2GEWh+d3dQG+XcdvOWwCO3WvbNU+EngO2txPNaCxhQ4ZhO2GJ6Z3E89gB1zXnNh8NvB954r1T7baalZ2duYrhLW4uIY3kymFlfeRsX5MiM/OCNzYyq1xPN/5YnYsr7yM2ORJY1kjYlHAZcjHB74NVJdThhv/sTxzl/K83cibhjOMcc549K7rXPhf4SHgWTUotPuS95NatALm4RjErzRqFUwEoVOc5y33uvYVr74a+FbbxesC6PpX2W5gFvGIXDhLnJfyyWnVvMKYI4wQCccUPN1dJR/HyBZTpfm/A5QXUbWrXQEpjVSxBjZWwP9lgDUEmrW0Npb32Xa2nMeyRFJAD42kjqByPzr0C5+FXhK38LXF7LpkPhy7iuHkaa5ud6SKkhzlRKy4ZFPyghhnsRVHxD8NPDFj4Igv08KyLeTz2kjSrN9wS3MeYvmkB4V9nSms3/ugsqd7ORzDMFz7dep/Sqz6lAkojK3BJOBi3kPbPOF4HHU165Z/CTwbIt00XgaOzcSCMfaLoqLhcD5sxu/HJGGAPHSvPtc8HeGdC8T6R4dg0KGZoRcTXN9LeTOlsrKxRHYFPughiMH5EBPJBp/2uv5Rf2X3l+Bg22rQ3Fvc3DRywRWzMHaRR/CMk4BJ49+eKUavaebBETMrXDbIt0DgMdpbGSMdFJ/CvS7r4OeHNO0G/hbw5YpbxWTv9pXUJ5JZJOS5ZcKvI5yD1/hxXDaZ8PfCL6to+IrKRL65zEkUqu9tGLZnYMEmLEkKxGQcMw4I4pLN9bco/7K/vdygl/aubgCZMWxxMxOFQ4ycnpwOvpUdxrOn20Es7XcLLErMwRwTx1GM9eRx713Op/DvwjbaR4hMuk2djAulzXFlYtLKbrYqtuuJMvn5mYDaRkYGTkkDj7nwh4ctdZvpoLBoUj2bQ4kB5gs8jaxycl27d+O1S84TekfxBZU39r+tP8AMjhvra4dY0ni8113eVvUtjvwDSw3kc1zcW6h91uVDsV+XJGcA+uME/UetdR4T+H3hjU/G89vc6c9xBGL6ONZS8Z2o9ttyBtORvbr61WtvhRoF9ZeFIodIs7M3t5cJLcpNI7uoimxleADhRg5OMDg9KpZumk+XdX3/wCAQss1a5tnbb/gnP2F9FqNol1AHEb5271wSASM/Q4yPUVem/1cH+4f/QjXWQ/C3wg2v+F438JpphljvBNa+dIceWFVSCG5XuDxwwyAeK3rj4OeGdTkvEtjqOmS2z+Rby2l5JiJSiv/AKtyyN8zscspPOOgFJZtDS8Sv7Mkk7S3PMa9T+Fn/IAn/wCvtv8A0BK848R+GdY8EX0VrrE0F1aXLlLO/iXYJW5PluuTtfHTBw2CRjoPR/hZ/wAi/cf9fbf+gJV46vCrh+aD6kYSjOlXSn2Os0r/AJCd3/1xj/8ARs1XJf8AWt/ntVPSv+Qpd/8AXGP/ANGzVcl/1rf57V4L2PaR873Ml009tZabALnUL6YQWsLPsV3OSSzdlVVZicE4U4Brv7L4LXht0N/4qlNyRl/s1miR59AGLHH1JrmvBMaSfEXw+XRWKfaXQkcq3ksMj0OGI+hNe796+fyjBUZ0OecU231Ppc7x9eGI9nTk0klsea/8KWP/AENF/wD+A0X+FH/Clv8AqaL/AP8AAaL/AAr0uq2o3T2Vr5scSyuZI41Vn2glnCjJwcdfSvU/s/Df8+19yPH/ALQxX/Px/ezzz/hS3/U0X/8A4Dxf4Uf8KW/6mi//APAeL/Cu987V/wDnwsf/AAMf/wCNUxbzU2ZgLXTiVOGAvWyD6f6qj+z8N/z7X3IP7RxX/Px/ezhf+FLf9TRf/wDgPF/hS/8AClv+pov/APwHi/wrvPP1X/nysP8AwMf/AONUefq3/PlYf+Bj/wDxqj+z8N/z7X3IP7RxX/Px/ezgv+FKn/oaL7/wHi/wo/4Uof8AoaL7/wAB4v8ACu7a81EKzC207amd7G8YBcdc/u6Fu9UaMSC004oRuDC9bGPXPlUf2fhv+fa+5D/tHFf8/H97OE/4Ut/1M9//AOA8X+FL/wAKV/6me/8A/AeL/Cu9E+qkAizsCD6Xbf8AxukafVlGfsNj/wCBbf8Axuj+z8N/z7X3IP7RxX/Px/ezgv8AhSv/AFM9/wD+A8X+FH/Clv8AqZ77/wAB4v8ACu7+26n5nlG004SYztN62ceuPLpTc6oHCfZNP3EEgfbHyQOv/LL3H50f2fhv+fa+5B/aOK/5+P72cH/wpU/9DRff+A0X+FH/AApU/wDQ0X3/AIDRf4V3aXepSrvS10915GVvGI4/7Z003+oBWY2+mhVO1ib1sA+h/d9eR+dH9n4b/n2vuQf2jiv+fj+9nDf8KVP/AENF9/4DRf4Uf8KWb/oaL7/wGi/wru4rzUpk3xWunyDJXKXjEZHBGfL9ad5+r97Gw/8AAx//AI1T+oYb/n2vuQf2jif+fj+9nB/8KWP/AENF/wD+A8X+FJ/wpY/9DRf/APgPF/hXeR3WpyqGjtNPdTkZW8Yj0/550/ztW/58rH/wLf8A+N0v7Pw3/Ptfcg/tHFf8/H97OA/4Us3/AENF9/4DRf4Uf8KWb/oaL7/wGi/wrvvO1b/nysf/AALf/wCNUedq3/PlY/8AgW//AMao/s/Df8+19yD+0cT/AM/H97OB/wCFLH/oaL//AMB4v8KP+FLH/oaL/wD8B4v8K77ztW/58rH/AMC2/wDjdNjutTlQPHa6e6noVvGIP/kOj+z8N/z7X3IP7RxX/Px/ezg/+FL/APU0X/8A4Dxf4Uv/AApb/qaL/wD8B4v8K7zz9W/58rD/AMDG/wDjVHn6r/z52H/gY3/xqj+z8N/z7X3IX9o4r/n4/vZwX/Clj/0NF/8A+A0X+FH/AApY/wDQ0X//AIDRf4V33nav/wA+Nj/4Fv8A/GqPO1b/AJ8bH/wLf/41R/Z+G/59r7kH9o4r/n4/vZwP/ClT/wBDTf8A/gNF/hR/wpU/9DTf/wDgNF/hXe/adU37fsdhuxnH2xs4/wC/dL52rf8APnY/+Bbf/GqP7Pw3/Ptfcg/tHFf8/H97OBPwVx/zNF//AOA8X+FH/Cls/wDM0X3/AIDxf4V3ouNVb7tnYH/t8b/41TWutUQqHtNOUscLm8bk4zgfuvY0f2fhv+fa+5B/aOK/5+P72cL/AMKWP/Q0X/8A4DRf4Un/AApY/wDQ0X//AIDRf4V33nat/wA+Nj/4Fv8A/GqPO1b/AJ8bH/wLf/41R/Z+G/59r7kH9oYn/n4/vZwP/Clv+ppv/wDwGi/wo/4Ut/1NN/8A+A0X+Fd952rf8+Nh/wCBb/8AxqkNzqgcJ9j0/cRnb9sbOPX/AFVH9n4b/n2vuQf2hif+fj+9nBf8KWP/AENN/wD+A8X+FH/Clj/0NN//AOA8X+Fd95+q/wDPlYf+Bjf/ABqjz9W/58rD/wADG/8AjVH9n4b/AJ9r7kH9o4r/AJ+P72cD/wAKW/6mm/8A/AaL/Cj/AIUt/wBTTf8A/gNF/hXfefq3/PlYf+Bb/wDxqkW51R0DpZ6eysMgi8Ygj/v1R/Z+G/59r7kH9oYn/n4/vZwX/Clv+ppv/wDwGi/wo/4Ur/1NN/8A+A0X+Fd2bvUw6p9k0/c2SF+2Nkgdf+WXvTLu/wBUsrSe6k0+zKQxtIQt22SAM946P7Pw3/Ptfcg/tHFf8/H97OH/AOFK/wDU03//AIDxf/E0f8KW/wCpov8A/wAB4v8A4mvTKKP7Pw3/AD7X3IP7RxX/AD8f3s82tbDVvhlJAt1eR6r4fvLlIZZhB5dxZSyFURmwSrxliqnAUrkE5GSO21b72l/9fB/9EyVm/EkA+CNWJGdsII9iGBB/OtPVvv6Z/wBfJ/8ARMldMYKC5Y7HNOcpvmlqzzTxj/yMd3/wD/0Baxa2vGP/ACMd3/wD/wBAWuY1U3kkMNlpxVb6/njs7d2GVjeRgu8juFBLEdwtaEljT4tW8R6jLpvhzT0vJYCBc3dw5jtbU8fKzAEs+MnYoJHG4rkGuutPhBqrJu1DxbmU5OLSwVEXnp87OT9cius8OWFn4T01NB0XSbp7awxE0iNH87lQzMxZwWZt2WJHJJrU/tG6/wCgNf8A/fcP/wAcoA4f/hT83/Q1X3/gLD/hR/wp+b/oa77/AMBYf8K6+fxNBauyT2skLrwyyXFupHGef3voRUX/AAmFj/dH/gVbf/HaAOV/4VBN/wBDXff+AsP+FH/CoJv+hrvv/AWH/Cuq/wCEwsf7g/8AAu2/+O0f8JhY/wBwf+Bdt/8AHaQHK/8ACoJv+hrv/wDwGh/+JrP1f4A2mum1OoeIrycWsy3EW62i+WReh4HP0Nd1/wAJhZf3B/4F23/x2j/hMLL+5/5NW3/x2gDlf+FQTjj/AISq9wP+nWH/AAo/4VDP/wBDVe/+AsP+FdV/wl9j/c/8mrb/AOO0f8JfZf3P/Jq2/wDjtIDlf+FQz/8AQ1Xv/gLD/hR/wqGf/oar3/wFh/wrqv8AhL7L+5/5NW3/AMdo/wCEvsv7n/k1bf8Ax2gDlv8AhUM//Q1X3/gND/hR/wAKhm/6Gu+/8Bof8K6f/hL7HP3f/Jq2/wDjtPj8WWkrrHHEzu5Cqq3NuSxPQAebTA4XVfhP4ktwZtG8Q2d6VB/0XUbUx+YccASxn5P++GrlIrqdL6fS9SsptN1S3G6W0mIJKZIEiMOHQ46jp0ODxXuX9o3P/QIv/wDvqH/45XG/EzRj4m0K4u7WwuINd0KP7fZ7im6QYbdFlWOVcIy4JwDtPYUAM+HH/MQ/7Zf+z0a3/wAj/wCGf+wuv/pt1CovhbcxXtnc3ULBop0hkQjupDEGpdb/AOR/8M/9hdf/AE26hTYHolFFFIAooooAKKKKACiiigAooooAKKKKAOG0z/XfEv8A7Cf/ALirOqvxV/5F22/6+1/9AerWmf674l/9hP8A9xVnVX4q/wDIu23/AF9r/wCgPXTg/wCNH1OfGfwZehyfwkszPqOu+IAUeWxnt9GtfNTKxM/lvK4wRkkSxDqPuH1OfU9ai1QaNfNJeWTKLeQsFtmBI2nofMOD74rzj4Mj/iQeJ/8AsaIP/RNlXqeuj/iRaj/16y/+gGoxUm60m+7HhIpUYpdkRtZalJKkslzprSR52ObJspnrg+ZxmqGvab4hurF7Wxl0p/tWYbiRleB4oiCC6Eb9zjsCAPcV0I7/AFrI8W64/hzw7e6rFCsz2yhhG5IDZYDqPrWFjo21MzUPCN5e6ZYaR9utIrK0aJl8u3YMDEQYxguQQCAe3KjrzTtD8FNoUc8VvdWkscs8dwBPatJ5bJEkSlSZM52xg5OTkk5qTXfFosLxbK3CfaI7q0iuPNX5QkzEAqQevynr6VavvF+kW2itqtveW97AZhbRG3kDiWYv5YjBGed3B9MH0pqW/wDXZ/5ELt/XUxbv4dG90PU9Hl1QGPVVQXMvkEu7AAF8FyoZgo3EDk89aua74T1TxDaPZ3XiEx27SxTBYbNBtaORZFAJJ4yo684rIf4o3CalDaHSrAxSQyTfaRqJ2KVZF258rr+8FdHpXim3utDm1O9VraO0yJ5fLbynKgbmjOMsucgY7jFO/X+v60C42DRvEEE1xIfExnE6BFSSyQLb4z86BcEscjO4kcDj1zH8Czi/0yWOeyaO0kuJZmeFsztLGUYyAsfMzn1XGB1AArZl1uZdSt1itZXsHR/Oc2s4kjYY24GwhgeR2xjqc4om8WaVFZandiSdk0sf6Sv2d1YNtDBQGA3MQRgDuRSG1cq6d4c1XTdNl02LXRJAwZYjNbb3gU5wqktyFHTduPHOaytO+Ht1o1zHPY6sVdbhZWZw7blECw7Wy53jCqcNzkZBHSrWo+Po7LUdItl0+Z47+V4WJeMMpEbOCPnx/Dgg4657YO1o3iGDXZbpLaC4VLVhG0r7CjPzlVKscleM+mR74a0C/Qoad4WuNPS53Xdldz3n/H1cXNmWkuBjGGxIBtAyAoAUZ4HJqefQ76fU7LUDf2izWSSxxqtowQh9ucjzM/wjHNVdL8YSanpN1q32aytrS0luY5WnvCPLEMjozNhCAPkJ+lT6T4q/tOx1W7NrGq6fK0YMc+9JwI1cMGwMA7sdKm9hrt8vmRjw1qQ8QJrT62ksqW8lskLWgESK7KxIwwbPyAck1T0/wFNpx0wx6sWOmyyzQ+ZG7Bi6upyvmYxiQ42gdqii+INxPY3l0ukgCO1t5LYJcb2uLiZSywBSq/MBsJOcYf0Ga2/DWtPqtqYL8QQ6xaYjvraJjtjkx1XPJRuqk9R6EEB2s7diE09V1KTeFNTl1621qfXEnmtYZoIYnswI1WVkLHhgSRsUDnpn61bsIdUN1qOy8s1IuBuLWrHcfKj5H7wY4wO/Q/QbdUdNObnUv+vkf+iY6GNGF4u8P3HirSrrw7qE9s4vLWSWCaK3KNbzxshjkG5mGQxDf8BrnPgreSX/AINW6lhaCSWbe8bAgoxjTKnPoeK7+b/kO2n/AF6z/wDocVcB8Ff+RRm/6/Zf5LW0HaEl6ETivaRl6ncaV/yE7v8A64x/+jZquS/61v8APasg366UNX1B0Mi2tiJyoOCwV5zj9K+f/id8e/E2tfDz+2ND8J+IPD8M0sM1vrJlTywA4GOOobGMHjmsWWdX4G/5KJoP+7c/+ijXuvevkn9nHx5rHi74g6TBqdmCIIrjF6ilVkPlH5SMY3d+Pyr6271wZdQnQoqnPdXPSzXEQr4j2kNmkLVHWf8Ajzj/AOvq2/8ARyVeqjrP/HnH/wBfVt/6OSvQPNRg+MXukv8ATtkML5f/AEOVd/nRT4O75V++pi8w445UdcjHLaLcXKeMrrzgRdyavldkAiZla1i3g7pslAoz908gEc4Fd1qHhsXfiOw12KeKGezt54AGgDlzIUwScg/KFbj/AGvbnLufAs0etf27pWryQ6nOYor6a4jEn2qBHDCMbdvlkDcAV4+Y7gxwQo6O5TMPW4NLPjDXLm+nt02R20ZEotuAsbMzZlRuPmUHGO1XfC2m2EGq6jd2EkLzXVjHFGEkhRTsZzndDGu3mQc8njpxWpqvg+9v4JIYNRtI0vLs3OoJPaGYXS4CrHxIuFAVAeoYLgjBIrRsNFv4JLuO71MXFpcRqqwpGY/JOCG2nJIBGOM8EZGM0AjxzSdekuPD+sC81Ah7i7ksxObi4VHOZVEpEaKGDsjfMM8ADA4rfj1hbf4fXjm9s5bI3UVncSXV5MizLtVDEhlXjcdqdh8x5GK7Q+CleC3gFwIoYdRe8Cwbo8IVdQgKkEY3Dkdhil0rwjeWOmy2suszxyS3rXTy2qgl1PRMzeYewyc544IoWit6fhb/AIIS3TXd/jf/AIBw0WoaimtxQXmoarcF762RlspZIoER4ZWMUaqVG0EKAcZIUEnmrUmsXI8I+EVlnsma4Hmq2p3hUmdfuMwbJdUJLnkcooByRnq5vACT6xJqH9s6hCPOhnjjj2MVeONkyzSK5bO88cY4qfTvB0tjp2kWX9r3ATToWicxRRqbjOOrEFkH+4VzxzxR/mK3ft/mctPqanxOty/iK4b939gMiXOno3mNKowqnJAPYH5s4FHi3Vr23+KWmwWT3TGLS7gl0iRo4C8tuPnyM7OAWI5AYHgc1uyeBLp7R7QazIsTapHqITyQwwk6yhCT8xPy43Z6nNad94Vtr/X4tRmWFrb7Fc2lxbPGGE/mmHluxG2LBB659qcejfS/4r/Ng7Xf9f1ocp4fkn00+GLCz1O7hhmu5kuLSQQlmQwSyq74jDBnIVzz1JBJwa459QvdQfX2l/tM2T68GM+wiIxxxRv5h8oq2cRIefl2tkYPI9Ng8A29p4ot9UtI9Ms7CCJh9ltbIRvI5Vky7hsFQHfA25y3Worv4exahJqcF19jks9RuvPcmAGVIzHGhiUn7ufL+8OcHgA4NL7V/L9V/kJ7/P8ARmV8PbZbHRtfE+YoorlljkvFnZHjdRMWMcj8jfK44xnuSeawdK0HVbO/uRJLZWeoNpaXMKR2LJPtaeZnVCGZgVBhDbQTxGOwz6BovhJ/D8961g+mRpKipbubACaMAk7ZJFceagz8owCOcknmqE/w+km1e31N5tI3QQSweV/ZrFHEjIST++6jy+Pqaq+v9dirGh8PlYeF43ZJEEt1dyoHUqSj3MjKcHkZDA/jXSVzd54JtNZ8PxaRqrxk27FrW4sIzavZnBCNEQxKMqnAIPTr3rokTy41TczbQBljkn61IuhwfjS5hbX4ba6t0t4YXsZ1vHs5X8x/tB/dLIo2gnYBz/fGa5jwnPYy6/o1wLeUQxPDLat5FqsjNPDLzIyOWIAbtk8c16P4l0G+1uS08i/t7eG3YzeVLbeaJJgD5ZPzD5QTkr1OBgjnOTb/AA+nguor1NWit7iOWCQJaWMcUO2PI2BCWIUqzD72RwR0ojp94S/Qwtc1PXrDxNrjW9hCgefSovOhu+itcbQGyoIDAsCAGxnvV34balf3NodLe7tQkdiJVEC/PDI80wOSSc/cB5A+lbV74Ct7lbu5XULttTuJoZxeXB3hDFL5kaiNdq7R93gBiCctnmm6b4Q1DTrpZ01HTU8uCSFUttOMW4tgguTKxYKckDjqaOlv62H/AF+J5Wmn2GoNBeRaRczBMvHJI8ztLuBGXZQVLZ5OO+a7yHybb4Xag8Nr9qjS3mlubWe/dWhwhbarbWZCMLhcAjOevJvJ8MbWMSxQ3r29v5EUUHkxKJo2RGUuZDnOQxyAB9TVyy8HXDaD/Ymq3tobTeUMemWzWqzQbSvlSZd2Oc8lWXOMcDIIJP3kyhqs039oyw3FsotIoBJd3J1e6SKDoEVlUYJIyT0wBk9Qat+JbrUbO001WsRfXUrLCyWupT2vPV3G0HKqoZvmOeMDJIzVufhor3NzLbT6Q7XBzLJfaRHcSucYGXDKTgADnnjkk81sp4PsWisXvAbq5sbc28bK7wxbTjI8pW24+UDkEgDqaEPY5C6vNV0u+kvLG803FlpUXl7vNuv3ck2E/fO4LkhD8xHPv1rc8X3rxX9jdXul31zpdlcxlEgMe64uWZUiyruvyqzgj1YA8BRuUeABb6ZHp+n3kVpbzXKTXqeQW8yNWDiKPLfu1BGAPmABbjJzW5f6Q2pXkM1xMPItWEsEIXjzccO574zwvQHnk4wW2/rzFa7b7/8ADGF4X1m/Ou6ppUejXCabBdMDPJLEHt5XRZmVlDHcpMgIKkkZIIAGTyfi/UdSn1qS4tLvUbuDRIkuraWRbby3nkkMRcAoCQi71B5yWJHTn0Tw5oc+kxXzXt1Fd3d/dNczyRw+WhyqoqhSzEYRFHXk5PGcVW13whBqv2+aCZobi7toLYggbESKQuCAOcncR17Ckunp+g5bNf1v/kN8LXcl9fauJp9UaWynW0kju3iKbvLSTcojAHSUD8PpXEapY2NyfEebLSYLKS5V7aSRNgeCDYtyiFVO1iwYcDncfSvQLPw2umw6qtne3IuNSnNxJcTEOyHYqALwOioAM59TmqN34CttTs7S11C8kCWLLJZJaKIltpF+7IM7i7jn7xKnutF9b+n6AjG8d6pcReCbTUdUtILBzH515bjUjDNEoXc0cT7RlzgKTxjJx61z8E+px6qlzBdWlncXLJYWMunOk6zJ9pUXEmXQ/OIyhwON0ZJBHFd/qPhjVNb0NtI1TXt8UyyR3MttapG80bfdHzFgpA4JA57BagvvBV1qbw3c+tXCX9k5ksJlQMLdiMFmU8SFlJU9BgnaFPNVF2dxW0sLr15Jp9/bQz67NbxS20myGOKIyStGpaSRyykBQAB8oHLfTGP8PbubWdM0M2N5qtrbwWqS3NqYoTDE23b9mL+WG3KeSB02jOMjPU6nolxrNullf3UbWbIFuUjjIa5HGVzn5UPIKjJIOMiol8PXVnrYvtK1MWlrOwa8sZIRJHMcY3IQQY34AJ5BxyueaSX9ff8A5gZOvXkkPiXTr2/0m+ntoJvIsIofKy9w4KmVgzqRhAwHszE9sL4P1fULlLzT202e10u1kmht75pYt0IQ4KOmT93kKw3Ahfmweu9daNLfXy3s1wm+23GyTy8pC7KVMjc/M2CR2ABI75qPw3oD6Noosr6eO+uJZZLi5l8rajyyOXbapJwoJwASSABzQhv+v6+486uNR1a58Vf2nFNqsi215FpVrLKlqCIpUWSR1BQYL/JjI6IPXFdjpl6dT8KavdvLfsXN3Cy3jRlkaIvEcBAFAJQ8D/GreoeEEurp7m3upY3n1GG/m3cgGOJY9qYHGQinnPOaeuiQeHvCV9YW8s0yCK5maSZgXd5C7sTgAcsx6Chbf12X63FLc3uopaRTnP1/pTqAOZ+JX/Ijav8A9cf/AGYVp6v9/TP+vk/+iZKyfig5j8Ba26qXK2xYKP4jkcVw1x8WfE9zBHNN8KvElt9k/fRrI8ebg7Smxffa7Pz2Q0DRL4w/5GO7/wCAf+gLWDYn/iuPBifwtqz5HrizuSP1A/Kq2keObf4j2reI7Wzls4rhtghlYMwKAKeR7irFiP8Aiu/BX/YXf/0iuaYHtum/8feqf9fS/wDomKr9UNN/4+9U/wCvpf8A0TFV+kBmW04t5dXlKSOFuV+WNCzH9zF0A5NcH4i8aeJLLxRb2mnW/nSTWjlbZ7eQID5qAyvxkBVLH35AycV1t/rmk6AmqXGsa3Z6LBJeLElzdTxwrvMEZABf5S2ATjnoa878VeJ/hfbT2uq2XivTLi8gWWLfZ6np88jb9uWk+0Mxb7ijIyQPQZpPdP8ArYLX0O7u/Fr6T4bhvlR9QkE0FoZbj/R1md3VDJ8qtgZY5AXsa4l/iF4ri1fxCFt7YRW1xGET/SZY0At42IWT7PtAJJJLbeSe3NMvPGvhqXwnoWkJ498HSalCYri5uJdUtkiWWPD5whxnzNpwAMgGsKXxv4SuNXllvrrQ77VJHe3Orzano723ledmOYKZ/M3JHwPkyehzgGqXxP1/DT9bivZHrWr69eW2r6daQMEuGUPLZPGSlwrcfJLjhkbk/wCznjkEQaHretXGq6xZtaC4S1vo4/3sqp5CPFG5AKg78byRkD0zxmuTuviR4bbXNJuLzxv4Vv7W3sZTPFBqtokTXZ2JuUNJuA2tLwSRj361tI8ZfD/T9b1LUDqfg5jc3sVxbsdZs824EMcbNneSD8rnjsevNC/r7xp7nXeK9fvdLGpyLftbxWsaTRyRtCA4LbWjy6ttcY4yCORnvVvwlNP/AGjfm51ye/jlbbaJcyR+bIiAB5NiIoUbiQMDkYJ6ivPfiJ4n8DeMNDvkfxT4RKRkPbWY1W1Lzy7h+8kO/GByQuf9o84A6fw14+8IwazFolt4k8KXkUmEsbm21W2MzEkBYGjDbmbkAFc7u+D1QM9Fo/Okwf8AJowf8mgBcVQ1of6HH/19W3/o5Kv1R1r/AI84/wDr6tv/AEclAF6s9Y1l1m9RxlWtIAR6jdNWhVGH/kOXf/XrB/6HLQB5Z+z3x4KsPQafZ/8Aos1ua2P+LgeGf+wwn/ps1GsL9nk58DWJ/wCofZ/+izW/r3/JQPDH/YYT/wBNmo02B6HRRRSAKKKKACiijNABRRRQAUUUUAFFFFAHDaZ/rviX/wBhP/3FWdVfir/yL1t/19r/AOgPVrTP9d8S/wDsJ/8AuKs6q/FX/kXrb/r7X/0B66cH/Hh6nPjP4MvQwPgz/wAi/wCJ/wDsaIP/AETZV6lr3/ID1D/r1l/9ANeW/Bn/AJF/xP8A9jRB/wCibKvUte/5Aeof9esv/oBqMT/Gn6svD/wo+i/IvniuK+Lsmnr4KvkvDbefKEjtkkwXdy68IDySfQc12vY1G1vDLLHM8UbSRZ8t2UFkyMHB7ZrA1PI73Q7RfEF2bKxu7qOO80po7YQ+UEUSSk4iwiKAMnJA45Jrajvr3SvhbrbCK5sNUgN2/kHaZYZJZGljXglS2JU6EjJxmum1fwRo2tai2o3L6rBdPGsTvYatdWe9Vzt3CGRAxG48kZ5pNP8AAmh6ZHJHDHezLLcJdS/bL6e6aWRAAhZpndsLtUgZxkCmtmn/AFsiLa3/AK6v9TgGmXzJJv8AiYwrDJPZiWcQDDKQzpuMw5+UHA67TjpXZeGoJ7vwSkOpaTc3zRoJY4b9U3XTDEikKzt5fzYwHOVwOeKvxeB9BjF+HsBcf2hO1xMJ3aTDkgkpuJ2cgH5ccgHrUul+F4dFsZLOx1LWArvvElxeyXToP7qmYvhf196LaWKfc8+vvEfiGx8R2Go3wjH9kaUkOsL55W2gurpl2lyvBWPYCTjhZM16Vp1rf2mkRxS3Vtd323c86w+VHI55LbQTj86dZ6Jp1jp72EFon2aTd5qSEv5pb7xctkuT3LZJqt4c8Laf4UglttNe8W1dy6W8ty8scAP8EYYnao7KOBnjjimJqzPP77T7jWdV0i6sYJp4LDULmOd1gkwu1JYjj5efnGOK7HwJJJPp8k0UqvYNLIsavHIsqyLIyybi55XIwBgYx3GMXLPwhplisqQvqCCWeW4YJfzou+SRnb5VcAcse1WLPw/aafo7aTaPcRW7GQl/NLSZkdnY7zk5JZuevNA2tbnl/wDZN3rXhSKDRbfzZRPdX16N+EurZ7l5ltWPrKGBH90EngNht7wzrdpd2Hib/Wwm+ufPt45Iyrsklkkq5HbhXHOOVIr0G2tobOCO3t41iijUKiKMBQOwrI1LwfpGqazBrU0DrqEMMlus0blSY3UqQw6NjccZHGTjqczJXTXdf1+SDqn2/r9Wec6Pqc1jHZXE+lX4sjZ6fbxTTF4lS8lj8sNGVb51YeSrEdMnnORXQ+EUtPEPig62uimIRadAxnv3kluoJ5QWaAb2IQKojJAAyWBrroNBs7eztrNTceVbQrDGBM6/KowM7SBn8KZZ+GdNsdQ/tCAXguMPktezurbtuSyFyrH5F5IJGOMVTd22KMWkl5I1ao6Z/wAfOp/9fI/9Ex1eqjpn/Hzqf/XyP/RMdAIJv+Q5af8AXtP/AOhxV5/8Ff8AkUJv+v2X+S1383/IctP+vaf/ANDirgPgr/yKE3/X7L/JauPwv5Ez+JHQ62MaL4m/7BMn87iuL+FHhnSvFnwQ8LabrNlFfWZto5TBKTsZlclcgHkZHQ8V2ut/8gbxN/2CZP53Fc98Bjj4QeFvX7EP/QjWbNDh/C95a+GvF/hy5aKO30+OeS2kYYRLcSRsqMewBfYv/As9q+hO9fOU0UVxG8UyLJG4KsjDIYHqCO4oszf6Tb/Z7LX9etrdTlYhqMrJH7LuJ2j2GAPSvlMuzeFClyVE/kfXZnk1TE1fa0ml6n0dUV3aQ3sBgmBKEq3ysVIIIIII5HIFfPP9sav/ANDbrf8A4HtR/bGr/wDQ263/AOB7V6H9vYfs/u/4J5v+r2J7r73/AJHvv9i2v/PW+/8AA2b/AOLo/sS1/wCet9/4Gzf/ABdeBf2xq/8A0Nut/wDge1H9sav/ANDbrf8A4HtR/b2H7P7h/wCr2J7x+/8A4B77/Ylr/wA9b7/wNm/+Lo/sW1/5633/AIGzf/F14F/bGr/9Dbrf/ge1H9sav/0Nut/+B7U/7ew/Z/cH+r2J7x+//gHvv9iWv/PS+/8AA2b/AOLo/sW1/wCet9/4Gzf/ABdeBf2xq/8A0Nut/wDge1H9sav/ANDbrf8A4HtR/b2H7P7v+CH+r+J7r7/+Ae+/2Ja/89b7/wADZv8A4uj+xbb/AJ633/gbN/8AF14F/bGr/wDQ263/AOB7Uf2xq/8A0Nut/wDge1H9vYfs/u/4If6v4nuvv/4B77/Ytr/z1vv/AANm/wDi6P7Ftv8Anrff+Bs3/wAXXgX9sav/ANDbrf8A4HtR/bGr/wDQ263/AOB7Uf29h+z+7/gh/q/ie6+//gHv39i23/PW+/8AA2b/AOLo/sW2/wCet9/4Gzf/ABdeA/2xq/8A0Nut/wDge1H9sav/ANDbrf8A4HtR/b2H7P7v+CH+r+J7r7/+Ae+/2Nbf89b7/wADZv8A4uj+xrX/AJ633/gbN/8AF14F/bGr/wDQ2a5/4HtR/bGr/wDQ2a5/4HtR/b2H7P7v+CH+r+J7r7/+Ae+/2Nbf89L7/wADZv8A4uj+xrb/AJ6X3/gbN/8AF14F/a+r/wDQ265/4HNR/a+r/wDQ265/4HNR/b2H7P7v+CH+r+J7r7/+Ae+/2Lbf89b7/wADZv8A4uj+xbb/AJ633/gbN/8AF14H/bOr/wDQ2a5/4HtR/bOr/wDQ2a5/4HtR/b2H7P7v+CL/AFfxPdff/wAA98/sW2/5633/AIGzf/F0f2Lbf89b7/wNm/8Ai68D/tnV/wDobNc/8D2o/tnV/wDobNb/APA9qP7ew/Z/d/wR/wCr+J7r7/8AgHvn9jW3/PW+/wDA2b/4uk/sW1/56Xv/AIGzf/F14H/bGsf9DZrn/ge1H9sax/0Nmuf+B7Uv7ew/Z/d/wQ/1exP80fv/AOAe+/2Laj/lpff+Bs3/AMXR/Y1r/wA9b7/wNm/+LrwL+2NY/wChs1z/AMDzR/bGsf8AQ2a5/wCB5o/t7D9n9wf6vYnvH7/+Ae+/2Na/89L7/wADZv8A4uj+xbX/AJ6X3/gbN/8AF14F/bGsf9DZrn/geaP7Y1j/AKGzXP8AwPNH9vYfs/uD/V7E94/f/wAA99/sW1/5633/AIGzf/F0f2La/wDPW+/8DZv/AIuvAv7Y1j/obdc/8D2o/tjWP+ht1z/wPaj+3sP2f3B/q9ie8fv/AOAe+/2La/8APS+/8DZv/i6P7Gtf+el9/wCBs3/xdeBf2xrH/Q2a5/4Hmj+2NY/6GzXP/A80f29h+z+4P9X8T3j9/wDwD33+xrX/AJ6X3/gbN/8AF0f2Na/89L7/AMDZv/i68C/tjWP+hs1z/wADzR/bGsf9DZrn/geaf9vYfs/uD/V7E94/f/wD33+xrb/nrff+Bs3/AMXR/Y1t/wA9b7/wNm/+LrwL+2NY/wChs1z/AMDzR/bGsf8AQ2a5/wCB5pf29h+z+4P9XsT3j9//AAD33+xrb/nrff8AgbN/8XR/Y1t/z1vv/A2b/wCLrwL+2NY/6GzXP/A80f2xrH/Q2a5/4Hmn/b2H7P7g/wBXsT3j9/8AwD33+xLX/npff+Bs3/xdNbQrNwVZ71geCDeTYP8A4/Xgv9s6v/0Nuuf+B7Uf2zq//Q265/4HtR/b2H7P7g/1exPeP3/8A+i8Y6UV85/2trB/5mzXP/A5qeNS1xuninXj/wBvzUv7fw/Z/d/wQ/1dxL6x+/8A4B638T7xI/DB00Avd6tPFY2sSY3u7OMkD0VA7t6KhrT8QAfZbIDtI+P+/EtcX8MtEtnS51y7kub/AFUytCLy9neeRIyEJRC5OxSQCQuAcD0rs/EZ/wBFsveR/wD0nlr1aNZVYKpHZnj1qLo1JU5bo+ZfgX/yTuz/AOu03/oZru7H/ke/BX/YWf8A9IrqvNvhLrVj4e+FMGpalP5FpDPIHk2ltu6XaOBz1YV6Dod/aan4x8D3VlcxXMD6s5WSJgyn/QrnuK3Mj3TTf+PvVP8Ar6X/ANExVfqhpv8Ax96p/wBfS/8AomKr9IDkNciEEHiDVTbabP8AY90u26tfMZtkCNgNuGB+HFcf4d8aW+s6lHby2Pg1YzayXDvZr9pePaUAQoACSS4AGc57Gu91VI5NM8RxyyGNXYpuBIIJgjAxjnOSOnNeWeDVji1xNQka40pY/OgLyTPd+fdbIM4UMR5yr5iAfNzx82CtTD4mn2/r9AeyZ38Qjg0uG+1iz0LTZJS4EH9nmZ1wGbB2N97YpYgZxg8nGag+3ae8ksyW2kSadDC8kt6mjSsisrEFRgnONrZ54xjHPDX8LanqGlWyWdla6X/pc8+2dmeV1kt5I98pGMyMz5OCcDucVx03ha8tfDmsapc3FqLWOS6QKYndw0ct2DggYUMXT645xgZbdk2NK/3naaxd2WkvagW+izCdfPYrpLnyrcKS0rbSeBwOcckDjNMttSsZ724ge10mOBLmO0guP7HkZLiVlBIBBwME7ck9QemKzPFatFIdz3UP/FM3Abyod/PycN8pwOPar1/AlhfaHpcVxJILm+gube0ELHyUSMmVt/dc4Jz0Z/8Aao6fP9bfkrkX0v8A1sn+bsWbi5trPU7+zubHRUW0NookXTtxka4kKL8u8YAbGTnv7UeGrvT/ABJaB4l8OJdKhklto7ESNEodlBOH77T2rnvEOiWEmp6zrB8Pva6ebzTi93LF9nVtl0PPZkOGdcEEsy7SBnJxV74e3tlpuqR2f9p6VcKbAoi2Uu/yFjkdzvxwBiXjHoabtYpbf13M268WajDc2yReDtFMdw+0NNCkUiL5byAshbKnCnIPTNdFYXUT6I2rarpek6XGkqw4fTRJ5jMyqpjKvlgWYAcAk5wD34qLS3M1wl1HdTXPlLfvDF+9nMUzz4bYY2bIUKCC3Q4Azwez8IX1lN4HvIrPXNFha33qJo5UuBYSkf8ALUBgN4bJwNv58k6XG1qO+2WyXd4k+mWEVrbxK63H9gTndkNuBXquMDnoc+1LqUtjbQ6bLNY2Zt7wpNvTTVtiiqVba7SyKFLdNp5xu4ODWQ9vf6bfXnibUp9Sg0bUJIYbhoYyJ44IVAjlfHzqjt5hfHIVkzgBq6bxlqNvN4bg1e21HzLJ5YFQxTxpFJ5sqRhzIUfAXeTwO1AjJ0XxboOrBok8NW01wL17RUtvsrk4cjdjzMgAckjI4OCa1b06ZY+Khpi6Fb3T3NkJkCpEoUo7BvvEcneOn93ntXKeHNO/szXLLT49djml1C8uZ1l0++hmaIYaTBVoOcj5SQR14rqdc06TW/EV1b2rDetitrJL0+zln37weu4BQVx3IPGCQ0tFcmW7t0f6/wCR55+z3qkHiTw2I7yBbyWCxs3a4uCspdmEgbk5Ococ55p994hkvtS0C90zRbV5LnU0iWwST5ZC2n3jKsmE4TfsduCF2KeccYP7P2pyaJp+mrfQlV1awsrW2aMHYXUyEZPRWKPnnrtahxLEvg+fZpcVx9rxbrPIoEudPuwHYtjaAQAygkH5ec4pPcpntlgmh6vp8s1npOmvdwgpLavEitFKB/q34JXnvjkYIyCKzb7UtNtEtv8AimbEPcJbt5EypHKhmcIARtI+ViA2CcZ+mYvA9ro2qJrU4i0iVrqcF7W3iibyYl+VVZlGX3MjuC2fvdq5az0x7/4f+G724e+tPIfTrSPdHErgNPAsm3dHvVSQDknkrnGMZdtfmvxH0Oxe/wBIj8Kz65/YWmlw7xW8CINs8nmGONQzIv32wAcY5yCRyYm13w3FrsWmyWGjCM2L3UkiIrlWVlGwALz94+/A4p3izw/bWnh63Wa4uLtba+tXhWfYFjYzxKNoVVAwMgDHGT7Y59tSll07UfEcut6lFqtrPeWMZS2j8pIlu2VV5iI+6i8k0v6/D/MUvhv/AF/VkzX8U67p2gs/2Pwzpl+o0971d2I2kIZVWNQI2yWLj0xmo9N122v54V/4RXSY1N5HaTOrbtjtHv8AlJhAfAxnB71L4nUHx3aD7WbU/wBlT7XQYcnzI+A21tnBIyFJ54xXP6BaLpraTafbNRtI4dVMSadKsfkNkOwkRsMxyGwfnALA/ItJXsv6+1b8if5vL/5FP8z07+wtI/6BVh/34T/Cj+wtIH/MKsf+/Cf4VeB46UZ9qZSKP9h6T/0CrH/vwv8AhR/Yek/9Aux/78L/AIVfzRQBkx2NpZa3b/ZbaG332027ykChvmixnA5xk/maKsTf8hu0/wCvaf8A9DiooA5XTP8AXfEv/sJ/+4qzqp8VP+Retv8Ar7X/ANAeremf674l/wDYT/8AcVZ1V+Kn/IvW3/X2v/oD104T+NH1ObGfwZHP/Bj/AJF/xP8A9jRB/wCibKvU9f8A+QFqP/XrL/6Aa8s+DH/Iv+J/+xog/wDRNlXqev8A/IB1H/r1l/8AQDWeJ/iz9X+Zph/4UfRF5eh+tGaF6H60ViaBRRRQAuOaqapLeQabcS2EMc92kbNFFI21ZGHIUntnpntVusrxLZW19ot3HdW8M6LE7hZUDAMFOCM96UpWTZUVd2MXxH4wvtHQmK3shMLaO5FrcSssjAuFYAqCDtLLnHqPUVpeH9cuNSOpm7+zrHZ3BgEkSuqHaoLfM3DAEkEjGCCO2T59Pb2+tfDG01OG8uUtrOwtktpEjh8sZEYfy8xltvA5zyc44FehW3haGG0ms59Qvbq0mVVNvN5YQAHJHyIv3s/NnOe9XJWbREXdJnN2Xi7XdZ8NWl1o50+61LV7iSawGD5UVkJMh5SD12ADIx8zqOxNdho2uWWuW7S2koLxN5c8JPzwSDqjjsR+vBGQQa4DwzYQyv4MW1TbMkt1d3BQnmFUljUN/s7pVwOmcn1rofh3o+nRaJa6qljbDUJ43ikuxGPNdBK5Cl+pAJ6ZpDR1tFAooGFFFFMYuKoaZ/x86n/19D/0THV/NUNM/wCPnU/+vkf+iY6Qgm51y05/5dZ//Q4a+bvCHhP4tatY3Vz4S8b2Gj6W13IEtprdWZTgZ58tv519Iy/8h20/69Z//Q4q89+DCg+Epjj/AJfpf5LVr4JfIyn8cTz3xP4W+M+meDNaurn4gafLJYWVzdX5W1T/AEi1CNtiUeVwQY5znj/WDnjj0L4ApInwd8L+YwdzaZ4/ul22j8BgfhWh8Rv+RE8e/wDYt3P/AKBdVU+BP/JI/C3/AF5r/wChGoZo9zze/vI9Osbm8lB2QRtIVUZJAGcD3r0Xwd8HdMfTIr3xpZwazqdwBK9pcqJLW0zyIljYbW293YEk56DAHmur/wDIPk/3k/8AQhX0v1OTXzeQ0YOMqjWt7H1PEdacZRpJ6WOWHwm+Hv8A0IfhX/wU2/8A8RR/wqb4e/8AQieFf/BTb/8AxFbF7ALnVrSF5J1j8iZysUzx5YNGATtIz1PX1qT+xbb/AJ6X3/gbN/8AF19GfLmJ/wAKm+Hv/Qh+FP8AwU2//wARSf8ACpvh7/0IfhX/AMFNv/8AEVu/2Nbf89L/AP8AA2b/AOLpP7Gtv+el/wD+Bs3/AMXRcDD/AOFT/Dz/AKEPwr/4Kbf/AOIo/wCFT/Dz/oQ/Cv8A4Kbf/wCIqHV9XttGmSOfRfEknnSmGDyr9S1wwyfkT7RvPAJ+7wAScAGtj7NYR2S3l3LfWaEKXFxqEi+WTjAY+ZjOSB160XAzf+FTfD3/AKETwr/4Kbf/AOIo/wCFTfD3/oQ/Cv8A4Kbf/wCIqWHUvD0s93CdRuIvsxG55NRkCOCucq3mYIHOe4xyOlS6rLpekW9rcSS6hKt1NHBEIr6Q7ix68uBtC5YnsFJp3EVv+FTfDz/oQ/Cv/gpt/wD4ij/hU/w8/wChD8K/+Cm3/wDiKItZ8MT391ZHV5IpLVokLSam6q5kHyhT5nJJIH1NSX+oaBp0ksV3darG0K+ZIfMuyI0+bDMQcBTtYAngkY60DIv+FTfD3/oRPCv/AIKbf/4il/4VN8Pf+hD8K/8Agpt//iKTR9Y0TWbx7KF9ZiuFkmQJNLcruETBXbO7AGSByQfanR6rohtLu7nl1a3t7SaaGWR7i4Kr5TFWYlWIC8Hk4pXAT/hU3w8/6EPwr/4Kbf8A+Io/4VP8Pf8AoQ/Cv/gpt/8A4itGzt9PvmkWJtWHl4yZZbqMHPoWIDfhnHeqVpe6PevD5EupvHNdS2aTfapghkjDbsEvyMowBHUqadgI/wDhU/w9/wChD8K/+Cm3/wDiKP8AhU/w9/6EPwr/AOCm3/8AiKsa5daL4eginvry8RZZo4QP7QkGC7hQfmkHALDPtTLO/wBF1Iyf2dNqt6I5fKdobi4KA7Q33ywUjawPBOc8ZoAi/wCFT/D3/oQ/Cv8A4Kbf/wCIo/4VP8Pf+hD8K/8Agpt//iKh1fXtA0XWIdMuru98yWF5B5d9PI+4NGoQIrFix8zIwP4TVDwz4y0bxNfpZQ2fiSB5LeG4DyG8CASb+CxwFA2dTwc8HrQgNT/hU/w9/wChD8K/+Cm3/wDiKP8AhU/w9/6EPwr/AOCm3/8AiKq6h4hsNO1UaZJpfiF5jMsKst8Ah3B2DZM4wu2KRucHCHjJAN3SNQ0rW7+8tbVtTK2sUchla7nUPvaRcAFgeDE3PQ5GM0WAZ/wqf4e/9CH4V/8ABTb/APxFH/Cp/h7/ANCJ4V/8FNv/APEVuf2Na/8APS+/8DZv/i6P7Gtf+et9/wCBs3/xdAGH/wAKn+Hv/QieFf8AwU2//wARS/8ACp/h7/0InhX/AMFNv/8AEVNpFzpWt3WqWttJqXmaZdfZJ915MBv2K/Hz9NrrU2tHS9BsheXs9+sRljhGL2Xl3YKoyXAGSRySBSv/AF67CKX/AAqb4e/9CJ4V/wDBTb//ABFH/Cpvh7/0InhX/wAFNv8A/EUun6lpOpaqNMibUhP5LT5/tBnXaGVeqStg5YfrVbXdYtdHuLuCK11K6NtDGxK38/zSyPtjiABJyQCxP8IAJ60NpDWpY/4VP8Pf+hD8K/8Agpt//iKP+FTfD3/oQ/Cv/gpt/wD4irdpNpF4iyJPqgjMRm81prpYtoAOfMJC45z15FVr7WfDOnXFlDPq0/8ApkvkRumoSsofBIDEP8uQDyeOOoyMsQ0/Cb4e/wDQh+Ff/BTb/wDxFH/Cp/h7/wBCH4V/8FNv/wDEVpWaaLqLTJZanJdNAwSYQalI5iYgMA2H4JBB57EVTsL7R9Sa1+zyaq0d080cMrXU6o7RnBxl8kHDFSBghSemMg7EP/Cpvh7/ANCJ4V/8FNv/APEUf8Km+Hv/AEIfhX/wU2//AMRVjW7vRPDywG/vrmITSrEN2oyLtz/Ed0g+UdzSWV5o+qKzafLq12iStCzxzXOwMpIb5iwBAI7E57ZouIg/4VP8PR/zIfhX/wAFNv8A/EUf8Kn+Hv8A0IfhX/wU2/8A8RVfU/EOgaTrR0y4ub5pfI80CG9nldm3bdgjRixPBPA6A1W8K+LNH8U3Qt4bPxFbu0MMwaX7YqfPHvwWOFXHTJPPGM0bjNH/AIVP8PP+hE8Kf+Cm3/8AiKP+FT/Dz/oRPCn/AIKbf/4iql14gsLTVF02TSvEPmtOIA/9oAJkgtnJuOm0FvXHGM8Vf0K90rxBNcpZNqZjgWJxI15OokWRdwIBYHseopXAj/4VN8Pf+hD8K/8Agpt//iKP+FTfD3/oQ/Cv/gpt/wD4itz+xbX/AJ63/wD4Gzf/ABdH9i2v/PW//wDA2b/4ui4GH/wqb4e/9CH4V/8ABTb/APxFH/Cpvh7/ANCH4V/8FNv/APEVuf2La/8APW//APA2b/4uj+xbX/nrf/8AgbN/8XRcDD/4VN8Pf+hD8Kf+Cm3/APiKwPFnwa0l9NlufB1laaFqsKs0MVsvlWtweuySNflAOMbwNwznnkHtYYFs9ZgjjkuSslvMzLJPJIDho8HDE8/MfzrUqZxjOPLJXRdOpKnJSg7M82+D99/aHhU3ao6CWbdscYZDsXKkdiDwa0/i1fT6b8P9TvbSQxXNvYXksUg6o62c7Aj3BArO+E4P9haj/wBhS5/9Dq18Z/8AkmWtf9gy+/8ASKescLTVOkoR2X+Zti5udWVR7s+RD8Otbk+FsV9Ya/qV3FcxxSro8UbGNi8i8YDc4J3dO1dR8Dfhxr/hH4ieEtS1e4SBLm/kiFgr7iG+yXBDtj5cgAgdT8x6V2nw5H/Fv9B/68466Gz/AOR88E/9hd//AEiua6TlPbdN/wCPvVP+vpf/AETFV+qOnf8AH5qn/X0v/omKr1Azn9S09r5NTsrmx1R7e6nSQS2F59mkAVI+kiSI68pzgjI46E1hr4A0lMbbHxuMZxjxRecZ/wC3uu8ooA4X/hBdM/59PHP/AIVV5/8AJlA8CaZ/z5+Of/CqvP8A5MruaKYHEf8ACC6Z/wA+vjj/AMKm8/8AkumnwHpu7P2Xxznpn/hKbz/5LruqKQHDHwJpp/5dPG5+vim8/wDkyj/hBdNPW08cf+FVef8AyXXc0UgOF/4QTTM5Fn44B/7Gm8/+S6aPh/pPX7D42zu3/wDI0Xn3vX/j7613lFMDhW8C6YQVNp45ORg/8VTec/8Ak5Sf8IHpWwD7F442jGF/4Sm8wMdOPtdd33opAcKfAWlFgxs/G+V6H/hKbzI/8m6hj8F6f9tmt/s3jEKsccgUeJLsSAsXzuf7Vlh8vALEA7iANxLegVRh/wCQ5d/9e0H/AKHLTA8J+DfgzTJ/Cloxl16+/wBEtj5mn63eW8Z+UnIXzo8A9htGPQVtar4R04eJvD9qP+EiiRdTysba5dec+bG7+RZBOSD8gIO4AKsgBG8q9j9nj/kR7D/rws//AEA1va3/AMj/AOGP+wuv/pt1GmBaHgXTR/y6+OMen/CU3n/yXSN4B0lhhrLxuwyGwfFN51HOf+Puu7opAcFJ4C0mVdslj42dcg4bxTeEZByP+Xz1FKPAelhdosvG4XOcf8JTeY/9LK7yimBwv/CCaZuDfY/HGQMA/wDCU3mQP/Az2FS23g7T7S7guksfGbyQSLIgm8SXMqZByNyPdlWHHIIII4IIrtaKQFD+0rn/AKA9/wD99w//AByj+0rn/oD3/wD33B/8cq/RQBQ/tK5/6A99/wB9wf8Axyj+0rn/AKA99/33B/8AHKv0UAZkLXFzqsMz2NxbRxwSoTK0ZyWaMjG1j/dNFadFAHD6Z/rviX/2E/8A3FWdVfip/wAi9bf9fa/+gPVrTP8AXfEv/sJ/+4qzqr8VP+Retv8Ar7X/ANAeunCfxo+pzYz+DI5/4Mf8i/4n/wCxog/9E2Veq63G8ui38caM7vbSKqqMliVOABXlXwZ/5F/xP/2NEP8A6Jsq9i7Vnif4svV/maYf+FH0RnrrVtz+6v8Ar/z4zf8AxFH9tWv/ADyv/wDwBm/+IrQo4rE1M/8Atq1/55X/AP4Azf8AxFH9tWv/ADyv/wDwBm/+IrQ4o4oEUP7btf8Anlf/APgDN/8AEU19Xs5EZHt711YEFWsZiCD2+5WjRTGYlzJo15pv9mTadcNY7Fj+z/2fMECrjCgBMADA49quf2zbf88r7/wCm/8Aiav0UAYmnNo+kxeTYafc2yYAxHYTDIHQfd9z+ZqWxutN061jtbW1vo4YwQqizm4yc/3fU1rUmaAKP9sW3/PK/wD/AACm/wDiaP7Ytv8Anlf/APgFN/8AE1fooAof2xbf88r7/wAA5v8A4mj+2Lb/AJ5X3/gHN/8AE1f4o4ouIof2xb/88r7/AMA5v/iabpLeY9/KI5kSS4DL5sbISPKjGcMAcZB/KtHiigDPn/5Dtp/16z/+hxV5/wDBb/kUpf8Ar9l/ktegz/8AIdtP+vaf/wBDirz74Lf8ijL/ANfsv8lrSPwv5ES+OJf+In/Ig+Pf+xcuf/QLqqPwJlWP4QeFS7Bd1moGT1O41t+JtGufEXh3xZotkYxdahostpCZDhd8n2lVyewyRXzf8SNH+LHgn4NxaBrcPhqHQ9Ne3RbiyllN2GEgKHJIX72OQKzZp1Or1n/jwf8A3k/9CFfS4r4b8DXXj2fTiNZj3aYdm2W9yJsbh93HJH+968GvuQV5GU4d0Izg2nr0PbzrErEShU5WtOvqUpf+Q5Z/9es//ocNX6ozf8hyz/69Z/8A0OGr1eseIFQ3skMVnM9xII4VRmkYnooHJ/KpJZUgjaSRgqICzMegFVJdS08QW0slzAYbtlSB92VlLDKhT3z2oA8R1/w5r02p6a6afq6G/uLq4SFJyNoaJyqKDeRgEJtByq8g5LDiu98NT2Op+ELlbeO0tdasn336Xz5+z3qAEySnJJAwGU5wVC4IGMdTe6doNpqKeIL230+C+hiMC38yqsioxHy7z2JA4z/OoxrvhvVporZNR0q+lEnyRrKkpVwM9ATginESOJ+03A1K8u9WvZdN0LxBeqY53jXkRqkaRMXBVEm2kgkcg7RhmBrb8ZRFdZ8K6la+bdNFeOlvBE+1HLWs/JI45wvJ4AB9a6bVr/SrKBI9WubOGG5byVF06qsjYJ2/NwThSce1RWmpaJqtwILO70+7lswswSGRHMIIZQwxnbkbxn6in0sUeaeGNK1bw3401S9sNEu767vLiAau4lhQMJEJMg3SdEP3VGflJHWq3jKXU/8AhKNQtHmnaXUrhbGKO2V9nlNbERqx+6xDs0hyOMnsM16w1/pVpPeO9zaQSR7DcszKm3Iwhc+/QZqKP+wteWRof7M1EI3zldkoVsd+uDjH4UiWrnKeBpv+JhrUP2uS5gTdI8EiRlp5Wd2kkjwoLRHKheozuGcg1g6pol5F4X8QxQ6WmlhnnvpbpUVZWjDtLFFwCOeMjPA3DAJFelDUdHltINXEtq1uiHyrnAwqkhTg9gTgVenghu4HhuIY5oZV2vHIoZWHoQeCKXVMLfmZEK6lqMN9YajvtYo3Cx3du203MLLnjujDJUkemVIz8vG6o09zon2OC+ktrJ9UtLLTViSNH8gSRq0q4XIORKUYY4UHmu+F7peqILZZrW7WTzB5YIkVvLYK49MqxAI7Glu202C8sftYthdPI0doZFG/eUJYITyCVUk47CnbUfQ4/wAdaPqb6Loll/a906Q6hZtcagwjWWRvPRV+VVC53Nu+7j5MY5qlptrOrWEj3d5s1nWZ45pEleH7RELaUB1CkbdxhVwVwcY5xXZX+r+GryWLTL690m4eeRfLtpZI3LuDkYQ9SCPzq1Nd6aLpreVoDcWUQuQhXLQoQyhx6ZAcce9NO1/P/gf5Cf8AX4/5nmvjTQta1Lx5NLavcATaJcW1vbRCNvNTdGGLl2UDcX9cgIDzkiqPw0QP4qs7618OG3SG3uLRmihtYcRtImyY7XDMh8pgCoYZbgnmvTAnh7xNOzZt7yWBPKYAnhHVX2MO6spQlTkHjIqKa78IahqGnGafRLi9tpD9i3PE0kTlTkR9wdoPTsKI+7Zev5v/ADG9bv8ArZf5HD+JPC1hompw69J4Zsrq5fWYGkRLaIRskgMCoG4JO6bzCSvLDHoR0PhXTbrQpte1BrGWTEUcdtYwKiyyRx+Y4IzKRlmlZRkqPl7A8a0Xhfwffz3Ij0HQ55IZdk3+hxErIQGIPy9SGB/GtHTfD+j6RI8mm6TYWMjgK721ukZYDsSoGamO1v66A9WJoGv2XiTTlv7HzRGXaN0miaOSN1JVkZWAIIII/lkVavr63062e5uH2RoMnjJJ6AAdySQABySQKsVnT6ppLafJqss0MltaGQtNjd5RTKv7gjDA/jTA4zRB/wAIM763rXl2dtrkzzX0r8LaSs5MXmNnAHllY2bOAUXsc1veKpodmkXc0+NNjuTLcypIQuzyn2HIOT8/l4xyTjFdBdvBFaStc7TAqEuCuQV78d/pWY+qaM14Ha3la8hj3L/oEplVPYbM44I4pPUDltBuLsat4ajv7meDUpYrmS7tridlYqVyqhWPzhcgHaDgjJ9aqXmkabp3izxReNHPLetZWkkZSV1kmnf7QqgbSMnAVAOw/GvR4nhvIopwu5T8yFkIIyPQ8g4JHr1FVrM6Zf3Et/axQS3EbvbPOIwHDISGTcRng59qJWejA5HwRHHZa02j2mpveQ6Ppdta3CrcmWNLj5sgjJCttRTjggMPWr3hG/itm1pJI7o51SflLaRweR3VSK6O71HT9MaIXdzBam5cqhkYL5jBc4ye+B+lNtdX07ULma1tb2CeaFFeRI3DbVYkA8eu0/lT639fxdyeXS3p+ViC48jX9PljEt7awFmjmLRPbuwAOQN6ggc/eH4GuH1BrrU9OsrVdQmtYZ9WihsFhSJJI7Zeki4XjIjkKkcbCOOtdlqGv6MGubS7Bl+z3EEEiGBpB5shUoBwcnlSccqME4HNaLRWMt+jslu17ChKMQDLGjHnB6gEj8cUmv6/Ep/1+RxXjrStUuLbw/arrNxELe8iaW/xGJJZSCqEqF24BYseAMhRg81Botm6jSvMuLyNNY1O9kk8u4eLzo8SujAKw27tqvxjrXZ3smkXt5FpN+ltNM6meKC4j3B9vUruGCVyM45GRnGRVxreJ5EdokZ487GIBK54OD24px0v6/5f5A43t5f8H/M8n8ZeH9Z1bxlrUkUk/wDpOjtbR2kQiZTFuddzmRlAyzbsg5AVR3IpnwuzL4jTULfw4bNGtZIGaGK1iCxlw0cp2uGZHVBgqrDJwCQCa78T+GvE81pIFW8N1bvJCzRuEmhRlDZyNrLl1OG4OQQDjIuajbaIuraVNe2NvJqAd4rKdoAzxHYWYK2PkBVT6Z6Ul0+f6/16hNXvfy/T/I871fwvYeHtXsNUfwtZTzT6svnKltCIwskYhVUbr8ud3Kjc2fu546Twnp954btNYvJbCaUr5aQWFsiLKYo02rgGUjJ54LDpUsFj8PLueKC10jQLt5HKj7PYRyqjDqHZVIQ/7xHNaVqPDHhua/W0s7DTngiSa6MFsIsod+3JAG77r8ckfjTT0/ryE97/ANdf6+RoaDrtl4k0uHU9PeRrebcB5sbRurKxVlZWAKsGBBBHUVoVlaf4n0fVHkS01CCRoyAwztPKLIMA4z8rKeOmaafF3h8b/wDidaeQgcuVuFOwLncW5+UDack9CMUDNeiq9nqFtqAlNtKJRFIYnIBA3YB4J68EcjirFIChL/yHbT/r1n/9Dhq8elUZf+Q7af8AXrP/AOhw1epgec/Ccj+w9Q/7Cdz/AOh1Z+NH/JMtb/7Bl9/6RT15f4an+MQOqL4Rt/CraT/aM+w6gZRLndznaQK0fEWm/HTxH4fvtF1q28GJHf20lrbm2aUHfIhRtxJOB5TTY/2gvbIrOivc+/8AM1qu8vuMD4c/8iBoH/XnHXQWf/I+eCf+wu//AKRXNU/D/hy+8IaFp2gal5P2yxt0il8p9y7sdjgZFXLP/kfPBP8A2F3/APSK5rQxPbtO/wCPzVP+vpf/AETFV6qOnf8AH5qn/X0v/omKr1AwooooAKKKKACiiigAooooAKKKKACiiigBM1Rh/wCQ7d/9esH/AKFLV6qMP/Ieu/8Ar1g/9CloA8s/Z4/5Eew/68LP/wBANb2t/wDI/wDhj/sLr/6bdRrB/Z4/5Eew/wCvCz/9ANb2t/8AI/8Ahj/sLr/6bdRpgeiUUUUgCiiigAooooAKKKKACiiigAooooA4bS/9d8Sv+wl/7irOqnxU/wCRetv+vtf/AEB6t6X/AK74lf8AYS/9xVnVT4qf8i9bf9fa/wDoD104P+NH1OfF/wAGXoYPwZ/5F/xN/wBjRB/6Jsq9hFeKfCO9EEviHQo42e4nvLbWokBUGVB5UcgXJHK+QpOf+ei164NQuf8AoEX/AP33D/8AHKnFRarSv3Y8NJeyjbsjQpKpf2jc/wDQIvv++of/AI5Sf2jc/wDQIvv++of/AI5WBuXqKo/2jc/9Ai+/76h/+OUf2jdf9Ai+/wC+4f8A45QBfx7UYHpVD+0br/oD3/8A33D/APHKP7Ruv+gPf/8AfcP/AMcpAX8D0ox7VQ/tG6/6A9//AN9w/wDxyj+0br/oD3//AH3D/wDHKAL9FUP7Ruv+gPf/APfcP/xyj+0br/oD3/8A33D/APHKAL+B6UYHpVD+0br/AKA9/wD99w//AByj+0br/oD3/wD33D/8coAvUVR/tG5/6BF//wB9w/8Axyj+0bn/AKBF/wD99w//ABymFi9RVH+0bn/oEX//AH3D/wDHKP7Ruf8AoD33/fcP/wAcoCwTf8hy0/69Z/8A0OKvPvgt/wAijL/1+y/+y11XiLxB/YNrc+Ib6zntrXTrKckSFCZHLR7EUKxJLFcD3IrlfgjazWXglLe4fzLhJT5r8fM+xNx/PNbQT9nKXoYzklOK9TutLx/al3j/AJ4Rf+jZ6nvre3uHxcQRTBGDqJFDbWHQjPQ+9V9K/wCQpd/9cIv/AEbPVq55mYVizZHznrQA02QDplf/AEIV9MDoK+aNb/5B0v8AvL/6EK+l+1fPcP8A8Kfr+h9DxF/Gh6fqUpv+Q5af9es//ocVXqozf8hy0/69Z/8A0OKr1fQHzxl+JUuX0K+FrLDDL5LfPLEZFAxzwGU5x78V5Daz6osmim81C3hghtdJJktoyzqubgggHIVhjkENnjpXtGp6Za6vaNZ3iyNA5BZUlePdg5wSpBI9R0I4IIrFn8DWH2mOfTbm50fy4UgEdikIQKhYrhXjYAje3THWkuvy/AHqreTX32/yOT1y+N74C8N3t1sv7qYqBLddA5jclyvClsKQM4A3Hp1rntLgsheW7XWm6f8AY57kNOBFG24lQ2B5bFiSADgA8H0r1CPwbapbJDNfXl1seaUSXDKW82UFS/CgZCs4AAx8x4qm/wAPLZFtZbHV9SstQtkWMX6eVJI6gAYKyIycgAZCgjsapOzbE7tWM74qzXC2ulzWBdrmwu1vHRNw/dbHjI3KykM2/CKDlmwMYzin4O1FovFly0kGqO16osA07BlRrdXkchjM7EZm2HHAZSPWu21PQIdUlt5JZ5UeDkSLjcD6qSCEPJ+ZQG54Iqtp/hCx0zV49RhmuSsFu1vbWrMpitw7BpGXjcWcquSzHpxjJy09ym7r+vU85u/Putf1a6lS+toJL2xjWG7nKyHGHWTapIGCgIB5xkfLzno/Ctzf38ery6ftgutSsLTUIpblizI0qOq7hyBtWMcDPNbkngi1ubq+lu726uIr6VZZYn2Ywq7QgIGQuM9OecZxxWhp/h+30zUJ7q1lnjinjVDa78woRnBVT93qeBge2eaFpFon+vxPJoPD91D4SsdWlu9UmRbSOO2ESwuIvMmjMi5cZwSibR7EdMAemqmsSaLNFaSXS3sruFl1Hyg8IzjdiIbT6qMdxn0pI/BltHo0GknUL/7JDGiBFdBu2nIP3eucVfTSJEtpYU1O9Jmfc0juGdRgAheMKDjsPXHJzUjOCF/qcWn6Va6Pp2nWDWupvp1ncPePMHKhxIXHlqWVirg/NncA2cim+P31afxD4NiSzaa9FxJJdQ2188cSn7NMAqPgHcRvwcD7vOM12p8J2g1DS7lJ7iK20ze0Fkm3yfMKlfMPG4sFZ/4sHcScnFTa74eh1x7CR7ia3eynadGiwCS0TxEZI/uyH8cU0+/9f1uH+TON8JX+r2o0fSbaewitr8X16jPas8iolwuBnzACWWX72BjHSuY8Xtd3fjbxI8aB7RdNt4rc3F2FDS7rnLBHOxxu3KFPAI3DpmvWo/D1jb3+nXUCGEadayWkEKYCKj+X29vKUD6mobzw39o1a51KK/mtpLq2jtJfLUbgiM5G0noT5hGcH2weabt+f9fcPRRa9PzPPvhsdFi8RXElo1ogntt1udtt5zumY3KCMbuFjXI6HrznNMazFp4itpNR8QXEB1T7eiqzwAq7eT5aPtQbd0cDFs4AxjIPX0Ox8LQaTcxvpd5d2NosPlNZRFDC5wAr4ZSwYAdQRn+INUF74MTULmzuZ9Y1FpbKYzwny7cYcoyEn91z8rt19aL/AJNAnb+vIyvh46WGkarfXUkVvZG7zHLJKm3ZHDFEWJVioG6Nh1PSu0Rw6hlIZSMgg5BFVdP0trJJUlvrm+WQ5xcCPC8AYAVVGOP1NGj6LZaDp8WnadEILSHIjhBJVASTgZ6DngdAOBRe5mo2Lcm8xsI2VXIO0sMgHtkZGfzFeF6pNqExvbcanp5WCy1lyqx7pIwbxd3ybvlJ/hYlvoe/uVzbJdW8lvJv2SKVbY5RsH0ZSCPqDWNf+D7K6FoLOaXS1tY5YUWzih2tHIVLqVkRlwSingA5HXk0lo7/ANbF9LHNLdRSeDvE1/NeT65DazS3EAnlJEphUYXEe0FDJG2VAAPIwa88nfTLKC6eQeLPkLF7t9PAKKj/ADAv5mQgJwQRx0PPFeyx+EFaa4lvtX1HUvtBh8xbnywuyJiyoBGiDG45OQSemccUxfAulMkwuXvrp3uZLtJHuGVoJGdmzHs2hCNxGQMkcEmi1hdLEvhm6sLLwrDPHEtlZwRuz7rN7RVCklm8t8so4JySc9cnNYvw7LaZJe2F4JIptSkfWYkkGCFlbLp9UbGfTeK6NfDsTRQQXV5d3tvCM+VcMGEjZyGc4y2Ow6d8EgES6xoNjri24u0kD20omhlhkaOSNh6MpBwRkEdCDg0X1uHSxh+Kj9o17TYXlWGK1trq/L5cHKBExlWXjErd+oFVPDc1ymu292VZv7W0lbl4pN3moYyNqZZ2H/LZs84yB710GoeHotWuFa+neW2RTH9lVQFkU4yJG5ZgSvIBCkcMDSx+GNPtdXTVLJXspvm86O3OyK43dS6YwWzzuGG464yKSdv69f8AgfcJq/8AXoeZ6houpS+H/FMl/NFdTrdTrEDJ5ZhuZ4o1QoQpyV37EPB/EjHfaLCJdT1PT5NPtLNLVIFWWzkYSNuGSGcBT/Cv51ZXwtam+muJpppopbn7Z9nYjZ5oVVVvU7dgIHY89QMWtH0OHRWvHjuLq4ku5vOke4k3sPlChQcDgAAevckkk0L4UvJfkNX1v3f5mT4b0u21jSbPUL43M12jy7ZTcyZT52X5fm44GOKs6nocosJrGweT7PdOz3RuLyUuVOAURjuKAjPTGOcDJyLGn+GLHTbRLWGW/wBiFiM3kvcknowHU1JJoUDafHpyXN4touQ6NO0rzKf4Wkcs+OexB6DOOKBnGvqGra5a+FptJtNP0p5nkNq4laZUiWJyFKhUyjBVBGeMgjkA1D4zttS1Pxf4fSFIGit3f7Uks0qxTSGFjtXB+Uqisc4PLr15rtIvDdlDq0WpI9xmCIxQ25lJhhzgEqn8JwAOOAM8cnL9a8P22um2FxNcRi3dmxCwG8MjIykkE4KsRwQfem2S0ct4OvNWkttG09Lq3gtpbFb7i3Jk2lwdmS2MENgnaD6YrjPEhvF1rxHfTXdslldvZLDFc3RSUQ+aytsMkgRgyrK2CVwrDBGK9hTSbeLUY76Pcjx2/wBmRFwEVMg9MdeBVe68PR3N9c3YvLyA3SRxzpEygOibsLnG5fvnJBB6YIov/Xz/AMhptO/9bf5nnngHV9EbXLt7LUYYYbq1WSJRLA8skqjYWRFklYkIqjGB9DnNZsz6TC0+l6l4tgsptTtr6EqbiEiGWaWSTy5do4wCc5IGRgHoK9Vt/DkVhMradeXVhbBNhtIPL8knGAwVlJUj/ZIB7g0s+gfapbWabUr55LWQywtiIbWKMmeE5+V2HPrQm2030/4P+ZS0/D8DO8BXUGoaff31pJ5tpc38rwTDpKowu4e2VI9DjIrp+1VLGwNm8zm8ubgykEiZgQuBj5QAAO3A+vc1boJRQl/5Dtp/16z/APocNXqoy/8AIdtP+vWf/wBDhq8aAZ5x8KP+QJqH/YTuf/Q67TVPvaV/18H/ANEyVxfwo/5Amof9hO5/9DrtNU+9pX/Xwf8A0TJWND4Pv/Nm9f4/u/JHmvjL/kZLv/gH/oC1zyTx2XinwpqM8gSC11ZN5PrLFJAv/j0y10PjH/kZLv8A4B/6Atc7qVhDqdhNaTBtkqFCVOCPcHsR1B7VsYHtFtqlhZ3+px3N7bQObhWCyyqpI8mPnBPsatf29pH/AEFLD/wIT/GuN+HnxJj1byvD3iGWO18QxLtUsdseoqP+WsR6FiPvJ1U5424J9AxQMof2/pH/AEFLH/v+n+NH9v6R/wBBSx/7/p/jV+igCh/b+kf9BSx/7/p/jR/b+kf9BSx/7/p/jV+igCh/b+kf9BSx/wC/6f40f2/pH/QUsf8Av+n+NX6KAKH9v6R/0FLH/wACE/xo/t/SP+gpY/8AgQn+NX6KQFD+39I/6Clj/wCBCf40f2/pH/QUsf8AwIT/ABq/RQBQ/t/SP+gpY/8AgQn+NH9v6R/0FLH/AMCE/wAav0UAUP7d0j/oKWP/AIEJ/jWdca9p1jJrOsNdwNaWVhHNNIsgKqqGZjkj2reZlRS7MFVRkknAArx74geOY/Gsr+GtBcTaNG4/tPUBzHc7Tn7PEf4xkDew4wNoyS21gWPgVYS6Z4Vt7Kb/AFsFlaI/swQ5H4GtbW+PiB4Z/wCwwn/ps1GnfDoYN+fUxf8As9N1vn4geGf+wwn/AKbNRoA9FooooAKKKKACiiigAooooAKKKKACiiigDhtM/wBf8S/+wl/7irOqnxU/5F62/wCvtf8A0B6t6Z/r/iX/ANhL/wBxVnVT4qf8i9bf9fa/+gPXTgv48PU58X/Bl6Hk7G8s7u21LSrsWepWb+Zbzldyj+8jrkbkYZBH4jBAI9S8O/HDQrmBYfE6t4ev0X94Z8tavgAlknA2hef49rcHjvXmBoxX0GJwEK/vXszwcPj50fdtdHt3/C2Ph7/0PnhX/wAG1v8A/F0f8LZ+Hv8A0PnhT/wbW/8A8XXiHkRH/llH+Qo+zw/88Y/++RXB/Y7/AJ/w/wCCd39rf3Px/wCAe4f8LZ+Hn/Q+eFf/AAbW/wD8XR/wtn4ef9D54V/8G1v/APF14f8AZ4f+eSf98ijyIf8Ankn/AHyKP7Hf8/4f8EP7W/ufj/wD2/8A4Wx8PP8AofPCn/g2t/8A4uj/AIWx8PP+h88Kf+Da3/8Ai68Q8iH/AJ5R/wDfNHkQ/wDPKP8A75o/sd/z/h/wQ/tb+5+P/APb/wDhbHw8/wCh88Kf+Da3/wDi6P8AhbHw8/6Hzwp/4Nrf/wCLrxDyIf8AnlH/AN80eRD/AM8o/wDvmj+x3/P+H/BD+1v7n4/8A9v/AOFsfDz/AKHzwp/4Nrf/AOLo/wCFsfDz/ofPCn/g2t//AIuvEPIh/wCeUf8A3zR5EP8Azyj/AO+aP7Hf8/4f8EP7W/ufj/wD2/8A4Wx8PP8AofPCn/g2t/8A4uj/AIWx8PP+h88Kf+Da3/8Ai68Q8iH/AJ5R/wDfNH2eH/nlH/3zR/Y/9/8AD/gh/a39z8f+Ae4f8LZ+Hn/Q+eFf/Btb/wDxdH/C2fh5/wBD54V/8G1v/wDF14f9nh/55J/3zR9nh/55J/3zT/sf+/8Ah/wQ/tb+5+P/AAD2/wD4Wz8PP+h88K/+Da3/APi6r3nxj8BW0LSQeKdM1FlwPJ02YXchJOANkW4/j2rxj7PD/wA8k/75p6qqfdUL9BR/Y/8Af/D/AIIf2t/c/H/gGn4w8Yah4/vIRPayafotrIJbezdx5s7gcSTYJHHO1ASAeSc4C+gfCz/kAz/9fTf+gpXl1eo/Cz/kAz/9fTf+gJVY7Dwo4flgupGCryrYjmkdbpP/ACE7v/rhF/6Nnq3cf68/hVTSf+Qnd/8AXCL/ANGz1buP9ca8M9o+dtTsYdSsbmyuFLQ3EbROAcHaRg/zr0Xwh8YtLi0yOy8Z3sWkalbqI3u7n5LW7A4EqyH5V3d0Ygg5HIwTwZOfzoxu4xmvhcBmM8HdJXTPvswy2GMSbdmup6vc/Ej4aXzxyyePPDavGGVWj1uKIgHGR8sgP8I/Ko/+E++Gf/RQdD/8KQf/AB2vKfs0P/POP8hR9mh/55x/kK9T/WH/AKd/j/wDyv8AVv8A6efh/wAE9X/4T/4Z/wDRQND/APCjH/x2j/hP/hn/ANFA0P8A8KMf/Ha8o+zQ/wDPNP8AvkUfZof+eaf98ij/AFh/6d/j/wAAP9W/+nn4f8E9W/4T/wCGf/RQND/8KMf/AB2j/hP/AIZ/9FA0P/wox/8AHa8p+zw/880/75o+zw/880/75o/1h/6d/j/wA/1b/wCnn4f8E9W/4T/4Z/8ARQND/wDCjH/x2j/hP/hn/wBFA0P/AMKMf/Ha8p+zRf8APJPyFH2aL/nkn5Cj/WH/AKd/j/wA/wBW/wDp5+H/AAT1b/hP/hn/ANFA0P8A8KMf/HaP+FgfDP8A6KBof/hRj/47XlP2aL/nkn5Cj7NF/wA8k/IU/wDWH/p3+P8AwA/1b/6efh/wT1b/AIT/AOGf/RQND/8ACjH/AMdo/wCE/wDhn/0UDQ//AAox/wDHa8p+zRf88k/IUfZov+eSfkKP9Yf+nf4/8AP9W/8Ap5+H/BPVv+E/+Gf/AEUDQ/8Awox/8do/4T/4Z/8ARQND/wDCjH/x2vKfs0X/ADyT8hR9mi/55J+Qo/1h/wCnf4/8AP8AVv8A6efh/wAE9W/4T/4Z/wDRQND/APCjH/x2j/hP/hn/ANFA0P8A8KMf/Ha8p+zRf88k/IUfZov+eSfkKP8AWH/p3+P/AAA/1b/6efh/wT1b/hP/AIZ/9FA0P/wox/8AHaP+E/8Ahn/0UDQ//CjH/wAdryn7NF/zyT8hR9mi/wCeSfkKP9Yf+nf4/wDAD/Vv/p5+H/BPVv8AhYHwz/6KBof/AIUY/wDjtH/CwPhn/wBFA0P/AMKMf/Ha8p+zRf8APJPyFH2aL/nkn/fIpf6w/wDTv8f+AH+rf/Tz8P8Agnq3/Cf/AAz/AOigaJ/4UY/+O0f8J/8ADP8A6KBof/hRj/47XlP2aL/nmn/fNH2aL/nmn/fIpf6xf9O/x/4Af6t/9PPw/wCCerf8J/8ADP8A6KBon/hRj/47R/wn/wAM/wDooGif+FGv/wAdryn7NH/zyT8hR9mj/wCeSfkKP9Yv+nf4/wDAF/q3/wBPPw/4J6t/wn/wz/6KBon/AIUY/wDjtH/Cf/DP/ooGif8AhRj/AOO15T9ni/55p+VH2eL/AJ5p+VP/AFh/6d/j/wAAf+rf/Tz8P+Cerf8ACf8Awz/6KBon/hRj/wCO0f8ACf8Awz/6KBon/hRj/wCO15T9ni/55p+VH2eL/nmn5Uf6w/8ATv8AH/gC/wBW/wDp5+H/AAT1X/hPvhn/ANFA0T/wox/8dpf+E/8Ahn/0UHRP/CjH/wAdryn7PF/zzT8qPs8X/PNPyo/1h/6d/j/wA/1b/wCnn4f8E9W/4T/4Z/8ARQdD/wDCjH/x2j/hP/hn/wBFB0P/AMKMf/Ha8p+zxf8APJP++RR9ni/55J/3yKP9Yf8Ap3+P/AH/AKt/9PPw/wCCerf8J/8ADP8A6KDof/hRj/47R/wn/wAM/wDooOh/+FGP/jteU/Z4v+eSf98ij7PF/wA8k/75FH+sP/Tv8f8AgB/q3/08/D/gnq3/AAn/AMM/+ig6H/4UY/8AjtH/AAn/AMM/+igaH/4UY/8AjteU/Z4v+eSf98ij7PF/zyT/AL5FH+sP/Tv8f+AH+rf/AE8/D/gnq3/Cf/DP/ooGh/8AhRj/AOO0f8J/8M/+igaH/wCFGP8A47XlP2eL/nkn/fIo+zxf88k/75FH+sP/AE7/AB/4Af6t/wDTz8P+Cerf8J/8M/8AooGh/wDhRj/47R/wn/wz/wCig6H/AOFGP/jteU/Z4v8Ankn/AHyKPs8X/PJP++RR/rD/ANO/x/4Af6t/9PPw/wCCes2/xE+GltOJ4/HvhxpAhQGXXo5MAkE43SHH3RWV4p+Mukf2bJbeDr221vVJ0KwzQfvLW3PTzJJB8px12A7jjHHUeefZoR/yxT8hTxtUcYFRPiFtNRp2frf9C6fDkVJOc7r0t+p6F8ILMaf4WNorSOIZtu+RizOdi5JJ6knJNdpqnD6X/wBfB/8ARMlcn8M+NDnH/Ty3/oK11mq8Npf/AF8H/wBEyV7mXzc8NCUtzwsxio4majtc828Zf8jJd/8AAP8A0BaxTW14y/5GO7/4B/6AtY3euw4CrfafaanB9nvbaG4iyG2SoGGQcg89waW2tr2xTy7PxD4igiHSL+05nVfYbmOB7DgVYooAb52sf9DN4g/8Dno8/WP+hm8Qf+Bz06igLjfP1j/oZvEH/gc9Hn6x/wBDN4g/8Dnp1FAXG+frH/QzeIP/AAOejz9Y/wChm8Qf+Bz06igLjfO1j/oZ/EH/AIHNR52sf9DP4g/8Dmp34frR+H60hjfO1j/oZ/EH/gc1Hnax/wBDP4g/8Dmp34frR+H60AN87WP+hn8Qf+BzUedrH/Qz+IP/AAOanfh+tH4UAUb3SjqzD+19R1TVodoQ219eSSQMO+6LOxj7kE1eACoqKoVFGFVRgKPQCiigDtfhx11D/tl/7PSa3/yP/hj/ALC6f+m3UaX4b9dQ/wC2X/s9Jrf/ACP3hf8A7C6/+m3UaYkeiUUUUDCiiigAooooAKKKKACiiigAooooA4XTf9b8TP8AsJ/+4qzqr8Vf+Retv+vtf/QHq1pv+t+Jn/YT/wDcVZ1r6/4etvElklpdSTRokgkBiIBzgjuD6mtsPJQqxm+hjiIOdNxjuzwvAoxXqn/CqtGHH2vUP++0/wDiaP8AhVejf8/eo/8Afaf/ABNe9/alDzPD/syt/TPK8H0FLg+gr1P/AIVXov8Az9ah/wB9p/8AE0f8Kr0X/n61D/vtP/iaP7Vo+Y/7MrdkeWYPoKMH0Fep/wDCq9F/5+tQ/wC+0/8AiaP+FV6L/wA/Wof99p/8TR/atHzD+zK3ZHlmD7UYPtXqf/Cq9F/5+tQ/77T/AOJo/wCFV6L/AM/Wof8Afaf/ABNH9q0fMP7MrdkeWYPtRg+1ep/8Kr0X/n61D/vtP/iaP+FV6L/z9ah/32n/AMTR/atHzD+zK3ZHlmD7UYPtXqf/AAqvRf8An61D/vtP/iaP+FV6L/z9ah/32n/xNH9q0fMP7MrdkeWYPtRg+gr1P/hVei/8/Wof99p/8TR/wqvRf+frUP8AvtP/AImj+1aPmH9mVuyPLOfQUc+gr1P/AIVXov8Az9ah/wB9p/8AE0f8Kr0X/n61D/vtP/iaP7Vo+Yf2ZW7I8s59BRz6CvU/+FV6L/z9ah/32n/xNH/Cq9F/5+tQ/wC+0/8AiaP7Vo+Yf2ZW7I8rNep/Cv8A5AE//X03/oCU7/hVejf8/eof99p/8TW9oHh+28OWb2lpLPJG8hkJlIJyQB2A9BXJjsZTr0+WNzpweDqUqvNIu6V/yE7v/rhH/wCjZ6t3P+sb/Paqmk/8hO7/AOuEX/o2erdz/rG/CvHPXPAaTJr0v/hWWk/8/N9/30v/AMTR/wAKy0n/AJ+b7/vpf/ia+K/sPE+X3n3H9vYVd/uPNM0Zr0v/AIVlpX/Pzff99L/8TR/wrLSv+fm+/wC+l/8AiaP7DxPl94f29hfP7jzTcaNxr0v/AIVlpX/Pzff99L/8TR/wrLSv+fm+/wC+l/8AiaP7DxPl94f2/hfM80zRmvS/+FZaV/z833/fS/8AxNH/AArLSv8An5vv++l/+Jo/sPE+X3h/b2F8/uPNM0Zr0v8A4VlpX/Pzff8AfS//ABNH/CstK/5+b7/vpf8A4mj+w8T5feH9vYXz+480zRmvS/8AhWWlf8/N9/30v/xNH/CstK/5+b7/AL6X/wCJo/sPE+X3h/b2F8/uPNM0Zr0v/hWWlf8APzff99L/APE0f8Ky0r/n5vv++l/+Jo/sPE+X3h/b2F8/uPNM0Zr0v/hWWlf8/N9/30v/AMTR/wAKy0r/AJ+b7/vpf/iaP7DxPl94f29hfP7jzTNGa9L/AOFZaV/z833/AH0v/wATR/wrLSv+fm+/76X/AOJo/sPE+X3h/b2F8/uPNM0Zr0v/AIVlpX/Pzff99L/8TR/wrLSv+fm+/wC+l/8AiaP7DxPl94f29hfP7jzTNGa9L/4VlpX/AD833/fS/wDxNH/CstK/5+b7/vpf/iaP7DxPl94f29hfP7jzTcaNxr0v/hWWlf8APzff99L/APE0f8Ky0r/n5vv++l/+Jo/sPE+X3h/b+F8zzTcaNxr0v/hWWlf8/N9/30v/AMTR/wAKy0r/AJ+b7/vpf/iaP7DxPl94f2/hfM803Gjca9L/AOFZaV/z833/AH0v/wATR/wrLSv+fm+/76X/AOJo/sPE+X3h/b+F8zzTcaNxr0v/AIVlpX/Pzff99L/8TR/wrLSv+fm+/wC+l/8AiaP7DxPl94f2/hfM803Gjca9L/4VlpX/AD833/fS/wDxNH/CstK/5+b7/vpf/iaP7DxPl94f2/hfM803Gjca9L/4VlpX/Pzff99L/wDE0f8ACstK/wCfm+/76X/4mj+w8T5feH9v4XzPNNxo3GvS/wDhWWlf8/N9/wB9L/8AE0f8Ky0r/n5vv++l/wDiaP7DxPl94f2/hfM803Gjca9L/wCFZaV/z833/fS//E0f8Ky0r/n5vv8Avpf/AImj+w8T5feH9v4XzPNNxo3GvS/+FZaV/wA/N9/30v8A8TR/wrLSv+fm+/76X/4mj+w8T5feH9v4XzPNNxo3GvS/+FZaV/z833/fS/8AxNH/AArLSv8An5vv++l/+Jo/sPE+X3h/b2F8zzTJor0v/hWWk/8APzff99L/APE0f8Ky0n/n5vv++l/+Jo/sPE+X3h/b+F8/uD4Zf8ga5/6+m/8AQVrrNW+9pf8A18f+0ZKoaBoNt4ftXtrZ5XV5DITIQTnAHYD0q9q33tL/AOvn/wBoyV9VgqTpUIwluj5LG1o1a8qkdmzzfxl/yMt3x2T/ANAFYtelan4OsNWvpL24muUkkxkRsoAwAO4PpVX/AIV7pf8Az83v/faf/E11HIcBkUZHpXf/APCvtL/573v/AH2v/wATR/wr7S/+e97/AN9r/wDE0AcBlfejK+9d/wD8K80r/n4vv++0/wDiaP8AhXmlf8/F9/32n/xNAHAZX3oyvvXf/wDCvNK/5+L7/vtP/iaP+FeaV/z8X3/faf8AxNAHAZX3oyvvXf8A/CvNK/5+L7/vtP8A4mj/AIV5pX/Pxff99p/8TQBwGV96Mr713/8AwrzSv+fi+/77T/4mj/hXmlf8/F9/32n/AMTQBwGV96Mr713/APwrzSv+fi+/77T/AOJo/wCFeaV/z8X3/faf/E0AcBlfejK+9d//AMK80r/n4vv++0/+Jo/4V5pX/Pxff99p/wDE0AcBlPejK+9d/wD8K80r/n4vv++0/wDiaP8AhXmlf8/F9/32n/xNAFL4b9dQ/wC2X/s9JrX/ACUDwz/2GE/9Nmo10Wh+HrXQPO+zSTv523d5rA4xnGMAetc7rX/I/wDhn/sMJ/6bNRoBHotFFFAwooooAKKKKACiiigAooooAKKKKAOb13wB4Z1i4udTm8OaHLrEq5W/msYmnEgXajeYV3ZXC4OcjAx0qle+Gdbu7qWdb+WAOxIjjv3Crz0A8uuxopp2JcbnEf8ACHa7/wBBW5/8GL//ABuj/hDtd/6Ctz/4MX/+N12+KMVXtGTyI4j/AIQ/Xv8AoK3H/gxf/wCN0f8ACH69/wBBW4/8GL//ABuu3oo55D5EcR/wh+vf9BW4/wDBi/8A8bo/4Q/Xv+grcf8Agxf/AON129FHPIORHEf8Ifr3/QVuP/Bi/wD8bo/4Q/Xv+grcf+DF/wD43Xb0Uc8g5EcR/wAIfr3/AEFbj/wYv/8AG6P+EP17/oK3H/gxf/43Xb0Uc8g5EcR/wh+vf9BW4/8ABi//AMbo/wCEP17/AKCtx/4MX/8AjddvRRzyDkRxH/CH69/0Fbj/AMGL/wDxuj/hD9e/6Ctx/wCDF/8A43Xb0Uc8g5EcR/wh+vf9BW4/8GL/APxuj/hD9e/6Ctx/4MX/APjddvRRzyDkRxH/AAh+vf8AQVuP/Bi//wAbo/4Q/Xv+grcf+DF//jddvRRzyDkRxH/CH67/ANBW5/8ABi//AMbo/wCEP13/AKCtz/4MX/8AjddvijFHtGHIji7P4Y+HLiWZ9Z8K+HbwufMJltI52eZmYySsWjHzt8mT1OwZJwK6fTNH07RLKKw0vT7Ows4c+Xb2sKxRpkknCqABkknjuTV00lSUJsT+6KTYv90U/FGKAGeWv90UeWv90U/FGKAGeWv90UeWv90U/FGKAGeWv90UeWv90U/FGKAGeWv90UeWv90U/FGKAGeWv90UeWv90U/FGKAGeWv90UeWv90U/FGKAGeWv90UeWv90U/FGKAGeWv90UeWv90U/FGKAGeWv90UeWv90U/FGKAGeWv90UeWv90U/FGKAGeWv90UeWv90U/FGKAGeWv90UeWv90U/FGKAGeWv90UeWv90U/FGKAGeWv90UeWv90U/FGKAGeWv90UeWv90U/FGKAGeWv90UeWv90U/FGKAGeWv90UeWv90U/FGKAGeWv90UeWv90U/FGKAGeWv90UeWv90U/FGKAGeWv90UeWv90U/FGKAGeWvoKPLX0FPxRikAzy0/uiuavPAuj2962q6Joej2OqzSO9xeRQJDNMHVt2ZFUsSWIY56kZ6109HWgDjP8AhFNd/wCgjN/4MH/+N0f8Iprv/QRm/wDBg/8A8brs9go2CmBxn/CK67/0E5//AAYP/wDG6P8AhFdd/wCgnP8A+DB//jddnijFAHGf8Irrv/QTn/8ABg//AMbo/wCEV13/AKCc/wD4MH/+N12eKMUAcZ/wiuu/9BOf/wAGD/8Axuj/AIRXXf8AoJz/APgwf/43XZ4oxQBxn/CK67/0E5//AAYP/wDG6P8AhFdd/wCgnP8A+DB//jddnijFAHGf8Irrv/QTn/8ABg//AMbo/wCEV13/AKCc/wD4MH/+N12eKMUAcZ/wiuu/9BOf/wAGD/8Axuj/AIRXXf8AoJz/APgwf/43XZ4oxQBxn/CK67/0E5//AAYP/wDG6P8AhFdd/wCgnP8A+DB//jddnijFAHGf8Irrv/QTn/8ABg//AMbo/wCEV13/AKCc/wD4MH/+N12eKMUAcZ/wimu/9BKf/wAGL/8AxurOgeCbWx1dtX1Cw0+41BcNDeMolnRypR2EhQMCybEODyqgHgCuqopALRRRQMKKKKACiiigAooooAKKKKACiiigD//Zl2fWAiAAmA8=;" parent="1" vertex="1">
          <mxGeometry x="846" y="-1132.5" width="808" height="604" as="geometry" />
        </mxCell>
        <mxCell id="YZjhSqeYnAwiwWr1wC6c-40" style="edgeStyle=orthogonalEdgeStyle;rounded=0;orthogonalLoop=1;jettySize=auto;html=1;entryX=0;entryY=0.5;entryDx=0;entryDy=0;" parent="1" source="YZjhSqeYnAwiwWr1wC6c-42" target="YZjhSqeYnAwiwWr1wC6c-44" edge="1">
          <mxGeometry relative="1" as="geometry">
            <mxPoint x="210" y="-1117.5" as="targetPoint" />
            <Array as="points">
              <mxPoint x="190" y="-1082.5" />
              <mxPoint x="190" y="-1112.5" />
            </Array>
          </mxGeometry>
        </mxCell>
        <mxCell id="YZjhSqeYnAwiwWr1wC6c-41" style="edgeStyle=orthogonalEdgeStyle;rounded=0;orthogonalLoop=1;jettySize=auto;html=1;entryX=0;entryY=0.5;entryDx=0;entryDy=0;" parent="1" source="YZjhSqeYnAwiwWr1wC6c-42" target="YZjhSqeYnAwiwWr1wC6c-46" edge="1">
          <mxGeometry relative="1" as="geometry">
            <mxPoint x="200" y="-1067.5" as="targetPoint" />
            <Array as="points">
              <mxPoint x="190" y="-1082.5" />
              <mxPoint x="190" y="-1052.5" />
            </Array>
          </mxGeometry>
        </mxCell>
        <mxCell id="YZjhSqeYnAwiwWr1wC6c-42" value="&lt;span style=&quot;text-align: left;&quot;&gt;泸州区块浅层三维精细速度模型构建&lt;/span&gt;" style="rounded=1;whiteSpace=wrap;html=1;" parent="1" vertex="1">
          <mxGeometry x="50" y="-1127.5" width="120" height="85" as="geometry" />
        </mxCell>
        <mxCell id="YZjhSqeYnAwiwWr1wC6c-57" style="edgeStyle=orthogonalEdgeStyle;rounded=0;orthogonalLoop=1;jettySize=auto;html=1;entryX=0;entryY=0.5;entryDx=0;entryDy=0;" parent="1" source="YZjhSqeYnAwiwWr1wC6c-44" target="YZjhSqeYnAwiwWr1wC6c-47" edge="1">
          <mxGeometry relative="1" as="geometry" />
        </mxCell>
        <mxCell id="YZjhSqeYnAwiwWr1wC6c-44" value="&lt;span style=&quot;text-align: left;&quot;&gt;密集地震台阵观测资料、区域一维初始模型&lt;/span&gt;" style="rounded=1;whiteSpace=wrap;html=1;" parent="1" vertex="1">
          <mxGeometry x="210" y="-1132.5" width="280" height="40" as="geometry" />
        </mxCell>
        <mxCell id="YZjhSqeYnAwiwWr1wC6c-58" style="edgeStyle=orthogonalEdgeStyle;rounded=0;orthogonalLoop=1;jettySize=auto;html=1;" parent="1" source="YZjhSqeYnAwiwWr1wC6c-46" target="YZjhSqeYnAwiwWr1wC6c-47" edge="1">
          <mxGeometry relative="1" as="geometry" />
        </mxCell>
        <mxCell id="YZjhSqeYnAwiwWr1wC6c-46" value="&lt;span style=&quot;text-align: left;&quot;&gt;互相关计算和叠加、频散曲线提取&lt;/span&gt;" style="rounded=1;whiteSpace=wrap;html=1;" parent="1" vertex="1">
          <mxGeometry x="210" y="-1072.5" width="280" height="40" as="geometry" />
        </mxCell>
        <mxCell id="YZjhSqeYnAwiwWr1wC6c-92" style="edgeStyle=orthogonalEdgeStyle;rounded=0;orthogonalLoop=1;jettySize=auto;html=1;entryX=0.5;entryY=0;entryDx=0;entryDy=0;" parent="1" source="YZjhSqeYnAwiwWr1wC6c-47" target="YZjhSqeYnAwiwWr1wC6c-66" edge="1">
          <mxGeometry relative="1" as="geometry" />
        </mxCell>
        <mxCell id="YZjhSqeYnAwiwWr1wC6c-47" value="&lt;span style=&quot;text-align: left;&quot;&gt;浅层S 波三维精细模型&lt;/span&gt;" style="rounded=1;whiteSpace=wrap;html=1;" parent="1" vertex="1">
          <mxGeometry x="545" y="-1127.5" width="120" height="85" as="geometry" />
        </mxCell>
        <mxCell id="YZjhSqeYnAwiwWr1wC6c-59" style="edgeStyle=orthogonalEdgeStyle;rounded=0;orthogonalLoop=1;jettySize=auto;html=1;entryX=0;entryY=0.5;entryDx=0;entryDy=0;" parent="1" source="YZjhSqeYnAwiwWr1wC6c-61" target="YZjhSqeYnAwiwWr1wC6c-63" edge="1">
          <mxGeometry relative="1" as="geometry">
            <mxPoint x="210" y="-997.5" as="targetPoint" />
            <Array as="points">
              <mxPoint x="190" y="-962.5" />
              <mxPoint x="190" y="-992.5" />
            </Array>
          </mxGeometry>
        </mxCell>
        <mxCell id="YZjhSqeYnAwiwWr1wC6c-60" style="edgeStyle=orthogonalEdgeStyle;rounded=0;orthogonalLoop=1;jettySize=auto;html=1;entryX=0;entryY=0.5;entryDx=0;entryDy=0;" parent="1" source="YZjhSqeYnAwiwWr1wC6c-61" target="YZjhSqeYnAwiwWr1wC6c-65" edge="1">
          <mxGeometry relative="1" as="geometry">
            <mxPoint x="200" y="-947.5" as="targetPoint" />
            <Array as="points">
              <mxPoint x="190" y="-962.5" />
              <mxPoint x="190" y="-932.5" />
            </Array>
          </mxGeometry>
        </mxCell>
        <mxCell id="YZjhSqeYnAwiwWr1wC6c-61" value="&lt;span style=&quot;text-align: left;&quot;&gt;考虑注采影响的强地面运动情景构建&amp;nbsp;&lt;/span&gt;" style="rounded=1;whiteSpace=wrap;html=1;" parent="1" vertex="1">
          <mxGeometry x="50" y="-1007.5" width="120" height="85" as="geometry" />
        </mxCell>
        <mxCell id="YZjhSqeYnAwiwWr1wC6c-62" style="edgeStyle=orthogonalEdgeStyle;rounded=0;orthogonalLoop=1;jettySize=auto;html=1;entryX=0;entryY=0.5;entryDx=0;entryDy=0;" parent="1" source="YZjhSqeYnAwiwWr1wC6c-63" target="YZjhSqeYnAwiwWr1wC6c-66" edge="1">
          <mxGeometry relative="1" as="geometry" />
        </mxCell>
        <mxCell id="YZjhSqeYnAwiwWr1wC6c-63" value="&lt;span style=&quot;text-align: left;&quot;&gt;加速度时程记录、断层的几何模型，地质参数模型&lt;/span&gt;" style="rounded=1;whiteSpace=wrap;html=1;" parent="1" vertex="1">
          <mxGeometry x="210" y="-1012.5" width="280" height="40" as="geometry" />
        </mxCell>
        <mxCell id="YZjhSqeYnAwiwWr1wC6c-64" style="edgeStyle=orthogonalEdgeStyle;rounded=0;orthogonalLoop=1;jettySize=auto;html=1;" parent="1" source="YZjhSqeYnAwiwWr1wC6c-65" target="YZjhSqeYnAwiwWr1wC6c-66" edge="1">
          <mxGeometry relative="1" as="geometry" />
        </mxCell>
        <mxCell id="YZjhSqeYnAwiwWr1wC6c-65" value="&lt;span style=&quot;text-align: left;&quot;&gt;精细速度结构模型、密度模型、衰减系数模型&lt;/span&gt;" style="rounded=1;whiteSpace=wrap;html=1;" parent="1" vertex="1">
          <mxGeometry x="210" y="-952.5" width="280" height="40" as="geometry" />
        </mxCell>
        <mxCell id="YZjhSqeYnAwiwWr1wC6c-93" style="edgeStyle=orthogonalEdgeStyle;rounded=0;orthogonalLoop=1;jettySize=auto;html=1;entryX=0.5;entryY=0;entryDx=0;entryDy=0;" parent="1" source="YZjhSqeYnAwiwWr1wC6c-66" target="YZjhSqeYnAwiwWr1wC6c-74" edge="1">
          <mxGeometry relative="1" as="geometry" />
        </mxCell>
        <mxCell id="YZjhSqeYnAwiwWr1wC6c-66" value="&lt;span style=&quot;text-align: left;&quot;&gt;强地面运动系列分布图&lt;/span&gt;" style="rounded=1;whiteSpace=wrap;html=1;" parent="1" vertex="1">
          <mxGeometry x="545" y="-1007.5" width="120" height="85" as="geometry" />
        </mxCell>
        <mxCell id="YZjhSqeYnAwiwWr1wC6c-67" style="edgeStyle=orthogonalEdgeStyle;rounded=0;orthogonalLoop=1;jettySize=auto;html=1;entryX=0;entryY=0.5;entryDx=0;entryDy=0;" parent="1" source="YZjhSqeYnAwiwWr1wC6c-69" target="YZjhSqeYnAwiwWr1wC6c-71" edge="1">
          <mxGeometry relative="1" as="geometry">
            <mxPoint x="210" y="-877.5" as="targetPoint" />
            <Array as="points">
              <mxPoint x="190" y="-842.5" />
              <mxPoint x="190" y="-872.5" />
            </Array>
          </mxGeometry>
        </mxCell>
        <mxCell id="YZjhSqeYnAwiwWr1wC6c-68" style="edgeStyle=orthogonalEdgeStyle;rounded=0;orthogonalLoop=1;jettySize=auto;html=1;entryX=0;entryY=0.5;entryDx=0;entryDy=0;" parent="1" source="YZjhSqeYnAwiwWr1wC6c-69" target="YZjhSqeYnAwiwWr1wC6c-73" edge="1">
          <mxGeometry relative="1" as="geometry">
            <mxPoint x="200" y="-827.5" as="targetPoint" />
            <Array as="points">
              <mxPoint x="190" y="-842.5" />
              <mxPoint x="190" y="-812.5" />
            </Array>
          </mxGeometry>
        </mxCell>
        <mxCell id="YZjhSqeYnAwiwWr1wC6c-69" value="&lt;span style=&quot;text-align: left;&quot;&gt;示范区承灾体调查及数据库构建&lt;/span&gt;" style="rounded=1;whiteSpace=wrap;html=1;" parent="1" vertex="1">
          <mxGeometry x="50" y="-887.5" width="120" height="85" as="geometry" />
        </mxCell>
        <mxCell id="YZjhSqeYnAwiwWr1wC6c-70" style="edgeStyle=orthogonalEdgeStyle;rounded=0;orthogonalLoop=1;jettySize=auto;html=1;entryX=0;entryY=0.5;entryDx=0;entryDy=0;" parent="1" source="YZjhSqeYnAwiwWr1wC6c-71" target="YZjhSqeYnAwiwWr1wC6c-74" edge="1">
          <mxGeometry relative="1" as="geometry" />
        </mxCell>
        <mxCell id="YZjhSqeYnAwiwWr1wC6c-71" value="遥感、无人机承载体调查、历史震害、社会统计信息" style="rounded=1;whiteSpace=wrap;html=1;" parent="1" vertex="1">
          <mxGeometry x="210" y="-892.5" width="280" height="40" as="geometry" />
        </mxCell>
        <mxCell id="YZjhSqeYnAwiwWr1wC6c-72" style="edgeStyle=orthogonalEdgeStyle;rounded=0;orthogonalLoop=1;jettySize=auto;html=1;" parent="1" source="YZjhSqeYnAwiwWr1wC6c-73" target="YZjhSqeYnAwiwWr1wC6c-74" edge="1">
          <mxGeometry relative="1" as="geometry" />
        </mxCell>
        <mxCell id="YZjhSqeYnAwiwWr1wC6c-73" value="单体详细调查、AI识别" style="rounded=1;whiteSpace=wrap;html=1;" parent="1" vertex="1">
          <mxGeometry x="210" y="-832.5" width="280" height="40" as="geometry" />
        </mxCell>
        <mxCell id="YZjhSqeYnAwiwWr1wC6c-94" style="edgeStyle=orthogonalEdgeStyle;rounded=0;orthogonalLoop=1;jettySize=auto;html=1;entryX=0.5;entryY=0;entryDx=0;entryDy=0;" parent="1" source="YZjhSqeYnAwiwWr1wC6c-74" target="YZjhSqeYnAwiwWr1wC6c-82" edge="1">
          <mxGeometry relative="1" as="geometry" />
        </mxCell>
        <mxCell id="YZjhSqeYnAwiwWr1wC6c-74" value="承载体基础数据库" style="rounded=1;whiteSpace=wrap;html=1;" parent="1" vertex="1">
          <mxGeometry x="545" y="-887.5" width="120" height="85" as="geometry" />
        </mxCell>
        <mxCell id="YZjhSqeYnAwiwWr1wC6c-75" style="edgeStyle=orthogonalEdgeStyle;rounded=0;orthogonalLoop=1;jettySize=auto;html=1;entryX=0;entryY=0.5;entryDx=0;entryDy=0;" parent="1" source="YZjhSqeYnAwiwWr1wC6c-77" target="YZjhSqeYnAwiwWr1wC6c-79" edge="1">
          <mxGeometry relative="1" as="geometry">
            <mxPoint x="210" y="-757.5" as="targetPoint" />
            <Array as="points">
              <mxPoint x="190" y="-722.5" />
              <mxPoint x="190" y="-752.5" />
            </Array>
          </mxGeometry>
        </mxCell>
        <mxCell id="YZjhSqeYnAwiwWr1wC6c-76" style="edgeStyle=orthogonalEdgeStyle;rounded=0;orthogonalLoop=1;jettySize=auto;html=1;entryX=0;entryY=0.5;entryDx=0;entryDy=0;" parent="1" source="YZjhSqeYnAwiwWr1wC6c-77" target="YZjhSqeYnAwiwWr1wC6c-81" edge="1">
          <mxGeometry relative="1" as="geometry">
            <mxPoint x="200" y="-707.5" as="targetPoint" />
            <Array as="points">
              <mxPoint x="190" y="-722.5" />
              <mxPoint x="190" y="-692.5" />
            </Array>
          </mxGeometry>
        </mxCell>
        <mxCell id="YZjhSqeYnAwiwWr1wC6c-77" value="&lt;div style=&quot;&quot;&gt;&lt;span style=&quot;background-color: initial;&quot;&gt;示范区建筑地震易损性分析模型&lt;/span&gt;&lt;/div&gt;" style="rounded=1;whiteSpace=wrap;html=1;align=center;" parent="1" vertex="1">
          <mxGeometry x="50" y="-767.5" width="120" height="85" as="geometry" />
        </mxCell>
        <mxCell id="YZjhSqeYnAwiwWr1wC6c-78" style="edgeStyle=orthogonalEdgeStyle;rounded=0;orthogonalLoop=1;jettySize=auto;html=1;entryX=0;entryY=0.5;entryDx=0;entryDy=0;" parent="1" source="YZjhSqeYnAwiwWr1wC6c-79" target="YZjhSqeYnAwiwWr1wC6c-82" edge="1">
          <mxGeometry relative="1" as="geometry" />
        </mxCell>
        <mxCell id="YZjhSqeYnAwiwWr1wC6c-79" value="建筑群逐栋自动化建模方法、建筑群弹塑性时程分析模型" style="rounded=1;whiteSpace=wrap;html=1;align=center;" parent="1" vertex="1">
          <mxGeometry x="210" y="-772.5" width="280" height="40" as="geometry" />
        </mxCell>
        <mxCell id="YZjhSqeYnAwiwWr1wC6c-80" style="edgeStyle=orthogonalEdgeStyle;rounded=0;orthogonalLoop=1;jettySize=auto;html=1;" parent="1" source="YZjhSqeYnAwiwWr1wC6c-81" target="YZjhSqeYnAwiwWr1wC6c-82" edge="1">
          <mxGeometry relative="1" as="geometry" />
        </mxCell>
        <mxCell id="YZjhSqeYnAwiwWr1wC6c-81" value="考虑注采影响的模拟与历史地震动数据、建筑弹塑性分析" style="rounded=1;whiteSpace=wrap;html=1;align=center;" parent="1" vertex="1">
          <mxGeometry x="210" y="-712.5" width="280" height="40" as="geometry" />
        </mxCell>
        <mxCell id="YZjhSqeYnAwiwWr1wC6c-95" style="edgeStyle=orthogonalEdgeStyle;rounded=0;orthogonalLoop=1;jettySize=auto;html=1;entryX=0.5;entryY=0;entryDx=0;entryDy=0;" parent="1" source="YZjhSqeYnAwiwWr1wC6c-82" target="YZjhSqeYnAwiwWr1wC6c-90" edge="1">
          <mxGeometry relative="1" as="geometry" />
        </mxCell>
        <mxCell id="YZjhSqeYnAwiwWr1wC6c-82" value="地震易损性分析模型" style="rounded=1;whiteSpace=wrap;html=1;" parent="1" vertex="1">
          <mxGeometry x="545" y="-767.5" width="120" height="85" as="geometry" />
        </mxCell>
        <mxCell id="YZjhSqeYnAwiwWr1wC6c-83" style="edgeStyle=orthogonalEdgeStyle;rounded=0;orthogonalLoop=1;jettySize=auto;html=1;entryX=0;entryY=0.5;entryDx=0;entryDy=0;" parent="1" source="YZjhSqeYnAwiwWr1wC6c-85" target="YZjhSqeYnAwiwWr1wC6c-87" edge="1">
          <mxGeometry relative="1" as="geometry">
            <mxPoint x="210" y="-637.5" as="targetPoint" />
            <Array as="points">
              <mxPoint x="190" y="-602.5" />
              <mxPoint x="190" y="-632.5" />
            </Array>
          </mxGeometry>
        </mxCell>
        <mxCell id="YZjhSqeYnAwiwWr1wC6c-84" style="edgeStyle=orthogonalEdgeStyle;rounded=0;orthogonalLoop=1;jettySize=auto;html=1;entryX=0;entryY=0.5;entryDx=0;entryDy=0;" parent="1" source="YZjhSqeYnAwiwWr1wC6c-85" target="YZjhSqeYnAwiwWr1wC6c-89" edge="1">
          <mxGeometry relative="1" as="geometry">
            <mxPoint x="200" y="-587.5" as="targetPoint" />
            <Array as="points">
              <mxPoint x="190" y="-602.5" />
              <mxPoint x="190" y="-572.5" />
            </Array>
          </mxGeometry>
        </mxCell>
        <mxCell id="YZjhSqeYnAwiwWr1wC6c-85" value="&lt;div style=&quot;&quot;&gt;&lt;span style=&quot;background-color: initial;&quot;&gt;考虑注采影响的地震灾害风险评估&lt;/span&gt;&lt;/div&gt;" style="rounded=1;whiteSpace=wrap;html=1;align=center;" parent="1" vertex="1">
          <mxGeometry x="50" y="-647.5" width="120" height="85" as="geometry" />
        </mxCell>
        <mxCell id="YZjhSqeYnAwiwWr1wC6c-86" style="edgeStyle=orthogonalEdgeStyle;rounded=0;orthogonalLoop=1;jettySize=auto;html=1;entryX=0;entryY=0.5;entryDx=0;entryDy=0;" parent="1" source="YZjhSqeYnAwiwWr1wC6c-87" target="YZjhSqeYnAwiwWr1wC6c-90" edge="1">
          <mxGeometry relative="1" as="geometry" />
        </mxCell>
        <mxCell id="YZjhSqeYnAwiwWr1wC6c-87" value="&lt;div style=&quot;&quot;&gt;&lt;span style=&quot;background-color: initial;&quot;&gt;考虑注采影响的地震动数据、浅层精细结构与建筑地震易损性模型&lt;/span&gt;&lt;/div&gt;" style="rounded=1;whiteSpace=wrap;html=1;align=center;" parent="1" vertex="1">
          <mxGeometry x="210" y="-652.5" width="280" height="40" as="geometry" />
        </mxCell>
        <mxCell id="YZjhSqeYnAwiwWr1wC6c-88" style="edgeStyle=orthogonalEdgeStyle;rounded=0;orthogonalLoop=1;jettySize=auto;html=1;" parent="1" source="YZjhSqeYnAwiwWr1wC6c-89" target="YZjhSqeYnAwiwWr1wC6c-90" edge="1">
          <mxGeometry relative="1" as="geometry" />
        </mxCell>
        <mxCell id="YZjhSqeYnAwiwWr1wC6c-89" value="&lt;div style=&quot;&quot;&gt;&lt;span style=&quot;background-color: initial;&quot;&gt;建筑破坏-人员伤亡相关性模型，地震人员伤亡风险模型&lt;/span&gt;&lt;/div&gt;" style="rounded=1;whiteSpace=wrap;html=1;align=center;" parent="1" vertex="1">
          <mxGeometry x="210" y="-592.5" width="280" height="40" as="geometry" />
        </mxCell>
        <mxCell id="YZjhSqeYnAwiwWr1wC6c-90" value="&lt;div style=&quot;&quot;&gt;&lt;span style=&quot;background-color: initial;&quot;&gt;考虑注采影响的地震灾害风险分析评估结果&lt;/span&gt;&lt;/div&gt;" style="rounded=1;whiteSpace=wrap;html=1;align=center;" parent="1" vertex="1">
          <mxGeometry x="545" y="-647.5" width="120" height="85" as="geometry" />
        </mxCell>
      </root>
    </mxGraphModel>
  </diagram>
</mxfile>
